<svg fill="none" height="472" viewBox="0 0 596 472" width="596" xmlns="http://www.w3.org/2000/svg"><path d="m0 0h596v472h-596z" fill="#fff"/><g fill="#000"><path d="m71.88 56.8c.0747 0 .1333.0213.176.064s.064.1013.064.176v10.72c0 .0747-.0213.1333-.064.176s-.1013.064-.176.064h-1.264c-.0747 0-.1333-.0213-.176-.064s-.064-.1013-.064-.176v-4.512h-4.704v4.512c0 .0747-.0213.1333-.064.176s-.1013.064-.176.064h-1.264c-.0747 0-.1333-.0213-.176-.064s-.064-.1013-.064-.176v-10.72c0-.0747.0213-.1333.064-.176s.1013-.064.176-.064h1.264c.0747 0 .1333.0213.176.064s.064.1013.064.176v4.64h4.704v-4.64c0-.0747.0213-.1333.064-.176s.1013-.064.176-.064zm6.1273 3.184c.736 0 1.3813.176 1.936.528.5653.352 1.0026.8267 1.312 1.424.3093.5867.464 1.2267.464 1.92 0 .32-.0374.5493-.112.688-.064.128-.1974.192-.4.192h-5.44c.1066.64.384 1.1467.832 1.52s1.024.56 1.728.56c.384 0 .7253-.0533 1.024-.16.2986-.1173.592-.2827.88-.496.0746-.0533.1386-.08.192-.08.0533 0 .1013.0213.144.064l.512.496c.064.064.096.1227.096.176 0 .064-.032.128-.096.192-.3734.384-.8107.6827-1.312.896-.5014.2027-1.0347.304-1.6.304-.7787 0-1.4774-.1813-2.096-.544-.6187-.3627-1.0987-.8533-1.44-1.472-.3414-.6293-.512-1.328-.512-2.096 0-.7573.1653-1.4507.496-2.08.3413-.6293.8053-1.1253 1.392-1.488.5973-.3627 1.264-.544 2-.544zm.016 1.44c-.5974 0-1.1094.1973-1.536.592-.416.384-.6614.9013-.736 1.552h4.48c-.0534-.64-.2827-1.1573-.688-1.552-.4054-.3947-.912-.592-1.52-.592zm12.9628-1.264c.0747 0 .1334.0213.176.064.0427.0427.064.1013.064.176v7.36c0 .0747-.0213.1333-.064.176-.0426.0427-.1013.064-.176.064h-1.088c-.1386 0-.2186-.08-.24-.24l-.064-.8c-.3093.384-.6826.688-1.12.912-.4266.224-.9066.336-1.44.336-.7253 0-1.376-.1813-1.952-.544s-1.0293-.8587-1.36-1.488c-.3306-.6293-.496-1.3227-.496-2.08s.1654-1.4507.496-2.08c.3307-.6293.784-1.1253 1.36-1.488s1.2267-.544 1.952-.544c.5334 0 1.0134.1173 1.44.352.4374.224.816.5333 1.136.928l.048-.864c.0214-.16.1014-.24.24-.24zm-3.776 6.512c.448 0 .8534-.1173 1.216-.352.3627-.2347.6454-.5493.848-.944.2027-.3947.304-.8267.304-1.296 0-.4587-.1013-.8853-.304-1.28-.2026-.3947-.4853-.704-.848-.928-.3626-.2347-.768-.352-1.216-.352s-.8533.112-1.216.336c-.3626.224-.6453.5333-.848.928-.2026.384-.304.816-.304 1.296s.1014.9227.304 1.328c.2134.3947.496.704.848.928.3627.224.768.336 1.216.336zm13.6169-10.352c.075 0 .134.0213.176.064.043.0427.064.1013.064.176v11.2c0 .0747-.021.1333-.064.176-.042.0427-.101.064-.176.064h-1.0876c-.1387 0-.2187-.08-.24-.24l-.064-.8c-.3094.384-.6827.688-1.12.912-.4267.224-.9067.336-1.44.336-.7254 0-1.376-.1813-1.952-.544s-1.0294-.8587-1.36-1.488c-.3307-.6293-.496-1.3227-.496-2.08s.1653-1.4507.496-2.08c.3306-.6293.784-1.1253 1.36-1.488s1.2266-.544 1.952-.544c.512 0 .976.1067 1.392.32.4266.2133.8.512 1.12.896v-4.64c0-.0747.0213-.1333.064-.176.0426-.0427.1013-.064.176-.064zm-3.7756 10.352c.448 0 .8533-.1173 1.216-.352.3626-.2347.6453-.5493.848-.944.2026-.3947.304-.8267.304-1.296 0-.4587-.1014-.8853-.304-1.28-.2027-.3947-.4854-.704-.848-.928-.3627-.2347-.768-.352-1.216-.352s-.8534.112-1.216.336c-.3627.224-.6454.5333-.848.928-.2027.384-.304.816-.304 1.296s.1013.9227.304 1.328c.2133.3947.496.704.848.928.3626.224.768.336 1.216.336zm9.7456-6.688c.736 0 1.381.176 1.936.528.565.352 1.002.8267 1.312 1.424.309.5867.464 1.2267.464 1.92 0 .32-.038.5493-.112.688-.064.128-.198.192-.4.192h-5.44c.106.64.384 1.1467.832 1.52s1.024.56 1.728.56c.384 0 .725-.0533 1.024-.16.298-.1173.592-.2827.88-.496.074-.0533.138-.08.192-.08.053 0 .101.0213.144.064l.512.496c.064.064.096.1227.096.176 0 .064-.032.128-.096.192-.374.384-.811.6827-1.312.896-.502.2027-1.035.304-1.6.304-.779 0-1.478-.1813-2.096-.544-.619-.3627-1.099-.8533-1.44-1.472-.342-.6293-.512-1.328-.512-2.096 0-.7573.165-1.4507.496-2.08.341-.6293.805-1.1253 1.392-1.488.597-.3627 1.264-.544 2-.544zm.016 1.44c-.598 0-1.11.1973-1.536.592-.416.384-.662.9013-.736 1.552h4.48c-.054-.64-.283-1.1573-.688-1.552-.406-.3947-.912-.592-1.52-.592zm10.16-1.136c.064.064.096.1227.096.176s-.01.096-.032.128l-.368.88c-.032.0747-.074.1227-.128.144-.042.0213-.106.0213-.192 0-.213-.064-.426-.096-.64-.096-.49 0-.896.1653-1.216.496-.309.32-.464.7253-.464 1.216v4.528c0 .0747-.021.1333-.064.176-.042.0427-.101.064-.176.064h-1.2c-.074 0-.133-.0213-.176-.064-.042-.0427-.064-.1013-.064-.176v-7.36c0-.0747.022-.1333.064-.176.043-.0427.102-.064.176-.064h1.12c.139 0 .219.08.24.24l.064.768c.48-.7893 1.136-1.184 1.968-1.184.406 0 .736.1013.992.304z"/><path d="m69.544 142.968c.6827.16 1.232.491 1.648.992.4267.501.64 1.099.64 1.792 0 1.056-.3413 1.861-1.024 2.416-.672.555-1.6853.832-3.04.832h-3.6c-.0747 0-.1333-.021-.176-.064s-.064-.101-.064-.176v-10.72c0-.075.0213-.133.064-.176s.1013-.064.176-.064h3.616c.736 0 1.3493.128 1.84.384s.8533.592 1.088 1.008.352.869.352 1.36c0 .576-.1333 1.083-.4 1.52-.2667.427-.64.725-1.12.896zm-.128-2.24c0-.459-.16-.8-.48-1.024-.3093-.224-.7467-.336-1.312-.336h-1.952v2.96h1.952c.5547 0 .992-.133 1.312-.4.32-.277.48-.677.48-1.2zm-1.648 6.704c1.536 0 2.304-.613 2.304-1.84 0-.576-.1973-1.019-.592-1.328-.384-.309-.9547-.464-1.712-.464h-2.096v3.632zm9.6016 1.776c-.736 0-1.4133-.181-2.032-.544-.608-.363-1.0933-.859-1.456-1.488-.352-.629-.528-1.323-.528-2.08s.176-1.451.528-2.08c.3627-.629.848-1.125 1.456-1.488.6187-.363 1.296-.544 2.032-.544s1.408.181 2.016.544c.6187.363 1.104.859 1.456 1.488.3627.629.544 1.323.544 2.08s-.1813 1.451-.544 2.08c-.352.629-.8373 1.125-1.456 1.488-.608.363-1.28.544-2.016.544zm0-1.552c.448 0 .8534-.107 1.216-.32.3627-.224.6507-.528.864-.912.2134-.395.32-.837.32-1.328s-.1066-.933-.32-1.328c-.2133-.395-.5013-.699-.864-.912-.3626-.224-.768-.336-1.216-.336s-.8533.112-1.216.336c-.3626.213-.6506.517-.864.912-.2133.395-.32.837-.32 1.328s.1067.933.32 1.328c.2134.384.5014.688.864.912.3627.213.768.32 1.216.32zm13.2884-10.336c.0747 0 .1333.021.176.064s.064.101.064.176v11.2c0 .075-.0213.133-.064.176s-.1013.064-.176.064h-1.088c-.1387 0-.2187-.08-.24-.24l-.064-.8c-.3093.384-.6827.688-1.12.912-.4267.224-.9067.336-1.44.336-.7253 0-1.376-.181-1.952-.544s-1.0293-.859-1.36-1.488-.496-1.323-.496-2.08.1653-1.451.496-2.08.784-1.125 1.36-1.488 1.2267-.544 1.952-.544c.512 0 .976.107 1.392.32.4267.213.8.512 1.12.896v-4.64c0-.075.0213-.133.064-.176s.1013-.064.176-.064zm-3.776 10.352c.448 0 .8533-.117 1.216-.352s.6453-.549.848-.944.304-.827.304-1.296c0-.459-.1013-.885-.304-1.28s-.4853-.704-.848-.928c-.3627-.235-.768-.352-1.216-.352s-.8533.112-1.216.336-.6453.533-.848.928c-.2027.384-.304.816-.304 1.296s.1013.923.304 1.328c.2133.395.496.704.848.928.3627.224.768.336 1.216.336zm13.233-6.512c.086 0 .144.027.176.08.043.043.048.107.016.192l-4.1277 10.416c-.0534.128-.1494.192-.288.192h-1.2c-.0854 0-.1494-.027-.192-.08-.032-.043-.032-.107 0-.192l1.12-2.736-3.008-7.6c-.0107-.032-.016-.069-.016-.112 0-.107.0693-.16.208-.16h1.216c.1386 0 .2346.064.288.192l2.144 5.696 2.144-5.696c.0533-.128.1493-.192.288-.192z"/><path d="m67.336 254.8c.8213 0 1.5253.155 2.112.464.5867.299 1.0293.72 1.328 1.264.3093.533.464 1.147.464 1.84s-.1547 1.312-.464 1.856c-.2987.533-.7413.955-1.328 1.264-.5867.299-1.2907.448-2.112.448h-1.664v3.824c0 .075-.0213.133-.064.176s-.1013.064-.176.064h-1.264c-.0747 0-.1333-.021-.176-.064s-.064-.101-.064-.176v-10.72c0-.075.0213-.133.064-.176s.1013-.064.176-.064zm-.064 5.568c.672 0 1.2213-.16 1.648-.48s.64-.827.64-1.52-.2133-1.2-.64-1.52-.976-.48-1.648-.48h-1.6v4zm10.3675-2.08c.064.064.096.123.096.176s-.0107.096-.032.128l-.368.88c-.032.075-.0747.123-.128.144-.0427.021-.1067.021-.192 0-.2133-.064-.4267-.096-.64-.096-.4907 0-.896.165-1.216.496-.3093.32-.464.725-.464 1.216v4.528c0 .075-.0213.133-.064.176s-.1013.064-.176.064h-1.2c-.0747 0-.1333-.021-.176-.064s-.064-.101-.064-.176v-7.36c0-.075.0213-.133.064-.176s.1013-.064.176-.064h1.12c.1387 0 .2187.08.24.24l.064.768c.48-.789 1.136-1.184 1.968-1.184.4053 0 .736.101.992.304zm2.2996-1.808c-.2666 0-.496-.096-.688-.288s-.288-.421-.288-.688c0-.277.096-.507.288-.688.192-.192.4214-.288.688-.288.2774 0 .5067.096.688.288.192.181.288.411.288.688 0 .267-.096.496-.288.688-.1813.192-.4106.288-.688.288zm-.832 1.92c0-.075.0214-.133.064-.176.0427-.043.1014-.064.176-.064h1.2c.0747 0 .1334.021.176.064.0427.043.064.101.064.176v7.36c0 .075-.0213.133-.064.176-.0426.043-.1013.064-.176.064h-1.2c-.0746 0-.1333-.021-.176-.064-.0426-.043-.064-.101-.064-.176zm13.2828-.416c.864 0 1.5573.283 2.08.848.5226.555.784 1.344.784 2.368v4.56c0 .075-.0214.133-.064.176-.0427.043-.1014.064-.176.064h-1.2c-.0747 0-.1334-.021-.176-.064-.0427-.043-.064-.101-.064-.176v-4.32c0-.64-.1494-1.12-.448-1.44-.2987-.32-.6934-.48-1.184-.48-.4374 0-.8107.101-1.12.304-.3094.192-.544.427-.704.704-.1494.277-.224.533-.224.768v4.464c0 .075-.0214.133-.064.176-.0427.043-.1014.064-.176.064h-1.2c-.0747 0-.1334-.021-.176-.064-.0427-.043-.064-.101-.064-.176v-4.32c0-.64-.1494-1.12-.448-1.44-.288-.32-.6774-.48-1.168-.48-.416 0-.7787.107-1.088.32-.3094.213-.5494.459-.72.736-.16.277-.24.485-.24.624v4.56c0 .075-.0214.133-.064.176-.0427.043-.1014.064-.176.064h-1.2c-.0747 0-.1334-.021-.176-.064-.0427-.043-.064-.101-.064-.176v-7.36c0-.075.0213-.133.064-.176.0426-.043.1013-.064.176-.064h1.136c.1386 0 .2186.08.24.24l.064 1.056c.288-.448.6453-.805 1.072-1.072.4373-.267.9333-.4 1.488-.4.5546 0 1.0453.133 1.472.4.4266.256.7573.629.992 1.12.288-.459.672-.827 1.152-1.104s1.0346-.416 1.664-.416zm12.4661.176c.075 0 .133.021.176.064s.064.101.064.176v7.36c0 .075-.021.133-.064.176s-.101.064-.176.064h-1.088c-.139 0-.219-.08-.24-.24l-.064-.8c-.309.384-.683.688-1.12.912-.427.224-.907.336-1.44.336-.725 0-1.3759-.181-1.9519-.544s-1.0293-.859-1.36-1.488c-.3306-.629-.496-1.323-.496-2.08s.1654-1.451.496-2.08c.3307-.629.784-1.125 1.36-1.488s1.2269-.544 1.9519-.544c.533 0 1.013.117 1.44.352.437.224.816.533 1.136.928l.048-.864c.021-.16.101-.24.24-.24zm-3.776 6.512c.448 0 .853-.117 1.216-.352s.645-.549.848-.944.304-.827.304-1.296c0-.459-.101-.885-.304-1.28s-.485-.704-.848-.928c-.363-.235-.768-.352-1.216-.352s-.853.112-1.2159.336c-.3626.224-.6453.533-.848.928-.2026.384-.304.816-.304 1.296s.1014.923.304 1.328c.2134.395.496.704.848.928.3629.224.7679.336 1.2159.336zm10.721-6.384c.064.064.096.123.096.176s-.01.096-.032.128l-.368.88c-.032.075-.074.123-.128.144-.042.021-.106.021-.192 0-.213-.064-.426-.096-.64-.096-.49 0-.896.165-1.216.496-.309.32-.464.725-.464 1.216v4.528c0 .075-.021.133-.064.176-.042.043-.101.064-.176.064h-1.2c-.074 0-.133-.021-.176-.064-.042-.043-.064-.101-.064-.176v-7.36c0-.075.022-.133.064-.176.043-.043.102-.064.176-.064h1.12c.139 0 .219.08.24.24l.064.768c.48-.789 1.136-1.184 1.968-1.184.406 0 .736.101.992.304zm8.588-.128c.085 0 .144.027.176.08.043.043.048.107.016.192l-4.128 10.416c-.053.128-.149.192-.288.192h-1.2c-.085 0-.149-.027-.192-.08-.032-.043-.032-.107 0-.192l1.12-2.736-3.008-7.6c-.011-.032-.016-.069-.016-.112 0-.107.069-.16.208-.16h1.216c.139 0 .235.064.288.192l2.144 5.696 2.144-5.696c.053-.128.149-.192.288-.192zm16.032 6.144c.043.043.064.096.064.16s-.026.123-.08.176c-.533.491-1.125.875-1.776 1.152-.65.277-1.338.416-2.064.416-1.045 0-2.005-.256-2.88-.768-.864-.512-1.552-1.205-2.064-2.08-.501-.885-.752-1.856-.752-2.912s.251-2.027.752-2.912c.512-.885 1.2-1.584 2.064-2.096.875-.512 1.835-.768 2.88-.768.736 0 1.43.139 2.08.416.651.277 1.238.661 1.76 1.152.054.043.08.101.08.176 0 .064-.021.117-.064.16l-.8.832c-.053.053-.106.08-.16.08-.042 0-.101-.027-.176-.08-.821-.693-1.733-1.04-2.736-1.04-.714 0-1.37.181-1.968.544-.597.352-1.072.837-1.424 1.456-.341.619-.512 1.312-.512 2.08 0 .757.171 1.445.512 2.064.352.619.827 1.104 1.424 1.456.598.352 1.254.528 1.968.528 1.024 0 1.936-.347 2.736-1.04.043-.043.096-.064.16-.064.075 0 .134.027.176.08zm5.21 1.904c-.736 0-1.413-.181-2.032-.544-.608-.363-1.093-.859-1.456-1.488-.352-.629-.528-1.323-.528-2.08s.176-1.451.528-2.08c.363-.629.848-1.125 1.456-1.488.619-.363 1.296-.544 2.032-.544s1.408.181 2.016.544c.619.363 1.104.859 1.456 1.488.363.629.544 1.323.544 2.08s-.181 1.451-.544 2.08c-.352.629-.837 1.125-1.456 1.488-.608.363-1.28.544-2.016.544zm0-1.552c.448 0 .853-.107 1.216-.32.363-.224.651-.528.864-.912.213-.395.32-.837.32-1.328s-.107-.933-.32-1.328-.501-.699-.864-.912c-.363-.224-.768-.336-1.216-.336s-.853.112-1.216.336c-.363.213-.651.517-.864.912s-.32.837-.32 1.328.107.933.32 1.328c.213.384.501.688.864.912.363.213.768.32 1.216.32zm5.862-10.096c0-.075.021-.133.064-.176s.101-.064.176-.064h1.2c.075 0 .133.021.176.064s.064.101.064.176v11.2c0 .075-.021.133-.064.176s-.101.064-.176.064h-1.2c-.075 0-.133-.021-.176-.064s-.064-.101-.064-.176zm7.539 11.648c-.736 0-1.413-.181-2.032-.544-.608-.363-1.093-.859-1.456-1.488-.352-.629-.528-1.323-.528-2.08s.176-1.451.528-2.08c.363-.629.848-1.125 1.456-1.488.619-.363 1.296-.544 2.032-.544s1.408.181 2.016.544c.619.363 1.104.859 1.456 1.488.363.629.544 1.323.544 2.08s-.181 1.451-.544 2.08c-.352.629-.837 1.125-1.456 1.488-.608.363-1.28.544-2.016.544zm0-1.552c.448 0 .853-.107 1.216-.32.363-.224.651-.528.864-.912.213-.395.32-.837.32-1.328s-.107-.933-.32-1.328-.501-.699-.864-.912c-.363-.224-.768-.336-1.216-.336s-.853.112-1.216.336c-.363.213-.651.517-.864.912s-.32.837-.32 1.328.107.933.32 1.328c.213.384.501.688.864.912.363.213.768.32 1.216.32zm10.486-6.368c.064.064.096.123.096.176s-.01.096-.032.128l-.368.88c-.032.075-.074.123-.128.144-.042.021-.106.021-.192 0-.213-.064-.426-.096-.64-.096-.49 0-.896.165-1.216.496-.309.32-.464.725-.464 1.216v4.528c0 .075-.021.133-.064.176-.042.043-.101.064-.176.064h-1.2c-.074 0-.133-.021-.176-.064-.042-.043-.064-.101-.064-.176v-7.36c0-.075.022-.133.064-.176.043-.043.102-.064.176-.064h1.12c.139 0 .219.08.24.24l.064.768c.48-.789 1.136-1.184 1.968-1.184.406 0 .736.101.992.304zm2.956 1.952c0 .288.123.512.368.672.256.16.651.331 1.184.512.523.171.949.341 1.28.512s.613.416.848.736c.245.32.368.731.368 1.232 0 .459-.139.864-.416 1.216-.277.341-.635.608-1.072.8s-.896.288-1.376.288c-.619 0-1.189-.128-1.712-.384-.512-.256-.923-.565-1.232-.928-.043-.053-.064-.107-.064-.16 0-.064.016-.117.048-.16l.496-.656c.053-.064.107-.096.16-.096.043 0 .107.032.192.096.747.565 1.435.848 2.064.848.373 0 .677-.075.912-.224.245-.149.368-.373.368-.672s-.133-.533-.4-.704c-.256-.171-.661-.352-1.216-.544-.523-.192-.944-.368-1.264-.528-.309-.171-.581-.405-.816-.704-.224-.299-.336-.677-.336-1.136 0-.448.117-.843.352-1.184.245-.352.565-.619.96-.8.405-.192.843-.288 1.312-.288.48 0 .955.107 1.424.32.469.203.864.491 1.184.864.043.043.064.091.064.144s-.027.117-.08.192l-.448.592c-.053.053-.101.08-.144.08-.032 0-.101-.032-.208-.096-.331-.256-.624-.437-.88-.544-.245-.117-.517-.176-.816-.176s-.56.075-.784.224c-.213.149-.32.368-.32.656z"/><path d="m255.464 257.696c0 .309.096.576.288.8.203.213.453.395.752.544s.699.32 1.2.512c.693.267 1.259.523 1.696.768.448.245.827.587 1.136 1.024.309.427.464.976.464 1.648 0 .629-.176 1.189-.528 1.68-.341.48-.8.859-1.376 1.136-.576.267-1.195.4-1.856.4-.757 0-1.456-.165-2.096-.496s-1.157-.741-1.552-1.232c-.043-.064-.064-.117-.064-.16 0-.064.032-.117.096-.16l.72-.768c.043-.043.096-.064.16-.064s.123.027.176.08c.405.373.811.661 1.216.864s.859.304 1.36.304c.587 0 1.072-.155 1.456-.464s.576-.699.576-1.168c0-.32-.101-.592-.304-.816-.203-.235-.459-.432-.768-.592-.299-.16-.704-.341-1.216-.544-.683-.277-1.237-.533-1.664-.768-.427-.245-.795-.576-1.104-.992-.299-.416-.448-.939-.448-1.568 0-.587.149-1.104.448-1.552.309-.459.72-.811 1.232-1.056.512-.256 1.077-.384 1.696-.384.629 0 1.227.133 1.792.4.565.256 1.067.619 1.504 1.088.053.053.08.107.08.16 0 .043-.027.101-.08.176l-.656.768c-.064.064-.128.096-.192.096-.053 0-.101-.021-.144-.064-.395-.352-.768-.608-1.12-.768s-.736-.24-1.152-.24c-.512 0-.928.128-1.248.384s-.48.597-.48 1.024zm11.043.288c.736 0 1.382.176 1.936.528.566.352 1.003.827 1.312 1.424.31.587.464 1.227.464 1.92 0 .32-.037.549-.112.688-.064.128-.197.192-.4.192h-5.44c.107.64.384 1.147.832 1.52s1.024.56 1.728.56c.384 0 .726-.053 1.024-.16.299-.117.592-.283.88-.496.075-.053.139-.08.192-.08.054 0 .102.021.144.064l.512.496c.064.064.096.123.096.176 0 .064-.032.128-.096.192-.373.384-.81.683-1.312.896-.501.203-1.034.304-1.6.304-.778 0-1.477-.181-2.096-.544-.618-.363-1.098-.853-1.44-1.472-.341-.629-.512-1.328-.512-2.096 0-.757.166-1.451.496-2.08.342-.629.806-1.125 1.392-1.488.598-.363 1.264-.544 2-.544zm.016 1.44c-.597 0-1.109.197-1.536.592-.416.384-.661.901-.736 1.552h4.48c-.053-.64-.282-1.157-.688-1.552-.405-.395-.912-.592-1.52-.592zm9.187 5.232c.448 0 .816-.075 1.104-.224.299-.149.587-.357.864-.624.053-.053.112-.08.176-.08.075 0 .133.027.176.08l.704.672c.053.053.08.112.08.176s-.021.117-.064.16c-.373.437-.827.779-1.36 1.024-.523.245-1.088.368-1.696.368-.736 0-1.408-.181-2.016-.544s-1.088-.859-1.44-1.488c-.341-.629-.512-1.323-.512-2.08s.171-1.451.512-2.08c.352-.629.832-1.125 1.44-1.488s1.28-.544 2.016-.544c.597 0 1.152.123 1.664.368.523.245.971.587 1.344 1.024.043.043.064.096.064.16s-.027.123-.08.176l-.704.672c-.053.053-.107.08-.16.08-.064 0-.128-.032-.192-.096-.32-.277-.613-.485-.88-.624-.267-.149-.613-.224-1.04-.224-.693 0-1.264.245-1.712.736-.437.491-.656 1.104-.656 1.84s.219 1.349.656 1.84c.448.48 1.019.72 1.712.72zm8.389 1.552c-.736 0-1.413-.181-2.032-.544-.608-.363-1.093-.859-1.456-1.488-.352-.629-.528-1.323-.528-2.08s.176-1.451.528-2.08c.363-.629.848-1.125 1.456-1.488.619-.363 1.296-.544 2.032-.544s1.408.181 2.016.544c.619.363 1.104.859 1.456 1.488.363.629.544 1.323.544 2.08s-.181 1.451-.544 2.08c-.352.629-.837 1.125-1.456 1.488-.608.363-1.28.544-2.016.544zm0-1.552c.448 0 .853-.107 1.216-.32.363-.224.651-.528.864-.912.213-.395.32-.837.32-1.328s-.107-.933-.32-1.328-.501-.699-.864-.912c-.363-.224-.768-.336-1.216-.336s-.853.112-1.216.336c-.363.213-.651.517-.864.912s-.32.837-.32 1.328.107.933.32 1.328c.213.384.501.688.864.912.363.213.768.32 1.216.32zm10.102-6.672c.832 0 1.504.283 2.016.848.512.555.768 1.344.768 2.368v4.56c0 .075-.021.133-.064.176s-.101.064-.176.064h-1.2c-.075 0-.133-.021-.176-.064s-.064-.101-.064-.176v-4.32c0-.64-.149-1.12-.448-1.44-.288-.32-.677-.48-1.168-.48-.416 0-.779.107-1.088.32s-.549.459-.72.736c-.16.277-.24.485-.24.624v4.56c0 .075-.021.133-.064.176s-.101.064-.176.064h-1.2c-.075 0-.133-.021-.176-.064s-.064-.101-.064-.176v-7.36c0-.075.021-.133.064-.176s.101-.064.176-.064h1.136c.139 0 .219.08.24.24l.064 1.056c.288-.448.645-.805 1.072-1.072.437-.267.933-.4 1.488-.4zm12.403-3.664c.074 0 .133.021.176.064.042.043.064.101.064.176v11.2c0 .075-.022.133-.064.176-.043.043-.102.064-.176.064h-1.088c-.139 0-.219-.08-.24-.24l-.064-.8c-.31.384-.683.688-1.12.912-.427.224-.907.336-1.44.336-.726 0-1.376-.181-1.952-.544s-1.03-.859-1.36-1.488c-.331-.629-.496-1.323-.496-2.08s.165-1.451.496-2.08c.33-.629.784-1.125 1.36-1.488s1.226-.544 1.952-.544c.512 0 .976.107 1.392.32.426.213.8.512 1.12.896v-4.64c0-.075.021-.133.064-.176.042-.043.101-.064.176-.064zm-3.776 10.352c.448 0 .853-.117 1.216-.352.362-.235.645-.549.848-.944.202-.395.304-.827.304-1.296 0-.459-.102-.885-.304-1.28-.203-.395-.486-.704-.848-.928-.363-.235-.768-.352-1.216-.352s-.854.112-1.216.336c-.363.224-.646.533-.848.928-.203.384-.304.816-.304 1.296s.101.923.304 1.328c.213.395.496.704.848.928.362.224.768.336 1.216.336zm13.617-6.512c.075 0 .133.021.176.064s.064.101.064.176v7.36c0 .075-.021.133-.064.176s-.101.064-.176.064h-1.088c-.139 0-.219-.08-.24-.24l-.064-.8c-.309.384-.683.688-1.12.912-.427.224-.907.336-1.44.336-.725 0-1.376-.181-1.952-.544s-1.029-.859-1.36-1.488-.496-1.323-.496-2.08.165-1.451.496-2.08.784-1.125 1.36-1.488 1.227-.544 1.952-.544c.533 0 1.013.117 1.44.352.437.224.816.533 1.136.928l.048-.864c.021-.16.101-.24.24-.24zm-3.776 6.512c.448 0 .853-.117 1.216-.352s.645-.549.848-.944.304-.827.304-1.296c0-.459-.101-.885-.304-1.28s-.485-.704-.848-.928c-.363-.235-.768-.352-1.216-.352s-.853.112-1.216.336-.645.533-.848.928c-.203.384-.304.816-.304 1.296s.101.923.304 1.328c.213.395.496.704.848.928.363.224.768.336 1.216.336zm10.721-6.384c.064.064.096.123.096.176s-.011.096-.032.128l-.368.88c-.032.075-.075.123-.128.144-.043.021-.107.021-.192 0-.213-.064-.427-.096-.64-.096-.491 0-.896.165-1.216.496-.309.32-.464.725-.464 1.216v4.528c0 .075-.021.133-.064.176s-.101.064-.176.064h-1.2c-.075 0-.133-.021-.176-.064s-.064-.101-.064-.176v-7.36c0-.075.021-.133.064-.176s.101-.064.176-.064h1.12c.139 0 .219.08.24.24l.064.768c.48-.789 1.136-1.184 1.968-1.184.405 0 .736.101.992.304zm8.588-.128c.085 0 .144.027.176.08.042.043.048.107.016.192l-4.128 10.416c-.054.128-.15.192-.288.192h-1.2c-.086 0-.15-.027-.192-.08-.032-.043-.032-.107 0-.192l1.12-2.736-3.008-7.6c-.011-.032-.016-.069-.016-.112 0-.107.069-.16.208-.16h1.216c.138 0 .234.064.288.192l2.144 5.696 2.144-5.696c.053-.128.149-.192.288-.192zm16.032 6.144c.043.043.064.096.064.16s-.027.123-.08.176c-.533.491-1.125.875-1.776 1.152s-1.339.416-2.064.416c-1.045 0-2.005-.256-2.88-.768-.864-.512-1.552-1.205-2.064-2.08-.501-.885-.752-1.856-.752-2.912s.251-2.027.752-2.912c.512-.885 1.2-1.584 2.064-2.096.875-.512 1.835-.768 2.88-.768.736 0 1.429.139 2.08.416s1.237.661 1.76 1.152c.053.043.08.101.08.176 0 .064-.021.117-.064.16l-.8.832c-.053.053-.107.08-.16.08-.043 0-.101-.027-.176-.08-.821-.693-1.733-1.04-2.736-1.04-.715 0-1.371.181-1.968.544-.597.352-1.072.837-1.424 1.456-.341.619-.512 1.312-.512 2.08 0 .757.171 1.445.512 2.064.352.619.827 1.104 1.424 1.456s1.253.528 1.968.528c1.024 0 1.936-.347 2.736-1.04.043-.043.096-.064.16-.064.075 0 .133.027.176.08zm5.21 1.904c-.736 0-1.414-.181-2.032-.544-.608-.363-1.094-.859-1.456-1.488-.352-.629-.528-1.323-.528-2.08s.176-1.451.528-2.08c.362-.629.848-1.125 1.456-1.488.618-.363 1.296-.544 2.032-.544s1.408.181 2.016.544c.618.363 1.104.859 1.456 1.488.362.629.544 1.323.544 2.08s-.182 1.451-.544 2.08c-.352.629-.838 1.125-1.456 1.488-.608.363-1.28.544-2.016.544zm0-1.552c.448 0 .853-.107 1.216-.32.362-.224.65-.528.864-.912.213-.395.32-.837.32-1.328s-.107-.933-.32-1.328c-.214-.395-.502-.699-.864-.912-.363-.224-.768-.336-1.216-.336s-.854.112-1.216.336c-.363.213-.651.517-.864.912-.214.395-.32.837-.32 1.328s.106.933.32 1.328c.213.384.501.688.864.912.362.213.768.32 1.216.32zm5.862-10.096c0-.075.021-.133.064-.176.042-.043.101-.064.176-.064h1.2c.074 0 .133.021.176.064.042.043.064.101.064.176v11.2c0 .075-.022.133-.064.176-.043.043-.102.064-.176.064h-1.2c-.075 0-.134-.021-.176-.064-.043-.043-.064-.101-.064-.176zm7.539 11.648c-.736 0-1.413-.181-2.032-.544-.608-.363-1.093-.859-1.456-1.488-.352-.629-.528-1.323-.528-2.08s.176-1.451.528-2.08c.363-.629.848-1.125 1.456-1.488.619-.363 1.296-.544 2.032-.544s1.408.181 2.016.544c.619.363 1.104.859 1.456 1.488.363.629.544 1.323.544 2.08s-.181 1.451-.544 2.08c-.352.629-.837 1.125-1.456 1.488-.608.363-1.28.544-2.016.544zm0-1.552c.448 0 .853-.107 1.216-.32.363-.224.651-.528.864-.912.213-.395.32-.837.32-1.328s-.107-.933-.32-1.328-.501-.699-.864-.912c-.363-.224-.768-.336-1.216-.336s-.853.112-1.216.336c-.363.213-.651.517-.864.912s-.32.837-.32 1.328.107.933.32 1.328c.213.384.501.688.864.912.363.213.768.32 1.216.32zm10.486-6.368c.064.064.096.123.096.176s-.011.096-.032.128l-.368.88c-.032.075-.075.123-.128.144-.043.021-.107.021-.192 0-.213-.064-.427-.096-.64-.096-.491 0-.896.165-1.216.496-.309.32-.464.725-.464 1.216v4.528c0 .075-.021.133-.064.176s-.101.064-.176.064h-1.2c-.075 0-.133-.021-.176-.064s-.064-.101-.064-.176v-7.36c0-.075.021-.133.064-.176s.101-.064.176-.064h1.12c.139 0 .219.08.24.24l.064.768c.48-.789 1.136-1.184 1.968-1.184.405 0 .736.101.992.304zm2.956 1.952c0 .288.122.512.368.672.256.16.65.331 1.184.512.522.171.949.341 1.28.512.33.171.613.416.848.736.245.32.368.731.368 1.232 0 .459-.139.864-.416 1.216-.278.341-.635.608-1.072.8-.438.192-.896.288-1.376.288-.619 0-1.19-.128-1.712-.384-.512-.256-.923-.565-1.232-.928-.043-.053-.064-.107-.064-.16 0-.064.016-.117.048-.16l.496-.656c.053-.064.106-.096.16-.096.042 0 .106.032.192.096.746.565 1.434.848 2.064.848.373 0 .677-.075.912-.224.245-.149.368-.373.368-.672s-.134-.533-.4-.704c-.256-.171-.662-.352-1.216-.544-.523-.192-.944-.368-1.264-.528-.31-.171-.582-.405-.816-.704-.224-.299-.336-.677-.336-1.136 0-.448.117-.843.352-1.184.245-.352.565-.619.96-.8.405-.192.842-.288 1.312-.288.48 0 .954.107 1.424.32.469.203.864.491 1.184.864.042.043.064.091.064.144s-.027.117-.08.192l-.448.592c-.054.053-.102.08-.144.08-.032 0-.102-.032-.208-.096-.331-.256-.624-.437-.88-.544-.246-.117-.518-.176-.816-.176-.299 0-.56.075-.784.224-.214.149-.32.368-.32.656z"/><path d="m73.485 89.585c.07 0 .125.02.165.06s.06.095.06.165v.48c0 .93-.195 1.77-.585 2.52-.39.74-.95 1.325-1.68 1.755-.73.42-1.58.63-2.55.63-.99 0-1.89-.24-2.7-.72-.81-.49-1.445-1.15-1.905-1.98s-.69-1.745-.69-2.745c0-.98.23-1.88.69-2.7.47-.82 1.11-1.47 1.92-1.95s1.7-.72 2.67-.72c1.25 0 2.43.475 3.54 1.425.06.04.09.095.09.165 0 .05-.025.1-.075.15l-.465.465c-.05.05-.1.075-.15.075-.04 0-.095-.025-.165-.075-.84-.71-1.765-1.065-2.775-1.065-.74 0-1.425.185-2.055.555-.62.37-1.115.88-1.485 1.53s-.555 1.365-.555 2.145c0 .81.18 1.545.54 2.205.37.65.865 1.165 1.485 1.545.63.37 1.325.555 2.085.555.7 0 1.325-.14 1.875-.42.56-.29 1-.69 1.32-1.2.32-.52.49-1.11.51-1.77h-3.54c-.07 0-.125-.02-.165-.06s-.06-.095-.06-.165v-.63c0-.07.02-.125.06-.165s.095-.06.165-.06zm5.8354-1.86c.05.02.075.06.075.12 0 .05-.01.09-.03.12l-.24.525c-.04.08-.095.12-.165.12-.05 0-.14-.015-.27-.045s-.27-.045-.42-.045c-.46 0-.85.155-1.17.465-.31.31-.465.7-.465 1.17v4.62c0 .07-.02.125-.06.165s-.095.06-.165.06h-.675c-.07 0-.125-.02-.165-.06s-.06-.095-.06-.165v-6.9c0-.07.02-.125.06-.165s.095-.06.165-.06h.6c.13 0 .205.075.225.225l.06.645c.21-.32.47-.57.78-.75.31-.19.655-.285 1.035-.285.37 0 .665.08.885.24zm4.3526-.24c.68 0 1.28.165 1.8.495.53.33.935.77 1.215 1.32.29.54.435 1.125.435 1.755 0 .27-.03.465-.09.585-.05.11-.165.165-.345.165h-5.505c.08.72.365 1.305.855 1.755.49.44 1.115.66 1.875.66s1.43-.245 2.01-.735c.06-.06.12-.09.18-.09.05 0 .095.02.135.06l.285.27c.07.07.105.13.105.18s-.03.105-.09.165c-.35.36-.76.64-1.23.84-.47.19-.975.285-1.515.285-.72 0-1.365-.17-1.935-.51-.56-.34-1-.8-1.32-1.38-.31-.59-.465-1.245-.465-1.965 0-.71.15-1.36.45-1.95.31-.59.74-1.055 1.29-1.395s1.17-.51 1.86-.51zm0 .99c-.68 0-1.25.23-1.71.69-.45.46-.715 1.05-.795 1.77h4.965c-.02-.46-.14-.875-.36-1.245-.21-.38-.5-.675-.87-.885-.36-.22-.77-.33-1.23-.33zm10.92-.825c.08 0 .135.025.165.075.04.04.045.1.015.18l-3.87 9.765c-.04.12-.13.18-.27.18h-.69c-.08 0-.14-.025-.18-.075-.03-.04-.03-.1 0-.18l1.035-2.565-2.82-7.125c-.01-.03-.015-.065-.015-.105 0-.1.065-.15.195-.15h.69c.13 0 .22.06.27.18l2.25 5.895 2.25-5.895c.04-.12.13-.18.27-.18zm4.722 6.525c.52 0 .93-.08 1.23-.24.3-.17.6-.405.9-.705.06-.06.115-.09.165-.09s.105.03.165.09l.375.345c.05.05.075.105.075.165s-.02.11-.06.15c-.36.41-.78.73-1.26.96s-1.01.345-1.59.345c-.69 0-1.32-.17-1.89-.51-.56-.34-1-.805-1.32-1.395s-.48-1.24-.48-1.95.16-1.36.48-1.95.76-1.055 1.32-1.395c.57-.34 1.2-.51 1.89-.51.56 0 1.075.115 1.545.345.48.23.9.55 1.26.96.04.04.06.09.06.15s-.025.115-.075.165l-.375.345c-.05.05-.105.075-.165.075-.04 0-.095-.025-.165-.075-.04-.03-.165-.14-.375-.33-.2-.19-.45-.34-.75-.45-.29-.11-.61-.165-.96-.165-.5 0-.95.125-1.35.375-.39.24-.7.58-.93 1.02-.22.43-.33.91-.33 1.44s.11 1.015.33 1.455c.23.43.54.77.93 1.02.4.24.85.36 1.35.36zm4.633-9.9c0-.07.02-.125.06-.165s.095-.06.165-.06h.675c.07 0 .125.02.165.06s.06.095.06.165v10.5c0 .07-.02.125-.06.165s-.095.06-.165.06h-.675c-.07 0-.125-.02-.165-.06s-.06-.095-.06-.165zm3.776 1.62c-.2 0-.37-.07-.51-.21s-.21-.31-.21-.51.07-.37.21-.51.31-.21.51-.21.37.07.51.21.21.31.21.51-.07.37-.21.51-.31.21-.51.21zm-.555 1.98c0-.07.02-.125.06-.165s.095-.06.165-.06h.675c.07 0 .125.02.165.06s.06.095.06.165v6.9c0 .07-.02.125-.06.165s-.095.06-.165.06h-.675c-.07 0-.125-.02-.165-.06s-.06-.095-.06-.165zm7.767-3.105c.05.06.045.12-.015.18l-.39.39c-.04.04-.075.065-.105.075-.02 0-.05-.015-.09-.045-.04-.02-.135-.075-.285-.165-.14-.09-.275-.155-.405-.195s-.265-.06-.405-.06c-.38 0-.645.09-.795.27-.15.17-.225.435-.225.795v1.635h1.47c.07 0 .125.02.165.06s.06.095.06.165v.51c0 .07-.02.125-.06.165s-.095.06-.165.06h-1.47v6.165c0 .07-.02.125-.06.165s-.095.06-.165.06h-.675c-.07 0-.125-.02-.165-.06s-.06-.095-.06-.165v-6.165h-.87c-.07 0-.125-.02-.165-.06s-.06-.095-.06-.165v-.51c0-.07.02-.125.06-.165s.095-.06.165-.06h.87v-1.695c0-1.33.7-1.995 2.1-1.995.36 0 .69.075.99.225s.55.345.75.585zm5.359 0c.05.06.045.12-.015.18l-.39.39c-.04.04-.075.065-.105.075-.02 0-.05-.015-.09-.045-.04-.02-.135-.075-.285-.165-.14-.09-.275-.155-.405-.195s-.265-.06-.405-.06c-.38 0-.645.09-.795.27-.15.17-.225.435-.225.795v1.635h1.47c.07 0 .125.02.165.06s.06.095.06.165v.51c0 .07-.02.125-.06.165s-.095.06-.165.06h-1.47v6.165c0 .07-.02.125-.06.165s-.095.06-.165.06h-.675c-.07 0-.125-.02-.165-.06s-.06-.095-.06-.165v-6.165h-.87c-.07 0-.125-.02-.165-.06s-.06-.095-.06-.165v-.51c0-.07.02-.125.06-.165s.095-.06.165-.06h.87v-1.695c0-1.33.7-1.995 2.1-1.995.36 0 .69.075.99.225s.55.345.75.585zm14.123 8.685c.05.05.075.1.075.15 0 .06-.03.115-.09.165-1.11.95-2.29 1.425-3.54 1.425-.97 0-1.86-.24-2.67-.72s-1.45-1.13-1.92-1.95c-.46-.83-.69-1.74-.69-2.73s.23-1.9.69-2.73c.47-.83 1.11-1.485 1.92-1.965s1.7-.72 2.67-.72c1.25 0 2.43.475 3.54 1.425.06.04.09.095.09.165 0 .05-.025.1-.075.15l-.465.465c-.05.05-.1.075-.15.075-.04 0-.095-.025-.165-.075-.84-.71-1.765-1.065-2.775-1.065-.74 0-1.425.19-2.055.57-.63.37-1.13.88-1.5 1.53-.36.65-.54 1.375-.54 2.175 0 .79.185 1.51.555 2.16s.865 1.165 1.485 1.545c.63.37 1.315.555 2.055.555 1.01 0 1.935-.355 2.775-1.065.07-.05.125-.075.165-.075.05 0 .1.025.15.075zm7.275-8.955c.07 0 .125.02.165.06s.06.095.06.165v.63c0 .07-.02.125-.06.165s-.095.06-.165.06h-4.08v3.315h3.885c.07 0 .125.02.165.06s.06.095.06.165v.63c0 .07-.02.125-.06.165s-.095.06-.165.06h-3.885v4.8c0 .07-.02.125-.06.165s-.095.06-.165.06h-.72c-.07 0-.125-.02-.165-.06s-.06-.095-.06-.165v-10.05c0-.07.02-.125.06-.165s.095-.06.165-.06zm11.75 4.815c.68.16 1.215.475 1.605.945s.585 1.03.585 1.68c0 .99-.315 1.75-.945 2.28-.62.52-1.55.78-2.79.78h-3.165c-.07 0-.125-.02-.165-.06s-.06-.095-.06-.165v-10.05c0-.07.02-.125.06-.165s.095-.06.165-.06h3.195c.71 0 1.29.12 1.74.36.46.24.79.55.99.93.21.37.315.775.315 1.215 0 .55-.13 1.03-.39 1.44-.26.4-.64.69-1.14.87zm.39-2.235c0-.5-.18-.875-.54-1.125-.35-.25-.84-.375-1.47-.375h-2.145v3.3h2.145c.63 0 1.12-.155 1.47-.465.36-.32.54-.765.54-1.335zm-1.98 6.84c.86 0 1.505-.16 1.935-.48.43-.33.645-.845.645-1.545 0-.62-.21-1.105-.63-1.455-.41-.36-1.06-.54-1.95-.54h-2.175v4.02zm9.007 1.275c-.69 0-1.32-.17-1.89-.51s-1.02-.805-1.35-1.395c-.32-.59-.48-1.24-.48-1.95s.16-1.36.48-1.95c.33-.59.78-1.055 1.35-1.395s1.2-.51 1.89-.51 1.32.17 1.89.51 1.015.805 1.335 1.395c.33.59.495 1.24.495 1.95s-.165 1.36-.495 1.95c-.32.59-.765 1.055-1.335 1.395s-1.2.51-1.89.51zm0-1.02c.49 0 .935-.12 1.335-.36.41-.25.73-.59.96-1.02s.345-.915.345-1.455-.115-1.025-.345-1.455-.55-.765-.96-1.005c-.4-.25-.845-.375-1.335-.375s-.94.125-1.35.375c-.4.24-.715.575-.945 1.005s-.345.915-.345 1.455.115 1.025.345 1.455.545.77.945 1.02c.41.24.86.36 1.35.36zm5.526-9.9c0-.07.02-.125.06-.165s.095-.06.165-.06h.675c.07 0 .125.02.165.06s.06.095.06.165v10.5c0 .07-.02.125-.06.165s-.095.06-.165.06h-.675c-.07 0-.125-.02-.165-.06s-.06-.095-.06-.165zm10.017-.225c.07 0 .125.02.165.06s.06.095.06.165v10.5c0 .07-.02.125-.06.165s-.095.06-.165.06h-.615c-.13 0-.205-.075-.225-.225l-.06-.9c-.31.41-.685.73-1.125.96-.43.23-.92.345-1.47.345-.69 0-1.31-.17-1.86-.51-.54-.34-.965-.8-1.275-1.38-.31-.59-.465-1.24-.465-1.95s.155-1.355.465-1.935c.31-.59.735-1.055 1.275-1.395.55-.34 1.17-.51 1.86-.51.55 0 1.045.12 1.485.36.44.23.81.55 1.11.96v-4.545c0-.07.02-.125.06-.165s.095-.06.165-.06zm-3.405 10.11c.49 0 .93-.125 1.32-.375.4-.26.71-.605.93-1.035.23-.44.345-.915.345-1.425s-.115-.975-.345-1.395c-.22-.43-.53-.77-.93-1.02-.39-.26-.83-.39-1.32-.39s-.935.125-1.335.375c-.4.24-.715.575-.945 1.005-.22.42-.33.895-.33 1.425s.11 1.015.33 1.455c.23.43.545.77.945 1.02.4.24.845.36 1.335.36zm18.765-.705c.05.05.075.1.075.15 0 .06-.03.115-.09.165-1.11.95-2.29 1.425-3.54 1.425-.97 0-1.86-.24-2.67-.72s-1.45-1.13-1.92-1.95c-.46-.83-.69-1.74-.69-2.73s.23-1.9.69-2.73c.47-.83 1.11-1.485 1.92-1.965s1.7-.72 2.67-.72c1.25 0 2.43.475 3.54 1.425.06.04.09.095.09.165 0 .05-.025.1-.075.15l-.465.465c-.05.05-.1.075-.15.075-.04 0-.095-.025-.165-.075-.84-.71-1.765-1.065-2.775-1.065-.74 0-1.425.19-2.055.57-.63.37-1.13.88-1.5 1.53-.36.65-.54 1.375-.54 2.175 0 .79.185 1.51.555 2.16s.865 1.165 1.485 1.545c.63.37 1.315.555 2.055.555 1.01 0 1.935-.355 2.775-1.065.07-.05.125-.075.165-.075.05 0 .1.025.15.075zm8.29-5.805c.07 0 .125.02.165.06s.06.095.06.165v6.9c0 .07-.02.125-.06.165s-.095.06-.165.06h-.615c-.13 0-.205-.075-.225-.225l-.06-.9c-.31.41-.685.73-1.125.96-.43.23-.92.345-1.47.345-.69 0-1.31-.17-1.86-.51-.54-.34-.965-.8-1.275-1.38-.31-.59-.465-1.24-.465-1.95s.155-1.355.465-1.935c.31-.59.735-1.055 1.275-1.395.55-.34 1.17-.51 1.86-.51.55 0 1.045.12 1.485.36.44.23.81.55 1.11.96l.06-.945c.02-.15.095-.225.225-.225zm-3.405 6.51c.49 0 .93-.125 1.32-.375.4-.26.71-.605.93-1.035.23-.44.345-.915.345-1.425s-.115-.975-.345-1.395c-.22-.43-.53-.77-.93-1.02-.39-.26-.83-.39-1.32-.39s-.935.125-1.335.375c-.4.24-.715.575-.945 1.005-.22.42-.33.895-.33 1.425s.11 1.015.33 1.455c.23.43.545.77.945 1.02.4.24.845.36 1.335.36zm9.379-6.66c.69 0 1.305.17 1.845.51.55.34.98.805 1.29 1.395.31.58.465 1.225.465 1.935s-.155 1.36-.465 1.95c-.31.58-.74 1.04-1.29 1.38-.54.34-1.155.51-1.845.51-.55 0-1.045-.115-1.485-.345-.43-.23-.8-.55-1.11-.96v3.75c0 .07-.02.125-.06.165s-.095.06-.165.06h-.675c-.07 0-.125-.02-.165-.06s-.06-.095-.06-.165v-9.75c0-.07.02-.125.06-.165s.095-.06.165-.06h.615c.13 0 .205.075.225.225l.06.945c.3-.41.67-.73 1.11-.96.44-.24.935-.36 1.485-.36zm-.09 6.66c.49 0 .935-.12 1.335-.36.4-.25.71-.59.93-1.02.23-.44.345-.925.345-1.455s-.115-1.005-.345-1.425c-.22-.43-.53-.765-.93-1.005-.4-.25-.845-.375-1.335-.375s-.935.13-1.335.39c-.39.25-.7.59-.93 1.02-.22.42-.33.885-.33 1.395s.11.985.33 1.425c.23.43.54.775.93 1.035.4.25.845.375 1.335.375zm6.322-4.665c0 .23.07.425.21.585.15.16.335.29.555.39s.525.225.915.375c.5.17.91.34 1.23.51.32.16.59.385.81.675s.33.66.33 1.11c0 .4-.12.76-.36 1.08-.24.31-.555.55-.945.72s-.8.255-1.23.255c-.57 0-1.095-.115-1.575-.345-.48-.24-.865-.535-1.155-.885-.05-.07-.075-.12-.075-.15s.02-.075.06-.135l.33-.405c.05-.06.095-.09.135-.09.03 0 .09.035.18.105.26.24.565.455.915.645.36.18.745.27 1.155.27.44 0 .795-.095 1.065-.285s.405-.455.405-.795c0-.25-.08-.46-.24-.63-.15-.18-.34-.325-.57-.435s-.55-.24-.96-.39c-.49-.18-.885-.345-1.185-.495-.3-.16-.555-.375-.765-.645-.21-.28-.315-.625-.315-1.035 0-.58.225-1.06.675-1.44.46-.38 1.025-.57 1.695-.57.41 0 .83.1 1.26.3.43.19.795.46 1.095.81.04.04.06.085.06.135s-.025.11-.075.18l-.255.33c-.04.05-.085.075-.135.075-.07 0-.135-.03-.195-.09-.31-.27-.6-.465-.87-.585-.26-.13-.555-.195-.885-.195s-.63.085-.9.255c-.26.17-.39.435-.39.795z"/></g><path d="m73.485 170.585c.07 0 .125.02.165.06s.06.095.06.165v.48c0 .93-.195 1.77-.585 2.52-.39.74-.95 1.325-1.68 1.755-.73.42-1.58.63-2.55.63-.99 0-1.89-.24-2.7-.72-.81-.49-1.445-1.15-1.905-1.98s-.69-1.745-.69-2.745c0-.98.23-1.88.69-2.7.47-.82 1.11-1.47 1.92-1.95s1.7-.72 2.67-.72c1.25 0 2.43.475 3.54 1.425.06.04.09.095.09.165 0 .05-.025.1-.075.15l-.465.465c-.05.05-.1.075-.15.075-.04 0-.095-.025-.165-.075-.84-.71-1.765-1.065-2.775-1.065-.74 0-1.425.185-2.055.555-.62.37-1.115.88-1.485 1.53s-.555 1.365-.555 2.145c0 .81.18 1.545.54 2.205.37.65.865 1.165 1.485 1.545.63.37 1.325.555 2.085.555.7 0 1.325-.14 1.875-.42.56-.29 1-.69 1.32-1.2.32-.52.49-1.11.51-1.77h-3.54c-.07 0-.125-.02-.165-.06s-.06-.095-.06-.165v-.63c0-.07.02-.125.06-.165s.095-.06.165-.06zm5.8354-1.86c.05.02.075.06.075.12 0 .05-.01.09-.03.12l-.24.525c-.04.08-.095.12-.165.12-.05 0-.14-.015-.27-.045s-.27-.045-.42-.045c-.46 0-.85.155-1.17.465-.31.31-.465.7-.465 1.17v4.62c0 .07-.02.125-.06.165s-.095.06-.165.06h-.675c-.07 0-.125-.02-.165-.06s-.06-.095-.06-.165v-6.9c0-.07.02-.125.06-.165s.095-.06.165-.06h.6c.13 0 .205.075.225.225l.06.645c.21-.32.47-.57.78-.75.31-.19.655-.285 1.035-.285.37 0 .665.08.885.24zm4.3526-.24c.68 0 1.28.165 1.8.495.53.33.935.77 1.215 1.32.29.54.435 1.125.435 1.755 0 .27-.03.465-.09.585-.05.11-.165.165-.345.165h-5.505c.08.72.365 1.305.855 1.755.49.44 1.115.66 1.875.66s1.43-.245 2.01-.735c.06-.06.12-.09.18-.09.05 0 .095.02.135.06l.285.27c.07.07.105.13.105.18s-.03.105-.09.165c-.35.36-.76.64-1.23.84-.47.19-.975.285-1.515.285-.72 0-1.365-.17-1.935-.51-.56-.34-1-.8-1.32-1.38-.31-.59-.465-1.245-.465-1.965 0-.71.15-1.36.45-1.95.31-.59.74-1.055 1.29-1.395s1.17-.51 1.86-.51zm0 .99c-.68 0-1.25.23-1.71.69-.45.46-.715 1.05-.795 1.77h4.965c-.02-.46-.14-.875-.36-1.245-.21-.38-.5-.675-.87-.885-.36-.22-.77-.33-1.23-.33zm10.92-.825c.08 0 .135.025.165.075.04.04.045.1.015.18l-3.87 9.765c-.04.12-.13.18-.27.18h-.69c-.08 0-.14-.025-.18-.075-.03-.04-.03-.1 0-.18l1.035-2.565-2.82-7.125c-.01-.03-.015-.065-.015-.105 0-.1.065-.15.195-.15h.69c.13 0 .22.06.27.18l2.25 5.895 2.25-5.895c.04-.12.13-.18.27-.18zm4.722 6.525c.52 0 .93-.08 1.23-.24.3-.17.6-.405.9-.705.06-.06.115-.09.165-.09s.105.03.165.09l.375.345c.05.05.075.105.075.165s-.02.11-.06.15c-.36.41-.78.73-1.26.96s-1.01.345-1.59.345c-.69 0-1.32-.17-1.89-.51-.56-.34-1-.805-1.32-1.395s-.48-1.24-.48-1.95.16-1.36.48-1.95.76-1.055 1.32-1.395c.57-.34 1.2-.51 1.89-.51.56 0 1.075.115 1.545.345.48.23.9.55 1.26.96.04.04.06.09.06.15s-.025.115-.075.165l-.375.345c-.05.05-.105.075-.165.075-.04 0-.095-.025-.165-.075-.04-.03-.165-.14-.375-.33-.2-.19-.45-.34-.75-.45-.29-.11-.61-.165-.96-.165-.5 0-.95.125-1.35.375-.39.24-.7.58-.93 1.02-.22.43-.33.91-.33 1.44s.11 1.015.33 1.455c.23.43.54.77.93 1.02.4.24.85.36 1.35.36zm4.633-9.9c0-.07.02-.125.06-.165s.095-.06.165-.06h.675c.07 0 .125.02.165.06s.06.095.06.165v10.5c0 .07-.02.125-.06.165s-.095.06-.165.06h-.675c-.07 0-.125-.02-.165-.06s-.06-.095-.06-.165zm3.776 1.62c-.2 0-.37-.07-.51-.21s-.21-.31-.21-.51.07-.37.21-.51.31-.21.51-.21.37.07.51.21.21.31.21.51-.07.37-.21.51-.31.21-.51.21zm-.555 1.98c0-.07.02-.125.06-.165s.095-.06.165-.06h.675c.07 0 .125.02.165.06s.06.095.06.165v6.9c0 .07-.02.125-.06.165s-.095.06-.165.06h-.675c-.07 0-.125-.02-.165-.06s-.06-.095-.06-.165zm7.767-3.105c.05.06.045.12-.015.18l-.39.39c-.04.04-.075.065-.105.075-.02 0-.05-.015-.09-.045-.04-.02-.135-.075-.285-.165-.14-.09-.275-.155-.405-.195s-.265-.06-.405-.06c-.38 0-.645.09-.795.27-.15.17-.225.435-.225.795v1.635h1.47c.07 0 .125.02.165.06s.06.095.06.165v.51c0 .07-.02.125-.06.165s-.095.06-.165.06h-1.47v6.165c0 .07-.02.125-.06.165s-.095.06-.165.06h-.675c-.07 0-.125-.02-.165-.06s-.06-.095-.06-.165v-6.165h-.87c-.07 0-.125-.02-.165-.06s-.06-.095-.06-.165v-.51c0-.07.02-.125.06-.165s.095-.06.165-.06h.87v-1.695c0-1.33.7-1.995 2.1-1.995.36 0 .69.075.99.225s.55.345.75.585zm5.359 0c.05.06.045.12-.015.18l-.39.39c-.04.04-.075.065-.105.075-.02 0-.05-.015-.09-.045-.04-.02-.135-.075-.285-.165-.14-.09-.275-.155-.405-.195s-.265-.06-.405-.06c-.38 0-.645.09-.795.27-.15.17-.225.435-.225.795v1.635h1.47c.07 0 .125.02.165.06s.06.095.06.165v.51c0 .07-.02.125-.06.165s-.095.06-.165.06h-1.47v6.165c0 .07-.02.125-.06.165s-.095.06-.165.06h-.675c-.07 0-.125-.02-.165-.06s-.06-.095-.06-.165v-6.165h-.87c-.07 0-.125-.02-.165-.06s-.06-.095-.06-.165v-.51c0-.07.02-.125.06-.165s.095-.06.165-.06h.87v-1.695c0-1.33.7-1.995 2.1-1.995.36 0 .69.075.99.225s.55.345.75.585zm14.123 8.685c.05.05.075.1.075.15 0 .06-.03.115-.09.165-1.11.95-2.29 1.425-3.54 1.425-.97 0-1.86-.24-2.67-.72s-1.45-1.13-1.92-1.95c-.46-.83-.69-1.74-.69-2.73s.23-1.9.69-2.73c.47-.83 1.11-1.485 1.92-1.965s1.7-.72 2.67-.72c1.25 0 2.43.475 3.54 1.425.06.04.09.095.09.165 0 .05-.025.1-.075.15l-.465.465c-.05.05-.1.075-.15.075-.04 0-.095-.025-.165-.075-.84-.71-1.765-1.065-2.775-1.065-.74 0-1.425.19-2.055.57-.63.37-1.13.88-1.5 1.53-.36.65-.54 1.375-.54 2.175 0 .79.185 1.51.555 2.16s.865 1.165 1.485 1.545c.63.37 1.315.555 2.055.555 1.01 0 1.935-.355 2.775-1.065.07-.05.125-.075.165-.075.05 0 .1.025.15.075zm7.275-8.955c.07 0 .125.02.165.06s.06.095.06.165v.63c0 .07-.02.125-.06.165s-.095.06-.165.06h-4.08v3.315h3.885c.07 0 .125.02.165.06s.06.095.06.165v.63c0 .07-.02.125-.06.165s-.095.06-.165.06h-3.885v4.8c0 .07-.02.125-.06.165s-.095.06-.165.06h-.72c-.07 0-.125-.02-.165-.06s-.06-.095-.06-.165v-10.05c0-.07.02-.125.06-.165s.095-.06.165-.06z" fill="#232121"/><path d="m276.148 99.004c.12.168.18.3.18.396 0 .12-.06.24-.18.36-1.104 1.176-2.436 2.088-3.996 2.736-1.536.648-3.168.972-4.896.972-2.376 0-4.56-.576-6.552-1.728s-3.576-2.712-4.752-4.68c-1.152-1.992-1.728-4.176-1.728-6.552s.576-4.56 1.728-6.552c1.176-1.992 2.76-3.564 4.752-4.716s4.176-1.728 6.552-1.728c1.728 0 3.36.324 4.896.972s2.868 1.548 3.996 2.7c.12.168.18.288.18.36 0 .096-.06.228-.18.396l-2.772 3.024c-.096.12-.228.18-.396.18-.144 0-.264-.048-.36-.144-1.584-1.344-3.384-2.016-5.4-2.016-1.344 0-2.568.336-3.672 1.008-1.104.648-1.98 1.548-2.628 2.7-.624 1.128-.936 2.4-.936 3.816 0 1.392.312 2.664.936 3.816.648 1.128 1.524 2.028 2.628 2.7 1.104.648 2.328.972 3.672.972 2.016 0 3.816-.672 5.4-2.016.096-.096.216-.144.36-.144.168 0 .3.06.396.18zm14.204 4.464c-2.352 0-4.524-.576-6.516-1.728-1.968-1.152-3.54-2.724-4.716-4.716-1.152-1.992-1.728-4.164-1.728-6.516 0-2.376.576-4.548 1.728-6.516 1.176-1.992 2.748-3.564 4.716-4.716 1.992-1.176 4.164-1.764 6.516-1.764s4.524.588 6.516 1.764c1.992 1.152 3.564 2.724 4.716 4.716 1.176 1.968 1.764 4.14 1.764 6.516 0 2.352-.588 4.524-1.764 6.516-1.152 1.992-2.724 3.564-4.716 4.716s-4.164 1.728-6.516 1.728zm0-5.436c1.368 0 2.616-.336 3.744-1.008s2.016-1.572 2.664-2.7c.648-1.152.972-2.424.972-3.816 0-1.416-.324-2.7-.972-3.852s-1.536-2.064-2.664-2.736-2.376-1.008-3.744-1.008c-1.344 0-2.58.336-3.708 1.008s-2.016 1.584-2.664 2.736-.972 2.436-.972 3.852c0 1.392.324 2.664.972 3.816.648 1.128 1.536 2.028 2.664 2.7s2.364 1.008 3.708 1.008zm24.23-20.232c2.784 0 5.172.552 7.164 1.656 2.016 1.104 3.528 2.616 4.536 4.536 1.032 1.896 1.548 4.032 1.548 6.408s-.516 4.524-1.548 6.444c-1.008 1.896-2.52 3.396-4.536 4.5-1.992 1.104-4.38 1.656-7.164 1.656h-7.524c-.168 0-.3-.048-.396-.144s-.144-.228-.144-.396v-24.12c0-.168.048-.3.144-.396s.228-.144.396-.144zm0 20.268c2.496 0 4.38-.66 5.652-1.98s1.908-3.216 1.908-5.688-.636-4.368-1.908-5.688-3.156-1.98-5.652-1.98h-2.484v15.336zm30.27 0c.168 0 .3.048.396.144s.144.228.144.396v3.852c0 .168-.048.3-.144.396s-.228.144-.396.144h-13.536c-.168 0-.3-.048-.396-.144s-.144-.228-.144-.396v-24.12c0-.168.048-.3.144-.396s.228-.144.396-.144h13.5c.168 0 .3.048.396.144s.144.228.144.396v3.852c0 .168-.048.3-.144.396s-.228.144-.396.144h-8.46v4.932h7.956c.168 0 .3.048.396.144s.144.228.144.396v3.852c0 .168-.048.3-.144.396s-.228.144-.396.144h-7.956v5.472zm22.348 4.284c.072.096.108.204.108.324 0 .216-.156.324-.468.324h-4.788c-.288 0-.504-.12-.648-.36l-5.22-8.136h-1.476v7.956c0 .168-.048.3-.144.396s-.228.144-.396.144h-4.5c-.168 0-.3-.048-.396-.144s-.144-.228-.144-.396v-24.12c0-.168.048-.3.144-.396s.228-.144.396-.144h7.668c1.968 0 3.648.348 5.04 1.044 1.416.696 2.484 1.68 3.204 2.952.744 1.248 1.116 2.7 1.116 4.356 0 1.824-.444 3.408-1.332 4.752-.864 1.32-2.124 2.28-3.78 2.88zm-12.492-12.78h2.52c1.152 0 2.124-.264 2.916-.792.816-.528 1.224-1.404 1.224-2.628s-.408-2.1-1.224-2.628c-.792-.528-1.764-.792-2.916-.792h-2.52zm19.818-4.68c0 .72.324 1.284.972 1.692.672.408 1.716.864 3.132 1.368 1.536.528 2.808 1.056 3.816 1.584s1.872 1.308 2.592 2.34c.744 1.008 1.116 2.328 1.116 3.96 0 1.608-.432 2.988-1.296 4.14-.84 1.152-1.944 2.028-3.312 2.628-1.368.576-2.796.864-4.284.864-1.752 0-3.408-.384-4.968-1.152-1.56-.792-2.796-1.728-3.708-2.808-.096-.192-.144-.324-.144-.396 0-.096.048-.216.144-.36l2.484-2.772c.12-.144.264-.216.432-.216.144 0 .276.048.396.144.96.792 1.86 1.38 2.7 1.764.864.36 1.8.54 2.808.54.912 0 1.68-.216 2.304-.648.648-.456.972-1.068.972-1.836 0-.72-.336-1.296-1.008-1.728s-1.752-.936-3.24-1.512c-1.536-.576-2.796-1.128-3.78-1.656-.984-.552-1.836-1.32-2.556-2.304-.696-.984-1.044-2.232-1.044-3.744 0-1.488.372-2.772 1.116-3.852.744-1.104 1.728-1.944 2.952-2.52 1.224-.6 2.544-.9 3.96-.9 2.952 0 5.568 1.116 7.848 3.348.144.144.216.276.216.396s-.048.24-.144.36l-2.34 2.844c-.144.192-.288.288-.432.288-.072 0-.18-.048-.324-.144-.96-.672-1.776-1.14-2.448-1.404-.672-.288-1.404-.432-2.196-.432-.864 0-1.536.204-2.016.612s-.72.912-.72 1.512zm29.145 0c0 .72.324 1.284.972 1.692.672.408 1.716.864 3.132 1.368 1.536.528 2.808 1.056 3.816 1.584s1.872 1.308 2.592 2.34c.744 1.008 1.116 2.328 1.116 3.96 0 1.608-.432 2.988-1.296 4.14-.84 1.152-1.944 2.028-3.312 2.628-1.368.576-2.796.864-4.284.864-1.752 0-3.408-.384-4.968-1.152-1.56-.792-2.796-1.728-3.708-2.808-.096-.192-.144-.324-.144-.396 0-.096.048-.216.144-.36l2.484-2.772c.12-.144.264-.216.432-.216.144 0 .276.048.396.144.96.792 1.86 1.38 2.7 1.764.864.36 1.8.54 2.808.54.912 0 1.68-.216 2.304-.648.648-.456.972-1.068.972-1.836 0-.72-.336-1.296-1.008-1.728s-1.752-.936-3.24-1.512c-1.536-.576-2.796-1.128-3.78-1.656-.984-.552-1.836-1.32-2.556-2.304-.696-.984-1.044-2.232-1.044-3.744 0-1.488.372-2.772 1.116-3.852.744-1.104 1.728-1.944 2.952-2.52 1.224-.6 2.544-.9 3.96-.9 2.952 0 5.568 1.116 7.848 3.348.144.144.216.276.216.396s-.048.24-.144.36l-2.34 2.844c-.144.192-.288.288-.432.288-.072 0-.18-.048-.324-.144-.96-.672-1.776-1.14-2.448-1.404-.672-.288-1.404-.432-2.196-.432-.864 0-1.536.204-2.016.612s-.72.912-.72 1.512zm28.469 4.644c1.344.36 2.496 1.092 3.456 2.196.984 1.104 1.476 2.436 1.476 3.996 0 2.424-.78 4.248-2.34 5.472-1.536 1.2-3.888 1.8-7.056 1.8h-8.856c-.168 0-.3-.048-.396-.144s-.144-.228-.144-.396v-24.12c0-.168.048-.3.144-.396s.228-.144.396-.144h8.82c1.584 0 2.94.288 4.068.864 1.152.576 2.016 1.356 2.592 2.34.6.984.9 2.088.9 3.312 0 1.248-.3 2.34-.9 3.276-.576.936-1.296 1.584-2.16 1.944zm-2.16-4.5c0-1.536-.948-2.304-2.844-2.304h-3.276v4.824h3.276c.888 0 1.584-.204 2.088-.612.504-.432.756-1.068.756-1.908zm-2.088 13.032c1.104 0 1.98-.252 2.628-.756s.972-1.26.972-2.268c0-.984-.324-1.704-.972-2.16-.648-.48-1.524-.72-2.628-.72h-4.032v5.904z" fill="#000"/><path d="m268.435 165.5c.08 0 .135.025.165.075.03.04.035.1.015.18l-3.27 10.065c-.04.12-.13.18-.27.18h-.795c-.06 0-.12-.015-.18-.045-.05-.03-.08-.075-.09-.135l-2.94-8.565-2.955 8.565c-.04.12-.13.18-.27.18h-.795c-.06 0-.12-.015-.18-.045-.05-.03-.08-.075-.09-.135l-3.24-10.065c-.01-.02-.015-.05-.015-.09 0-.11.065-.165.195-.165h.72c.13 0 .215.06.255.18l2.76 8.895 3.03-8.895c.02-.06.05-.105.09-.135.03-.03.08-.045.15-.045h.675c.05 0 .095.01.135.03.04.03.075.08.105.15l3.03 8.895 2.79-8.895c.03-.12.115-.18.255-.18zm4.025 2.985c.68 0 1.28.165 1.8.495.53.33.935.77 1.215 1.32.29.54.435 1.125.435 1.755 0 .27-.03.465-.09.585-.05.11-.165.165-.345.165h-5.505c.08.72.365 1.305.855 1.755.49.44 1.115.66 1.875.66s1.43-.245 2.01-.735c.06-.06.12-.09.18-.09.05 0 .095.02.135.06l.285.27c.07.07.105.13.105.18s-.03.105-.09.165c-.35.36-.76.64-1.23.84-.47.19-.975.285-1.515.285-.72 0-1.365-.17-1.935-.51-.56-.34-1-.8-1.32-1.38-.31-.59-.465-1.245-.465-1.965 0-.71.15-1.36.45-1.95.31-.59.74-1.055 1.29-1.395s1.17-.51 1.86-.51zm0 .99c-.68 0-1.25.23-1.71.69-.45.46-.715 1.05-.795 1.77h4.965c-.02-.46-.14-.875-.36-1.245-.21-.38-.5-.675-.87-.885-.36-.22-.77-.33-1.23-.33zm5.25-4.2c0-.07.02-.125.06-.165s.095-.06.165-.06h.675c.07 0 .125.02.165.06s.06.095.06.165v10.5c0 .07-.02.125-.06.165s-.095.06-.165.06h-.675c-.07 0-.125-.02-.165-.06s-.06-.095-.06-.165zm6.612 9.9c.52 0 .93-.08 1.23-.24.3-.17.6-.405.9-.705.06-.06.115-.09.165-.09s.105.03.165.09l.375.345c.05.05.075.105.075.165s-.02.11-.06.15c-.36.41-.78.73-1.26.96s-1.01.345-1.59.345c-.69 0-1.32-.17-1.89-.51-.56-.34-1-.805-1.32-1.395s-.48-1.24-.48-1.95.16-1.36.48-1.95.76-1.055 1.32-1.395c.57-.34 1.2-.51 1.89-.51.56 0 1.075.115 1.545.345.48.23.9.55 1.26.96.04.04.06.09.06.15s-.025.115-.075.165l-.375.345c-.05.05-.105.075-.165.075-.04 0-.095-.025-.165-.075-.04-.03-.165-.14-.375-.33-.2-.19-.45-.34-.75-.45-.29-.11-.61-.165-.96-.165-.5 0-.95.125-1.35.375-.39.24-.7.58-.93 1.02-.22.43-.33.91-.33 1.44s.11 1.015.33 1.455c.23.43.54.77.93 1.02.4.24.85.36 1.35.36zm7.909 1.02c-.69 0-1.32-.17-1.89-.51s-1.02-.805-1.35-1.395c-.32-.59-.48-1.24-.48-1.95s.16-1.36.48-1.95c.33-.59.78-1.055 1.35-1.395s1.2-.51 1.89-.51 1.32.17 1.89.51 1.015.805 1.335 1.395c.33.59.495 1.24.495 1.95s-.165 1.36-.495 1.95c-.32.59-.765 1.055-1.335 1.395s-1.2.51-1.89.51zm0-1.02c.49 0 .935-.12 1.335-.36.41-.25.73-.59.96-1.02s.345-.915.345-1.455-.115-1.025-.345-1.455-.55-.765-.96-1.005c-.4-.25-.845-.375-1.335-.375s-.94.125-1.35.375c-.4.24-.715.575-.945 1.005s-.345.915-.345 1.455.115 1.025.345 1.455.545.77.945 1.02c.41.24.86.36 1.35.36zm14.196-6.69c.8 0 1.43.25 1.89.75.47.49.705 1.215.705 2.175v4.365c0 .07-.02.125-.06.165s-.095.06-.165.06h-.675c-.07 0-.125-.02-.165-.06s-.06-.095-.06-.165v-4.29c0-.64-.15-1.13-.45-1.47-.3-.35-.715-.525-1.245-.525-.5 0-.92.11-1.26.33-.33.22-.58.485-.75.795-.16.3-.24.58-.24.84v4.32c0 .07-.02.125-.06.165s-.095.06-.165.06h-.675c-.07 0-.125-.02-.165-.06s-.06-.095-.06-.165v-4.29c0-.64-.15-1.13-.45-1.47-.3-.35-.715-.525-1.245-.525-.44 0-.83.115-1.17.345s-.605.49-.795.78c-.19.28-.285.485-.285.615v4.545c0 .07-.02.125-.06.165s-.095.06-.165.06h-.675c-.07 0-.125-.02-.165-.06s-.06-.095-.06-.165v-6.9c0-.07.02-.125.06-.165s.095-.06.165-.06h.615c.13 0 .205.075.225.225l.06 1.035c.29-.43.645-.775 1.065-1.035s.895-.39 1.425-.39c.56 0 1.04.125 1.44.375.41.25.71.625.9 1.125.28-.45.645-.81 1.095-1.08.46-.28 1-.42 1.62-.42zm7.989 0c.68 0 1.28.165 1.8.495.53.33.935.77 1.215 1.32.29.54.435 1.125.435 1.755 0 .27-.03.465-.09.585-.05.11-.165.165-.345.165h-5.505c.08.72.365 1.305.855 1.755.49.44 1.115.66 1.875.66s1.43-.245 2.01-.735c.06-.06.12-.09.18-.09.05 0 .095.02.135.06l.285.27c.07.07.105.13.105.18s-.03.105-.09.165c-.35.36-.76.64-1.23.84-.47.19-.975.285-1.515.285-.72 0-1.365-.17-1.935-.51-.56-.34-1-.8-1.32-1.38-.31-.59-.465-1.245-.465-1.965 0-.71.15-1.36.45-1.95.31-.59.74-1.055 1.29-1.395s1.17-.51 1.86-.51zm0 .99c-.68 0-1.25.23-1.71.69-.45.46-.715 1.05-.795 1.77h4.965c-.02-.46-.14-.875-.36-1.245-.21-.38-.5-.675-.87-.885-.36-.22-.77-.33-1.23-.33zm12.822-.825c.07 0 .125.02.165.06s.06.095.06.165v.51c0 .07-.02.125-.06.165s-.095.06-.165.06h-1.05v6.165c0 .07-.02.125-.06.165s-.095.06-.165.06h-.675c-.07 0-.125-.02-.165-.06s-.06-.095-.06-.165v-6.165h-1.05c-.07 0-.125-.02-.165-.06s-.06-.095-.06-.165v-.51c0-.07.02-.125.06-.165s.095-.06.165-.06h1.05v-2.025c0-.07.02-.125.06-.165s.095-.06.165-.06h.675c.07 0 .125.02.165.06s.06.095.06.165v2.025zm5.294 7.545c-.69 0-1.32-.17-1.89-.51s-1.02-.805-1.35-1.395c-.32-.59-.48-1.24-.48-1.95s.16-1.36.48-1.95c.33-.59.78-1.055 1.35-1.395s1.2-.51 1.89-.51 1.32.17 1.89.51 1.015.805 1.335 1.395c.33.59.495 1.24.495 1.95s-.165 1.36-.495 1.95c-.32.59-.765 1.055-1.335 1.395s-1.2.51-1.89.51zm0-1.02c.49 0 .935-.12 1.335-.36.41-.25.73-.59.96-1.02s.345-.915.345-1.455-.115-1.025-.345-1.455-.55-.765-.96-1.005c-.4-.25-.845-.375-1.335-.375s-.94.125-1.35.375c-.4.24-.715.575-.945 1.005s-.345.915-.345 1.455.115 1.025.345 1.455.545.77.945 1.02c.41.24.86.36 1.35.36zm18.632-.72c.05.05.075.1.075.15 0 .06-.03.115-.09.165-1.11.95-2.29 1.425-3.54 1.425-.97 0-1.86-.24-2.67-.72s-1.45-1.13-1.92-1.95c-.46-.83-.69-1.74-.69-2.73s.23-1.9.69-2.73c.47-.83 1.11-1.485 1.92-1.965s1.7-.72 2.67-.72c1.25 0 2.43.475 3.54 1.425.06.04.09.095.09.165 0 .05-.025.1-.075.15l-.465.465c-.05.05-.1.075-.15.075-.04 0-.095-.025-.165-.075-.84-.71-1.765-1.065-2.775-1.065-.74 0-1.425.19-2.055.57-.63.37-1.13.88-1.5 1.53-.36.65-.54 1.375-.54 2.175 0 .79.185 1.51.555 2.16s.865 1.165 1.485 1.545c.63.37 1.315.555 2.055.555 1.01 0 1.935-.355 2.775-1.065.07-.05.125-.075.165-.075.05 0 .1.025.15.075zm4.915 1.74c-.69 0-1.32-.17-1.89-.51s-1.02-.805-1.35-1.395c-.32-.59-.48-1.24-.48-1.95s.16-1.36.48-1.95c.33-.59.78-1.055 1.35-1.395s1.2-.51 1.89-.51 1.32.17 1.89.51 1.015.805 1.335 1.395c.33.59.495 1.24.495 1.95s-.165 1.36-.495 1.95c-.32.59-.765 1.055-1.335 1.395s-1.2.51-1.89.51zm0-1.02c.49 0 .935-.12 1.335-.36.41-.25.73-.59.96-1.02s.345-.915.345-1.455-.115-1.025-.345-1.455-.55-.765-.96-1.005c-.4-.25-.845-.375-1.335-.375s-.94.125-1.35.375c-.4.24-.715.575-.945 1.005s-.345.915-.345 1.455.115 1.025.345 1.455.545.77.945 1.02c.41.24.86.36 1.35.36zm12.323-10.125c.07 0 .125.02.165.06s.06.095.06.165v10.5c0 .07-.02.125-.06.165s-.095.06-.165.06h-.615c-.13 0-.205-.075-.225-.225l-.06-.9c-.31.41-.685.73-1.125.96-.43.23-.92.345-1.47.345-.69 0-1.31-.17-1.86-.51-.54-.34-.965-.8-1.275-1.38-.31-.59-.465-1.24-.465-1.95s.155-1.355.465-1.935c.31-.59.735-1.055 1.275-1.395.55-.34 1.17-.51 1.86-.51.55 0 1.045.12 1.485.36.44.23.81.55 1.11.96v-4.545c0-.07.02-.125.06-.165s.095-.06.165-.06zm-3.405 10.11c.49 0 .93-.125 1.32-.375.4-.26.71-.605.93-1.035.23-.44.345-.915.345-1.425s-.115-.975-.345-1.395c-.22-.43-.53-.77-.93-1.02-.39-.26-.83-.39-1.32-.39s-.935.125-1.335.375c-.4.24-.715.575-.945 1.005-.22.42-.33.895-.33 1.425s.11 1.015.33 1.455c.23.43.545.77.945 1.02.4.24.845.36 1.335.36zm9.034-6.675c.68 0 1.28.165 1.8.495.53.33.935.77 1.215 1.32.29.54.435 1.125.435 1.755 0 .27-.03.465-.09.585-.05.11-.165.165-.345.165h-5.505c.08.72.365 1.305.855 1.755.49.44 1.115.66 1.875.66s1.43-.245 2.01-.735c.06-.06.12-.09.18-.09.05 0 .095.02.135.06l.285.27c.07.07.105.13.105.18s-.03.105-.09.165c-.35.36-.76.64-1.23.84-.47.19-.975.285-1.515.285-.72 0-1.365-.17-1.935-.51-.56-.34-1-.8-1.32-1.38-.31-.59-.465-1.245-.465-1.965 0-.71.15-1.36.45-1.95.31-.59.74-1.055 1.29-1.395s1.17-.51 1.86-.51zm0 .99c-.68 0-1.25.23-1.71.69-.45.46-.715 1.05-.795 1.77h4.965c-.02-.46-.14-.875-.36-1.245-.21-.38-.5-.675-.87-.885-.36-.22-.77-.33-1.23-.33zm9.06-.75c.05.02.075.06.075.12 0 .05-.01.09-.03.12l-.24.525c-.04.08-.095.12-.165.12-.05 0-.14-.015-.27-.045s-.27-.045-.42-.045c-.46 0-.85.155-1.17.465-.31.31-.465.7-.465 1.17v4.62c0 .07-.02.125-.06.165s-.095.06-.165.06h-.675c-.07 0-.125-.02-.165-.06s-.06-.095-.06-.165v-6.9c0-.07.02-.125.06-.165s.095-.06.165-.06h.6c.13 0 .205.075.225.225l.06.645c.21-.32.47-.57.78-.75.31-.19.655-.285 1.035-.285.37 0 .665.08.885.24zm2.407 1.77c0 .23.07.425.21.585.15.16.335.29.555.39s.525.225.915.375c.5.17.91.34 1.23.51.32.16.59.385.81.675s.33.66.33 1.11c0 .4-.12.76-.36 1.08-.24.31-.555.55-.945.72s-.8.255-1.23.255c-.57 0-1.095-.115-1.575-.345-.48-.24-.865-.535-1.155-.885-.05-.07-.075-.12-.075-.15s.02-.075.06-.135l.33-.405c.05-.06.095-.09.135-.09.03 0 .09.035.18.105.26.24.565.455.915.645.36.18.745.27 1.155.27.44 0 .795-.095 1.065-.285s.405-.455.405-.795c0-.25-.08-.46-.24-.63-.15-.18-.34-.325-.57-.435s-.55-.24-.96-.39c-.49-.18-.885-.345-1.185-.495-.3-.16-.555-.375-.765-.645-.21-.28-.315-.625-.315-1.035 0-.58.225-1.06.675-1.44.46-.38 1.025-.57 1.695-.57.41 0 .83.1 1.26.3.43.19.795.46 1.095.81.04.04.06.085.06.135s-.025.11-.075.18l-.255.33c-.04.05-.085.075-.135.075-.07 0-.135-.03-.195-.09-.31-.27-.6-.465-.87-.585-.26-.13-.555-.195-.885-.195s-.63.085-.9.255c-.26.17-.39.435-.39.795zm11.322-2.43c0 .35.1.65.3.9.21.24.465.44.765.6.31.16.735.35 1.275.57.66.26 1.195.505 1.605.735s.755.545 1.035.945c.29.39.435.885.435 1.485 0 .53-.155 1.02-.465 1.47-.3.44-.715.79-1.245 1.05-.52.25-1.09.375-1.71.375-.69 0-1.32-.145-1.89-.435-.57-.3-1.035-.685-1.395-1.155-.03-.05-.045-.095-.045-.135 0-.07.03-.125.09-.165l.435-.42c.04-.04.085-.06.135-.06.06 0 .12.03.18.09.74.8 1.565 1.2 2.475 1.2.45 0 .845-.08 1.185-.24.35-.17.62-.395.81-.675.19-.29.285-.61.285-.96 0-.37-.105-.68-.315-.93-.21-.26-.475-.475-.795-.645s-.75-.365-1.29-.585c-.64-.26-1.16-.5-1.56-.72-.39-.22-.725-.52-1.005-.9-.27-.38-.405-.85-.405-1.41 0-.51.13-.965.39-1.365.27-.41.635-.73 1.095-.96s.975-.345 1.545-.345c.56 0 1.1.125 1.62.375.53.25.98.595 1.35 1.035.04.04.06.09.06.15s-.025.115-.075.165l-.375.39c-.06.06-.115.09-.165.09s-.1-.025-.15-.075c-.36-.36-.72-.625-1.08-.795-.35-.18-.745-.27-1.185-.27-.56 0-1.02.145-1.38.435s-.54.685-.54 1.185zm12.307 2.25c.68.16 1.215.475 1.605.945s.585 1.03.585 1.68c0 .99-.315 1.75-.945 2.28-.62.52-1.55.78-2.79.78h-3.165c-.07 0-.125-.02-.165-.06s-.06-.095-.06-.165v-10.05c0-.07.02-.125.06-.165s.095-.06.165-.06h3.195c.71 0 1.29.12 1.74.36.46.24.79.55.99.93.21.37.315.775.315 1.215 0 .55-.13 1.03-.39 1.44-.26.4-.64.69-1.14.87zm.39-2.235c0-.5-.18-.875-.54-1.125-.35-.25-.84-.375-1.47-.375h-2.145v3.3h2.145c.63 0 1.12-.155 1.47-.465.36-.32.54-.765.54-1.335zm-1.98 6.84c.86 0 1.505-.16 1.935-.48.43-.33.645-.845.645-1.545 0-.62-.21-1.105-.63-1.455-.41-.36-1.06-.54-1.95-.54h-2.175v4.02zm6.787-1.995c0 .07-.025.125-.075.165-.04.04-.095.06-.165.06h-.18c-.07 0-.13-.02-.18-.06-.04-.04-.06-.095-.06-.165l-.345-6.825c-.01-.2.055-.37.195-.51s.3-.21.48-.21.34.07.48.21.205.31.195.51zm-.33 3.27c-.2 0-.37-.07-.51-.21s-.21-.31-.21-.51.07-.37.21-.51.31-.21.51-.21.37.07.51.21.21.31.21.51-.07.37-.21.51-.31.21-.51.21zm12.605 0c-.97 0-1.87-.24-2.7-.72-.82-.48-1.47-1.135-1.95-1.965s-.72-1.735-.72-2.715c0-.99.24-1.895.72-2.715.48-.83 1.13-1.485 1.95-1.965.82-.49 1.72-.735 2.7-.735.97 0 1.865.245 2.685.735.82.48 1.47 1.135 1.95 1.965.48.82.72 1.725.72 2.715 0 .98-.24 1.885-.72 2.715s-1.13 1.485-1.95 1.965-1.715.72-2.685.72zm0-1.095c.77 0 1.475-.19 2.115-.57.65-.39 1.16-.91 1.53-1.56.38-.66.57-1.385.57-2.175s-.19-1.515-.57-2.175c-.37-.66-.88-1.18-1.53-1.56-.64-.39-1.345-.585-2.115-.585-.78 0-1.495.195-2.145.585-.64.38-1.15.9-1.53 1.56-.37.66-.555 1.385-.555 2.175s.185 1.515.555 2.175c.38.65.89 1.17 1.53 1.56.65.38 1.365.57 2.145.57zm13.124-6.45c.07 0 .125.02.165.06s.06.095.06.165v6.9c0 .07-.02.125-.06.165s-.095.06-.165.06h-.615c-.13 0-.205-.075-.225-.225l-.06-.9c-.27.4-.605.72-1.005.96s-.85.36-1.35.36c-.86 0-1.53-.25-2.01-.75-.47-.5-.705-1.235-.705-2.205v-4.365c0-.07.02-.125.06-.165s.095-.06.165-.06h.675c.07 0 .125.02.165.06s.06.095.06.165v4.29c0 .65.155 1.155.465 1.515.31.35.74.525 1.29.525.43 0 .81-.11 1.14-.33s.585-.475.765-.765c.19-.3.285-.54.285-.72v-4.515c0-.07.02-.125.06-.165s.095-.06.165-.06zm6.057.075c.05.02.075.06.075.12 0 .05-.01.09-.03.12l-.24.525c-.04.08-.095.12-.165.12-.05 0-.14-.015-.27-.045s-.27-.045-.42-.045c-.46 0-.85.155-1.17.465-.31.31-.465.7-.465 1.17v4.62c0 .07-.02.125-.06.165s-.095.06-.165.06h-.675c-.07 0-.125-.02-.165-.06s-.06-.095-.06-.165v-6.9c0-.07.02-.125.06-.165s.095-.06.165-.06h.6c.13 0 .205.075.225.225l.06.645c.21-.32.47-.57.78-.75.31-.19.655-.285 1.035-.285.37 0 .665.08.885.24zm12.577-.075c.07 0 .125.02.165.06s.06.095.06.165v6.975c0 .72-.185 1.31-.555 1.77-.36.47-.825.81-1.395 1.02-.57.22-1.16.33-1.77.33-.55 0-1.065-.065-1.545-.195s-.9-.305-1.26-.525c-.07-.04-.105-.1-.105-.18 0-.03.01-.075.03-.135l.21-.39c.05-.08.11-.12.18-.12.02 0 .06.01.12.03.35.17.7.3 1.05.39.36.09.775.135 1.245.135.73 0 1.36-.175 1.89-.525.54-.34.81-.865.81-1.575v-1.2c-.3.42-.675.75-1.125.99-.44.24-.94.36-1.5.36-.68 0-1.295-.165-1.845-.495-.55-.34-.98-.795-1.29-1.365-.31-.58-.465-1.215-.465-1.905s.155-1.32.465-1.89c.31-.58.74-1.035 1.29-1.365.55-.34 1.165-.51 1.845-.51.55 0 1.045.12 1.485.36.44.23.81.55 1.11.96l.06-.945c.02-.15.095-.225.225-.225zm-3.405 6.36c.49 0 .93-.125 1.32-.375.4-.26.71-.6.93-1.02.23-.42.345-.875.345-1.365 0-.48-.115-.93-.345-1.35-.22-.42-.53-.755-.93-1.005-.39-.25-.83-.375-1.32-.375s-.935.12-1.335.36-.715.57-.945.99c-.22.42-.33.88-.33 1.38 0 .51.11.975.33 1.395.23.42.545.755.945 1.005.4.24.845.36 1.335.36zm9.154 1.185c-.69 0-1.32-.17-1.89-.51s-1.02-.805-1.35-1.395c-.32-.59-.48-1.24-.48-1.95s.16-1.36.48-1.95c.33-.59.78-1.055 1.35-1.395s1.2-.51 1.89-.51 1.32.17 1.89.51 1.015.805 1.335 1.395c.33.59.495 1.24.495 1.95s-.165 1.36-.495 1.95c-.32.59-.765 1.055-1.335 1.395s-1.2.51-1.89.51zm0-1.02c.49 0 .935-.12 1.335-.36.41-.25.73-.59.96-1.02s.345-.915.345-1.455-.115-1.025-.345-1.455-.55-.765-.96-1.005c-.4-.25-.845-.375-1.335-.375s-.94.125-1.35.375c-.4.24-.715.575-.945 1.005s-.345.915-.345 1.455.115 1.025.345 1.455.545.77.945 1.02c.41.24.86.36 1.35.36zm12.322-6.525c.07 0 .125.02.165.06s.06.095.06.165v6.9c0 .07-.02.125-.06.165s-.095.06-.165.06h-.615c-.13 0-.205-.075-.225-.225l-.06-.9c-.31.41-.685.73-1.125.96-.43.23-.92.345-1.47.345-.69 0-1.31-.17-1.86-.51-.54-.34-.965-.8-1.275-1.38-.31-.59-.465-1.24-.465-1.95s.155-1.355.465-1.935c.31-.59.735-1.055 1.275-1.395.55-.34 1.17-.51 1.86-.51.55 0 1.045.12 1.485.36.44.23.81.55 1.11.96l.06-.945c.02-.15.095-.225.225-.225zm-3.405 6.51c.49 0 .93-.125 1.32-.375.4-.26.71-.605.93-1.035.23-.44.345-.915.345-1.425s-.115-.975-.345-1.395c-.22-.43-.53-.77-.93-1.02-.39-.26-.83-.39-1.32-.39s-.935.125-1.335.375c-.4.24-.715.575-.945 1.005-.22.42-.33.895-.33 1.425s.11 1.015.33 1.455c.23.43.545.77.945 1.02.4.24.845.36 1.335.36zm5.659-9.885c0-.07.02-.125.06-.165s.095-.06.165-.06h.675c.07 0 .125.02.165.06s.06.095.06.165v10.5c0 .07-.02.125-.06.165s-.095.06-.165.06h-.675c-.07 0-.125-.02-.165-.06s-.06-.095-.06-.165zm8.124 1.62c-.2 0-.37-.07-.51-.21s-.21-.31-.21-.51.07-.37.21-.51.31-.21.51-.21.37.07.51.21.21.31.21.51-.07.37-.21.51-.31.21-.51.21zm-.555 1.98c0-.07.02-.125.06-.165s.095-.06.165-.06h.675c.07 0 .125.02.165.06s.06.095.06.165v6.9c0 .07-.02.125-.06.165s-.095.06-.165.06h-.675c-.07 0-.125-.02-.165-.06s-.06-.095-.06-.165zm4.107 1.62c0 .23.07.425.21.585.15.16.335.29.555.39s.525.225.915.375c.5.17.91.34 1.23.51.32.16.59.385.81.675s.33.66.33 1.11c0 .4-.12.76-.36 1.08-.24.31-.555.55-.945.72s-.8.255-1.23.255c-.57 0-1.095-.115-1.575-.345-.48-.24-.865-.535-1.155-.885-.05-.07-.075-.12-.075-.15s.02-.075.06-.135l.33-.405c.05-.06.095-.09.135-.09.03 0 .09.035.18.105.26.24.565.455.915.645.36.18.745.27 1.155.27.44 0 .795-.095 1.065-.285s.405-.455.405-.795c0-.25-.08-.46-.24-.63-.15-.18-.34-.325-.57-.435s-.55-.24-.96-.39c-.49-.18-.885-.345-1.185-.495-.3-.16-.555-.375-.765-.645-.21-.28-.315-.625-.315-1.035 0-.58.225-1.06.675-1.44.46-.38 1.025-.57 1.695-.57.41 0 .83.1 1.26.3.43.19.795.46 1.095.81.04.04.06.085.06.135s-.025.11-.075.18l-.255.33c-.04.05-.085.075-.135.075-.07 0-.135-.03-.195-.09-.31-.27-.6-.465-.87-.585-.26-.13-.555-.195-.885-.195s-.63.085-.9.255c-.26.17-.39.435-.39.795zm13.347-1.845c.07 0 .125.02.165.06s.06.095.06.165v.51c0 .07-.02.125-.06.165s-.095.06-.165.06h-1.05v6.165c0 .07-.02.125-.06.165s-.095.06-.165.06h-.675c-.07 0-.125-.02-.165-.06s-.06-.095-.06-.165v-6.165h-1.05c-.07 0-.125-.02-.165-.06s-.06-.095-.06-.165v-.51c0-.07.02-.125.06-.165s.095-.06.165-.06h1.05v-2.025c0-.07.02-.125.06-.165s.095-.06.165-.06h.675c.07 0 .125.02.165.06s.06.095.06.165v2.025zm5.294 7.545c-.69 0-1.32-.17-1.89-.51s-1.02-.805-1.35-1.395c-.32-.59-.48-1.24-.48-1.95s.16-1.36.48-1.95c.33-.59.78-1.055 1.35-1.395s1.2-.51 1.89-.51 1.32.17 1.89.51 1.015.805 1.335 1.395c.33.59.495 1.24.495 1.95s-.165 1.36-.495 1.95c-.32.59-.765 1.055-1.335 1.395s-1.2.51-1.89.51zm0-1.02c.49 0 .935-.12 1.335-.36.41-.25.73-.59.96-1.02s.345-.915.345-1.455-.115-1.025-.345-1.455-.55-.765-.96-1.005c-.4-.25-.845-.375-1.335-.375s-.94.125-1.35.375c-.4.24-.715.575-.945 1.005s-.345.915-.345 1.455.115 1.025.345 1.455.545.77.945 1.02c.41.24.86.36 1.35.36zm-251.529 11.325c.69 0 1.305.17 1.845.51.55.34.98.805 1.29 1.395.31.58.465 1.225.465 1.935s-.155 1.36-.465 1.95c-.31.58-.74 1.04-1.29 1.38-.54.34-1.155.51-1.845.51-.55 0-1.045-.115-1.485-.345-.43-.23-.8-.55-1.11-.96l-.06.9c-.02.15-.095.225-.225.225h-.615c-.07 0-.125-.02-.165-.06s-.06-.095-.06-.165v-10.5c0-.07.02-.125.06-.165s.095-.06.165-.06h.675c.07 0 .125.02.165.06s.06.095.06.165v4.545c.3-.41.67-.73 1.11-.96.44-.24.935-.36 1.485-.36zm-.09 6.66c.49 0 .935-.12 1.335-.36.4-.25.71-.59.93-1.02.23-.44.345-.925.345-1.455s-.115-1.005-.345-1.425c-.22-.43-.53-.765-.93-1.005-.4-.25-.845-.375-1.335-.375s-.935.13-1.335.39c-.39.25-.7.59-.93 1.02-.22.42-.33.885-.33 1.395s.11.985.33 1.425c.23.43.54.775.93 1.035.4.25.845.375 1.335.375zm9.304-6.435c.05.02.075.06.075.12 0 .05-.01.09-.03.12l-.24.525c-.04.08-.095.12-.165.12-.05 0-.14-.015-.27-.045s-.27-.045-.42-.045c-.46 0-.85.155-1.17.465-.31.31-.465.7-.465 1.17v4.62c0 .07-.02.125-.06.165s-.095.06-.165.06h-.675c-.07 0-.125-.02-.165-.06s-.06-.095-.06-.165v-6.9c0-.07.02-.125.06-.165s.095-.06.165-.06h.6c.13 0 .205.075.225.225l.06.645c.21-.32.47-.57.78-.75.31-.19.655-.285 1.035-.285.37 0 .665.08.885.24zm1.986-1.83c-.2 0-.37-.07-.51-.21s-.21-.31-.21-.51.07-.37.21-.51.31-.21.51-.21.37.07.51.21.21.31.21.51-.07.37-.21.51-.31.21-.51.21zm-.555 1.98c0-.07.02-.125.06-.165s.095-.06.165-.06h.675c.07 0 .125.02.165.06s.06.095.06.165v6.9c0 .07-.02.125-.06.165s-.095.06-.165.06h-.675c-.07 0-.125-.02-.165-.06s-.06-.095-.06-.165zm10.003-3.825c.07 0 .125.02.165.06s.06.095.06.165v10.5c0 .07-.02.125-.06.165s-.095.06-.165.06h-.615c-.13 0-.205-.075-.225-.225l-.06-.9c-.31.41-.685.73-1.125.96-.43.23-.92.345-1.47.345-.69 0-1.31-.17-1.86-.51-.54-.34-.965-.8-1.275-1.38-.31-.59-.465-1.24-.465-1.95s.155-1.355.465-1.935c.31-.59.735-1.055 1.275-1.395.55-.34 1.17-.51 1.86-.51.55 0 1.045.12 1.485.36.44.23.81.55 1.11.96v-4.545c0-.07.02-.125.06-.165s.095-.06.165-.06zm-3.405 10.11c.49 0 .93-.125 1.32-.375.4-.26.71-.605.93-1.035.23-.44.345-.915.345-1.425s-.115-.975-.345-1.395c-.22-.43-.53-.77-.93-1.02-.39-.26-.83-.39-1.32-.39s-.935.125-1.335.375c-.4.24-.715.575-.945 1.005-.22.42-.33.895-.33 1.425s.11 1.015.33 1.455c.23.43.545.77.945 1.02.4.24.845.36 1.335.36zm12.528-6.51c.07 0 .125.02.165.06s.06.095.06.165v6.975c0 .72-.185 1.31-.555 1.77-.36.47-.825.81-1.395 1.02-.57.22-1.16.33-1.77.33-.55 0-1.065-.065-1.545-.195s-.9-.305-1.26-.525c-.07-.04-.105-.1-.105-.18 0-.03.01-.075.03-.135l.21-.39c.05-.08.11-.12.18-.12.02 0 .06.01.12.03.35.17.7.3 1.05.39.36.09.775.135 1.245.135.73 0 1.36-.175 1.89-.525.54-.34.81-.865.81-1.575v-1.2c-.3.42-.675.75-1.125.99-.44.24-.94.36-1.5.36-.68 0-1.295-.165-1.845-.495-.55-.34-.98-.795-1.29-1.365-.31-.58-.465-1.215-.465-1.905s.155-1.32.465-1.89c.31-.58.74-1.035 1.29-1.365.55-.34 1.165-.51 1.845-.51.55 0 1.045.12 1.485.36.44.23.81.55 1.11.96l.06-.945c.02-.15.095-.225.225-.225zm-3.405 6.36c.49 0 .93-.125 1.32-.375.4-.26.71-.6.93-1.02.23-.42.345-.875.345-1.365 0-.48-.115-.93-.345-1.35-.22-.42-.53-.755-.93-1.005-.39-.25-.83-.375-1.32-.375s-.935.12-1.335.36-.715.57-.945.99c-.22.42-.33.88-.33 1.38 0 .51.11.975.33 1.395.23.42.545.755.945 1.005.4.24.845.36 1.335.36zm9.034-6.525c.68 0 1.28.165 1.8.495.53.33.935.77 1.215 1.32.29.54.435 1.125.435 1.755 0 .27-.03.465-.09.585-.05.11-.165.165-.345.165h-5.505c.08.72.365 1.305.855 1.755.49.44 1.115.66 1.875.66s1.43-.245 2.01-.735c.06-.06.12-.09.18-.09.05 0 .095.02.135.06l.285.27c.07.07.105.13.105.18s-.03.105-.09.165c-.35.36-.76.64-1.23.84-.47.19-.975.285-1.515.285-.72 0-1.365-.17-1.935-.51-.56-.34-1-.8-1.32-1.38-.31-.59-.465-1.245-.465-1.965 0-.71.15-1.36.45-1.95.31-.59.74-1.055 1.29-1.395s1.17-.51 1.86-.51zm0 .99c-.68 0-1.25.23-1.71.69-.45.46-.715 1.05-.795 1.77h4.965c-.02-.46-.14-.875-.36-1.245-.21-.38-.5-.675-.87-.885-.36-.22-.77-.33-1.23-.33zm12.822-.825c.07 0 .125.02.165.06s.06.095.06.165v.51c0 .07-.02.125-.06.165s-.095.06-.165.06h-1.05v6.165c0 .07-.02.125-.06.165s-.095.06-.165.06h-.675c-.07 0-.125-.02-.165-.06s-.06-.095-.06-.165v-6.165h-1.05c-.07 0-.125-.02-.165-.06s-.06-.095-.06-.165v-.51c0-.07.02-.125.06-.165s.095-.06.165-.06h1.05v-2.025c0-.07.02-.125.06-.165s.095-.06.165-.06h.675c.07 0 .125.02.165.06s.06.095.06.165v2.025zm5.561-.165c.8 0 1.43.25 1.89.75.46.49.69 1.215.69 2.175v4.365c0 .07-.02.125-.06.165s-.095.06-.165.06h-.675c-.07 0-.125-.02-.165-.06s-.06-.095-.06-.165v-4.29c0-.64-.15-1.13-.45-1.47-.3-.35-.715-.525-1.245-.525-.44 0-.83.115-1.17.345s-.605.49-.795.78c-.19.28-.285.485-.285.615v4.545c0 .07-.02.125-.06.165s-.095.06-.165.06h-.675c-.07 0-.125-.02-.165-.06s-.06-.095-.06-.165v-10.5c0-.07.02-.125.06-.165s.095-.06.165-.06h.675c.07 0 .125.02.165.06s.06.095.06.165v4.635c.29-.43.645-.775 1.065-1.035s.895-.39 1.425-.39zm7.975 0c.68 0 1.28.165 1.8.495.53.33.935.77 1.215 1.32.29.54.435 1.125.435 1.755 0 .27-.03.465-.09.585-.05.11-.165.165-.345.165h-5.505c.08.72.365 1.305.855 1.755.49.44 1.115.66 1.875.66s1.43-.245 2.01-.735c.06-.06.12-.09.18-.09.05 0 .095.02.135.06l.285.27c.07.07.105.13.105.18s-.03.105-.09.165c-.35.36-.76.64-1.23.84-.47.19-.975.285-1.515.285-.72 0-1.365-.17-1.935-.51-.56-.34-1-.8-1.32-1.38-.31-.59-.465-1.245-.465-1.965 0-.71.15-1.36.45-1.95.31-.59.74-1.055 1.29-1.395s1.17-.51 1.86-.51zm0 .99c-.68 0-1.25.23-1.71.69-.45.46-.715 1.05-.795 1.77h4.965c-.02-.46-.14-.875-.36-1.245-.21-.38-.5-.675-.87-.885-.36-.22-.77-.33-1.23-.33zm16.542-.825c.07 0 .125.02.165.06s.06.095.06.165v6.975c0 .72-.185 1.31-.555 1.77-.36.47-.825.81-1.395 1.02-.57.22-1.16.33-1.77.33-.55 0-1.065-.065-1.545-.195s-.9-.305-1.26-.525c-.07-.04-.105-.1-.105-.18 0-.03.01-.075.03-.135l.21-.39c.05-.08.11-.12.18-.12.02 0 .06.01.12.03.35.17.7.3 1.05.39.36.09.775.135 1.245.135.73 0 1.36-.175 1.89-.525.54-.34.81-.865.81-1.575v-1.2c-.3.42-.675.75-1.125.99-.44.24-.94.36-1.5.36-.68 0-1.295-.165-1.845-.495-.55-.34-.98-.795-1.29-1.365-.31-.58-.465-1.215-.465-1.905s.155-1.32.465-1.89c.31-.58.74-1.035 1.29-1.365.55-.34 1.165-.51 1.845-.51.55 0 1.045.12 1.485.36.44.23.81.55 1.11.96l.06-.945c.02-.15.095-.225.225-.225zm-3.405 6.36c.49 0 .93-.125 1.32-.375.4-.26.71-.6.93-1.02.23-.42.345-.875.345-1.365 0-.48-.115-.93-.345-1.35-.22-.42-.53-.755-.93-1.005-.39-.25-.83-.375-1.32-.375s-.935.12-1.335.36-.715.57-.945.99c-.22.42-.33.88-.33 1.38 0 .51.11.975.33 1.395.23.42.545.755.945 1.005.4.24.845.36 1.335.36zm12.529-6.36c.07 0 .125.02.165.06s.06.095.06.165v6.9c0 .07-.02.125-.06.165s-.095.06-.165.06h-.615c-.13 0-.205-.075-.225-.225l-.06-.9c-.31.41-.685.73-1.125.96-.43.23-.92.345-1.47.345-.69 0-1.31-.17-1.86-.51-.54-.34-.965-.8-1.275-1.38-.31-.59-.465-1.24-.465-1.95s.155-1.355.465-1.935c.31-.59.735-1.055 1.275-1.395.55-.34 1.17-.51 1.86-.51.55 0 1.045.12 1.485.36.44.23.81.55 1.11.96l.06-.945c.02-.15.095-.225.225-.225zm-3.405 6.51c.49 0 .93-.125 1.32-.375.4-.26.71-.605.93-1.035.23-.44.345-.915.345-1.425s-.115-.975-.345-1.395c-.22-.43-.53-.77-.93-1.02-.39-.26-.83-.39-1.32-.39s-.935.125-1.335.375c-.4.24-.715.575-.945 1.005-.22.42-.33.895-.33 1.425s.11 1.015.33 1.455c.23.43.545.77.945 1.02.4.24.845.36 1.335.36zm9.378-6.66c.69 0 1.305.17 1.845.51.55.34.98.805 1.29 1.395.31.58.465 1.225.465 1.935s-.155 1.36-.465 1.95c-.31.58-.74 1.04-1.29 1.38-.54.34-1.155.51-1.845.51-.55 0-1.045-.115-1.485-.345-.43-.23-.8-.55-1.11-.96v3.75c0 .07-.02.125-.06.165s-.095.06-.165.06h-.675c-.07 0-.125-.02-.165-.06s-.06-.095-.06-.165v-9.75c0-.07.02-.125.06-.165s.095-.06.165-.06h.615c.13 0 .205.075.225.225l.06.945c.3-.41.67-.73 1.11-.96.44-.24.935-.36 1.485-.36zm-.09 6.66c.49 0 .935-.12 1.335-.36.4-.25.71-.59.93-1.02.23-.44.345-.925.345-1.455s-.115-1.005-.345-1.425c-.22-.43-.53-.765-.93-1.005-.4-.25-.845-.375-1.335-.375s-.935.13-1.335.39c-.39.25-.7.59-.93 1.02-.22.42-.33.885-.33 1.395s.11.985.33 1.425c.23.43.54.775.93 1.035.4.25.845.375 1.335.375zm13.635-6.66c.69 0 1.305.17 1.845.51.55.34.98.805 1.29 1.395.31.58.465 1.225.465 1.935s-.155 1.36-.465 1.95c-.31.58-.74 1.04-1.29 1.38-.54.34-1.155.51-1.845.51-.55 0-1.045-.115-1.485-.345-.43-.23-.8-.55-1.11-.96l-.06.9c-.02.15-.095.225-.225.225h-.615c-.07 0-.125-.02-.165-.06s-.06-.095-.06-.165v-10.5c0-.07.02-.125.06-.165s.095-.06.165-.06h.675c.07 0 .125.02.165.06s.06.095.06.165v4.545c.3-.41.67-.73 1.11-.96.44-.24.935-.36 1.485-.36zm-.09 6.66c.49 0 .935-.12 1.335-.36.4-.25.71-.59.93-1.02.23-.44.345-.925.345-1.455s-.115-1.005-.345-1.425c-.22-.43-.53-.765-.93-1.005-.4-.25-.845-.375-1.335-.375s-.935.13-1.335.39c-.39.25-.7.59-.93 1.02-.22.42-.33.885-.33 1.395s.11.985.33 1.425c.23.43.54.775.93 1.035.4.25.845.375 1.335.375zm8.796-6.675c.68 0 1.28.165 1.8.495.53.33.935.77 1.215 1.32.29.54.435 1.125.435 1.755 0 .27-.03.465-.09.585-.05.11-.165.165-.345.165h-5.505c.08.72.365 1.305.855 1.755.49.44 1.115.66 1.875.66s1.43-.245 2.01-.735c.06-.06.12-.09.18-.09.05 0 .095.02.135.06l.285.27c.07.07.105.13.105.18s-.03.105-.09.165c-.35.36-.76.64-1.23.84-.47.19-.975.285-1.515.285-.72 0-1.365-.17-1.935-.51-.56-.34-1-.8-1.32-1.38-.31-.59-.465-1.245-.465-1.965 0-.71.15-1.36.45-1.95.31-.59.74-1.055 1.29-1.395s1.17-.51 1.86-.51zm0 .99c-.68 0-1.25.23-1.71.69-.45.46-.715 1.05-.795 1.77h4.965c-.02-.46-.14-.875-.36-1.245-.21-.38-.5-.675-.87-.885-.36-.22-.77-.33-1.23-.33zm8.254-.825c.07 0 .125.02.165.06s.06.095.06.165v.51c0 .07-.02.125-.06.165s-.095.06-.165.06h-1.05v6.165c0 .07-.02.125-.06.165s-.095.06-.165.06h-.675c-.07 0-.125-.02-.165-.06s-.06-.095-.06-.165v-6.165h-1.05c-.07 0-.125-.02-.165-.06s-.06-.095-.06-.165v-.51c0-.07.02-.125.06-.165s.095-.06.165-.06h1.05v-2.025c0-.07.02-.125.06-.165s.095-.06.165-.06h.675c.07 0 .125.02.165.06s.06.095.06.165v2.025zm13.555 0c.08 0 .135.025.165.075.04.04.045.1.015.18l-2.61 6.915c-.04.12-.13.18-.27.18h-.735c-.13 0-.22-.06-.27-.18l-2.175-5.685-2.19 5.685c-.04.12-.13.18-.27.18h-.735c-.13 0-.22-.06-.27-.18l-2.61-6.915c-.01-.03-.015-.065-.015-.105 0-.1.065-.15.195-.15h.66c.13 0 .22.06.27.18l2.16 5.925 2.235-5.925c.03-.09.08-.14.15-.15.04-.02.08-.03.12-.03h.585c.04 0 .08.01.12.03.07.01.12.06.15.15l2.235 5.925 2.16-5.925c.05-.12.14-.18.27-.18zm4.639-.165c.68 0 1.28.165 1.8.495.53.33.935.77 1.215 1.32.29.54.435 1.125.435 1.755 0 .27-.03.465-.09.585-.05.11-.165.165-.345.165h-5.505c.08.72.365 1.305.855 1.755.49.44 1.115.66 1.875.66s1.43-.245 2.01-.735c.06-.06.12-.09.18-.09.05 0 .095.02.135.06l.285.27c.07.07.105.13.105.18s-.03.105-.09.165c-.35.36-.76.64-1.23.84-.47.19-.975.285-1.515.285-.72 0-1.365-.17-1.935-.51-.56-.34-1-.8-1.32-1.38-.31-.59-.465-1.245-.465-1.965 0-.71.15-1.36.45-1.95.31-.59.74-1.055 1.29-1.395s1.17-.51 1.86-.51zm0 .99c-.68 0-1.25.23-1.71.69-.45.46-.715 1.05-.795 1.77h4.965c-.02-.46-.14-.875-.36-1.245-.21-.38-.5-.675-.87-.885-.36-.22-.77-.33-1.23-.33zm8.552-.99c.68 0 1.28.165 1.8.495.53.33.935.77 1.215 1.32.29.54.435 1.125.435 1.755 0 .27-.03.465-.09.585-.05.11-.165.165-.345.165h-5.505c.08.72.365 1.305.855 1.755.49.44 1.115.66 1.875.66s1.43-.245 2.01-.735c.06-.06.12-.09.18-.09.05 0 .095.02.135.06l.285.27c.07.07.105.13.105.18s-.03.105-.09.165c-.35.36-.76.64-1.23.84-.47.19-.975.285-1.515.285-.72 0-1.365-.17-1.935-.51-.56-.34-1-.8-1.32-1.38-.31-.59-.465-1.245-.465-1.965 0-.71.15-1.36.45-1.95.31-.59.74-1.055 1.29-1.395s1.17-.51 1.86-.51zm0 .99c-.68 0-1.25.23-1.71.69-.45.46-.715 1.05-.795 1.77h4.965c-.02-.46-.14-.875-.36-1.245-.21-.38-.5-.675-.87-.885-.36-.22-.77-.33-1.23-.33zm8.866-.99c.8 0 1.43.25 1.89.75.46.49.69 1.215.69 2.175v4.365c0 .07-.02.125-.06.165s-.095.06-.165.06h-.675c-.07 0-.125-.02-.165-.06s-.06-.095-.06-.165v-4.29c0-.64-.15-1.13-.45-1.47-.3-.35-.715-.525-1.245-.525-.44 0-.83.115-1.17.345s-.605.49-.795.78c-.19.28-.285.485-.285.615v4.545c0 .07-.02.125-.06.165s-.095.06-.165.06h-.675c-.07 0-.125-.02-.165-.06s-.06-.095-.06-.165v-6.9c0-.07.02-.125.06-.165s.095-.06.165-.06h.615c.13 0 .205.075.225.225l.06 1.035c.29-.43.645-.775 1.065-1.035s.895-.39 1.425-.39zm12.487 6.69c.52 0 .93-.08 1.23-.24.3-.17.6-.405.9-.705.06-.06.115-.09.165-.09s.105.03.165.09l.375.345c.05.05.075.105.075.165s-.02.11-.06.15c-.36.41-.78.73-1.26.96s-1.01.345-1.59.345c-.69 0-1.32-.17-1.89-.51-.56-.34-1-.805-1.32-1.395s-.48-1.24-.48-1.95.16-1.36.48-1.95.76-1.055 1.32-1.395c.57-.34 1.2-.51 1.89-.51.56 0 1.075.115 1.545.345.48.23.9.55 1.26.96.04.04.06.09.06.15s-.025.115-.075.165l-.375.345c-.05.05-.105.075-.165.075-.04 0-.095-.025-.165-.075-.04-.03-.165-.14-.375-.33-.2-.19-.45-.34-.75-.45-.29-.11-.61-.165-.96-.165-.5 0-.95.125-1.35.375-.39.24-.7.58-.93 1.02-.22.43-.33.91-.33 1.44s.11 1.015.33 1.455c.23.43.54.77.93 1.02.4.24.85.36 1.35.36zm4.633-9.9c0-.07.02-.125.06-.165s.095-.06.165-.06h.675c.07 0 .125.02.165.06s.06.095.06.165v10.5c0 .07-.02.125-.06.165s-.095.06-.165.06h-.675c-.07 0-.125-.02-.165-.06s-.06-.095-.06-.165zm10.017 3.375c.07 0 .125.02.165.06s.06.095.06.165v6.9c0 .07-.02.125-.06.165s-.095.06-.165.06h-.615c-.13 0-.205-.075-.225-.225l-.06-.9c-.31.41-.685.73-1.125.96-.43.23-.92.345-1.47.345-.69 0-1.31-.17-1.86-.51-.54-.34-.965-.8-1.275-1.38-.31-.59-.465-1.24-.465-1.95s.155-1.355.465-1.935c.31-.59.735-1.055 1.275-1.395.55-.34 1.17-.51 1.86-.51.55 0 1.045.12 1.485.36.44.23.81.55 1.11.96l.06-.945c.02-.15.095-.225.225-.225zm-3.405 6.51c.49 0 .93-.125 1.32-.375.4-.26.71-.605.93-1.035.23-.44.345-.915.345-1.425s-.115-.975-.345-1.395c-.22-.43-.53-.77-.93-1.02-.39-.26-.83-.39-1.32-.39s-.935.125-1.335.375c-.4.24-.715.575-.945 1.005-.22.42-.33.895-.33 1.425s.11 1.015.33 1.455c.23.43.545.77.945 1.02.4.24.845.36 1.335.36zm6.634-4.665c0 .23.07.425.21.585.15.16.335.29.555.39s.525.225.915.375c.5.17.91.34 1.23.51.32.16.59.385.81.675s.33.66.33 1.11c0 .4-.12.76-.36 1.08-.24.31-.555.55-.945.72s-.8.255-1.23.255c-.57 0-1.095-.115-1.575-.345-.48-.24-.865-.535-1.155-.885-.05-.07-.075-.12-.075-.15s.02-.075.06-.135l.33-.405c.05-.06.095-.09.135-.09.03 0 .09.035.18.105.26.24.565.455.915.645.36.18.745.27 1.155.27.44 0 .795-.095 1.065-.285s.405-.455.405-.795c0-.25-.08-.46-.24-.63-.15-.18-.34-.325-.57-.435s-.55-.24-.96-.39c-.49-.18-.885-.345-1.185-.495-.3-.16-.555-.375-.765-.645-.21-.28-.315-.625-.315-1.035 0-.58.225-1.06.675-1.44.46-.38 1.025-.57 1.695-.57.41 0 .83.1 1.26.3.43.19.795.46 1.095.81.04.04.06.085.06.135s-.025.11-.075.18l-.255.33c-.04.05-.085.075-.135.075-.07 0-.135-.03-.195-.09-.31-.27-.6-.465-.87-.585-.26-.13-.555-.195-.885-.195s-.63.085-.9.255c-.26.17-.39.435-.39.795zm6.75 0c0 .23.07.425.21.585.15.16.335.29.555.39s.525.225.915.375c.5.17.91.34 1.23.51.32.16.59.385.81.675s.33.66.33 1.11c0 .4-.12.76-.36 1.08-.24.31-.555.55-.945.72s-.8.255-1.23.255c-.57 0-1.095-.115-1.575-.345-.48-.24-.865-.535-1.155-.885-.05-.07-.075-.12-.075-.15s.02-.075.06-.135l.33-.405c.05-.06.095-.09.135-.09.03 0 .09.035.18.105.26.24.565.455.915.645.36.18.745.27 1.155.27.44 0 .795-.095 1.065-.285s.405-.455.405-.795c0-.25-.08-.46-.24-.63-.15-.18-.34-.325-.57-.435s-.55-.24-.96-.39c-.49-.18-.885-.345-1.185-.495-.3-.16-.555-.375-.765-.645-.21-.28-.315-.625-.315-1.035 0-.58.225-1.06.675-1.44.46-.38 1.025-.57 1.695-.57.41 0 .83.1 1.26.3.43.19.795.46 1.095.81.04.04.06.085.06.135s-.025.11-.075.18l-.255.33c-.04.05-.085.075-.135.075-.07 0-.135-.03-.195-.09-.31-.27-.6-.465-.87-.585-.26-.13-.555-.195-.885-.195s-.63.085-.9.255c-.26.17-.39.435-.39.795zm9.151-2.01c.68 0 1.28.165 1.8.495.53.33.935.77 1.215 1.32.29.54.435 1.125.435 1.755 0 .27-.03.465-.09.585-.05.11-.165.165-.345.165h-5.505c.08.72.365 1.305.855 1.755.49.44 1.115.66 1.875.66s1.43-.245 2.01-.735c.06-.06.12-.09.18-.09.05 0 .095.02.135.06l.285.27c.07.07.105.13.105.18s-.03.105-.09.165c-.35.36-.76.64-1.23.84-.47.19-.975.285-1.515.285-.72 0-1.365-.17-1.935-.51-.56-.34-1-.8-1.32-1.38-.31-.59-.465-1.245-.465-1.965 0-.71.15-1.36.45-1.95.31-.59.74-1.055 1.29-1.395s1.17-.51 1.86-.51zm0 .99c-.68 0-1.25.23-1.71.69-.45.46-.715 1.05-.795 1.77h4.965c-.02-.46-.14-.875-.36-1.245-.21-.38-.5-.675-.87-.885-.36-.22-.77-.33-1.23-.33zm6.079 1.02c0 .23.07.425.21.585.15.16.335.29.555.39s.525.225.915.375c.5.17.91.34 1.23.51.32.16.59.385.81.675s.33.66.33 1.11c0 .4-.12.76-.36 1.08-.24.31-.555.55-.945.72s-.8.255-1.23.255c-.57 0-1.095-.115-1.575-.345-.48-.24-.865-.535-1.155-.885-.05-.07-.075-.12-.075-.15s.02-.075.06-.135l.33-.405c.05-.06.095-.09.135-.09.03 0 .09.035.18.105.26.24.565.455.915.645.36.18.745.27 1.155.27.44 0 .795-.095 1.065-.285s.405-.455.405-.795c0-.25-.08-.46-.24-.63-.15-.18-.34-.325-.57-.435s-.55-.24-.96-.39c-.49-.18-.885-.345-1.185-.495-.3-.16-.555-.375-.765-.645-.21-.28-.315-.625-.315-1.035 0-.58.225-1.06.675-1.44.46-.38 1.025-.57 1.695-.57.41 0 .83.1 1.26.3.43.19.795.46 1.095.81.04.04.06.085.06.135s-.025.11-.075.18l-.255.33c-.04.05-.085.075-.135.075-.07 0-.135-.03-.195-.09-.31-.27-.6-.465-.87-.585-.26-.13-.555-.195-.885-.195s-.63.085-.9.255c-.26.17-.39.435-.39.795zm17.067-1.845c.07 0 .125.02.165.06s.06.095.06.165v6.9c0 .07-.02.125-.06.165s-.095.06-.165.06h-.615c-.13 0-.205-.075-.225-.225l-.06-.9c-.31.41-.685.73-1.125.96-.43.23-.92.345-1.47.345-.69 0-1.31-.17-1.86-.51-.54-.34-.965-.8-1.275-1.38-.31-.59-.465-1.24-.465-1.95s.155-1.355.465-1.935c.31-.59.735-1.055 1.275-1.395.55-.34 1.17-.51 1.86-.51.55 0 1.045.12 1.485.36.44.23.81.55 1.11.96l.06-.945c.02-.15.095-.225.225-.225zm-3.405 6.51c.49 0 .93-.125 1.32-.375.4-.26.71-.605.93-1.035.23-.44.345-.915.345-1.425s-.115-.975-.345-1.395c-.22-.43-.53-.77-.93-1.02-.39-.26-.83-.39-1.32-.39s-.935.125-1.335.375c-.4.24-.715.575-.945 1.005-.22.42-.33.895-.33 1.425s.11 1.015.33 1.455c.23.43.545.77.945 1.02.4.24.845.36 1.335.36zm8.809-6.51c.07 0 .125.02.165.06s.06.095.06.165v.51c0 .07-.02.125-.06.165s-.095.06-.165.06h-1.05v6.165c0 .07-.02.125-.06.165s-.095.06-.165.06h-.675c-.07 0-.125-.02-.165-.06s-.06-.095-.06-.165v-6.165h-1.05c-.07 0-.125-.02-.165-.06s-.06-.095-.06-.165v-.51c0-.07.02-.125.06-.165s.095-.06.165-.06h1.05v-2.025c0-.07.02-.125.06-.165s.095-.06.165-.06h.675c.07 0 .125.02.165.06s.06.095.06.165v2.025zm-230.671 14.85c.07 0 .125.02.165.06s.06.095.06.165v6.21c0 .91-.16 1.685-.48 2.325s-.765 1.125-1.335 1.455c-.56.32-1.21.48-1.95.48s-1.395-.16-1.965-.48c-.56-.33-1-.815-1.32-1.455s-.48-1.415-.48-2.325v-6.21c0-.07.02-.125.06-.165s.095-.06.165-.06h.72c.07 0 .125.02.165.06s.06.095.06.165v6.21c0 1.04.235 1.83.705 2.37.48.53 1.11.795 1.89.795s1.405-.265 1.875-.795c.48-.54.72-1.33.72-2.37v-6.21c0-.07.02-.125.06-.165s.095-.06.165-.06zm11.015 8.955c.05.05.075.1.075.15 0 .06-.03.115-.09.165-1.11.95-2.29 1.425-3.54 1.425-.97 0-1.86-.24-2.67-.72s-1.45-1.13-1.92-1.95c-.46-.83-.69-1.74-.69-2.73s.23-1.9.69-2.73c.47-.83 1.11-1.485 1.92-1.965s1.7-.72 2.67-.72c1.25 0 2.43.475 3.54 1.425.06.04.09.095.09.165 0 .05-.025.1-.075.15l-.465.465c-.05.05-.1.075-.15.075-.04 0-.095-.025-.165-.075-.84-.71-1.765-1.065-2.775-1.065-.74 0-1.425.19-2.055.57-.63.37-1.13.88-1.5 1.53-.36.65-.54 1.375-.54 2.175 0 .79.185 1.51.555 2.16s.865 1.165 1.485 1.545c.63.37 1.315.555 2.055.555 1.01 0 1.935-.355 2.775-1.065.07-.05.125-.075.165-.075.05 0 .1.025.15.075zm2.999-6.39c0 .35.1.65.3.9.21.24.465.44.765.6.31.16.735.35 1.275.57.66.26 1.195.505 1.605.735s.755.545 1.035.945c.29.39.435.885.435 1.485 0 .53-.155 1.02-.465 1.47-.3.44-.715.79-1.245 1.05-.52.25-1.09.375-1.71.375-.69 0-1.32-.145-1.89-.435-.57-.3-1.035-.685-1.395-1.155-.03-.05-.045-.095-.045-.135 0-.07.03-.125.09-.165l.435-.42c.04-.04.085-.06.135-.06.06 0 .12.03.18.09.74.8 1.565 1.2 2.475 1.2.45 0 .845-.08 1.185-.24.35-.17.62-.395.81-.675.19-.29.285-.61.285-.96 0-.37-.105-.68-.315-.93-.21-.26-.475-.475-.795-.645s-.75-.365-1.29-.585c-.64-.26-1.16-.5-1.56-.72-.39-.22-.725-.52-1.005-.9-.27-.38-.405-.85-.405-1.41 0-.51.13-.965.39-1.365.27-.41.635-.73 1.095-.96s.975-.345 1.545-.345c.56 0 1.1.125 1.62.375.53.25.98.595 1.35 1.035.04.04.06.09.06.15s-.025.115-.075.165l-.375.39c-.06.06-.115.09-.165.09s-.1-.025-.15-.075c-.36-.36-.72-.625-1.08-.795-.35-.18-.745-.27-1.185-.27-.56 0-1.02.145-1.38.435s-.54.685-.54 1.185zm12.307 2.25c.68.16 1.215.475 1.605.945s.585 1.03.585 1.68c0 .99-.315 1.75-.945 2.28-.62.52-1.55.78-2.79.78h-3.165c-.07 0-.125-.02-.165-.06s-.06-.095-.06-.165v-10.05c0-.07.02-.125.06-.165s.095-.06.165-.06h3.195c.71 0 1.29.12 1.74.36.46.24.79.55.99.93.21.37.315.775.315 1.215 0 .55-.13 1.03-.39 1.44-.26.4-.64.69-1.14.87zm.39-2.235c0-.5-.18-.875-.54-1.125-.35-.25-.84-.375-1.47-.375h-2.145v3.3h2.145c.63 0 1.12-.155 1.47-.465.36-.32.54-.765.54-1.335zm-1.98 6.84c.86 0 1.505-.16 1.935-.48.43-.33.645-.845.645-1.545 0-.62-.21-1.105-.63-1.455-.41-.36-1.06-.54-1.95-.54h-2.175v4.02zm16.803-6.27c.07 0 .125.02.165.06s.06.095.06.165v6.9c0 .07-.02.125-.06.165s-.095.06-.165.06h-.615c-.13 0-.205-.075-.225-.225l-.06-.9c-.31.41-.685.73-1.125.96-.43.23-.92.345-1.47.345-.69 0-1.31-.17-1.86-.51-.54-.34-.965-.8-1.275-1.38-.31-.59-.465-1.24-.465-1.95s.155-1.355.465-1.935c.31-.59.735-1.055 1.275-1.395.55-.34 1.17-.51 1.86-.51.55 0 1.045.12 1.485.36.44.23.81.55 1.11.96l.06-.945c.02-.15.095-.225.225-.225zm-3.405 6.51c.49 0 .93-.125 1.32-.375.4-.26.71-.605.93-1.035.23-.44.345-.915.345-1.425s-.115-.975-.345-1.395c-.22-.43-.53-.77-.93-1.02-.39-.26-.83-.39-1.32-.39s-.935.125-1.335.375c-.4.24-.715.575-.945 1.005-.22.42-.33.895-.33 1.425s.11 1.015.33 1.455c.23.43.545.77.945 1.02.4.24.845.36 1.335.36zm9.274-6.675c.8 0 1.43.25 1.89.75.46.49.69 1.215.69 2.175v4.365c0 .07-.02.125-.06.165s-.095.06-.165.06h-.675c-.07 0-.125-.02-.165-.06s-.06-.095-.06-.165v-4.29c0-.64-.15-1.13-.45-1.47-.3-.35-.715-.525-1.245-.525-.44 0-.83.115-1.17.345s-.605.49-.795.78c-.19.28-.285.485-.285.615v4.545c0 .07-.02.125-.06.165s-.095.06-.165.06h-.675c-.07 0-.125-.02-.165-.06s-.06-.095-.06-.165v-6.9c0-.07.02-.125.06-.165s.095-.06.165-.06h.615c.13 0 .205.075.225.225l.06 1.035c.29-.43.645-.775 1.065-1.035s.895-.39 1.425-.39zm11.47-3.435c.07 0 .125.02.165.06s.06.095.06.165v10.5c0 .07-.02.125-.06.165s-.095.06-.165.06h-.615c-.13 0-.205-.075-.225-.225l-.06-.9c-.31.41-.685.73-1.125.96-.43.23-.92.345-1.47.345-.69 0-1.31-.17-1.86-.51-.54-.34-.965-.8-1.275-1.38-.31-.59-.465-1.24-.465-1.95s.155-1.355.465-1.935c.31-.59.735-1.055 1.275-1.395.55-.34 1.17-.51 1.86-.51.55 0 1.045.12 1.485.36.44.23.81.55 1.11.96v-4.545c0-.07.02-.125.06-.165s.095-.06.165-.06zm-3.405 10.11c.49 0 .93-.125 1.32-.375.4-.26.71-.605.93-1.035.23-.44.345-.915.345-1.425s-.115-.975-.345-1.395c-.22-.43-.53-.77-.93-1.02-.39-.26-.83-.39-1.32-.39s-.935.125-1.335.375c-.4.24-.715.575-.945 1.005-.22.42-.33.895-.33 1.425s.11 1.015.33 1.455c.23.43.545.77.945 1.02.4.24.845.36 1.335.36zm13.23-6.51c.07 0 .125.02.165.06s.06.095.06.165v.51c0 .07-.02.125-.06.165s-.095.06-.165.06h-1.05v6.165c0 .07-.02.125-.06.165s-.095.06-.165.06h-.675c-.07 0-.125-.02-.165-.06s-.06-.095-.06-.165v-6.165h-1.05c-.07 0-.125-.02-.165-.06s-.06-.095-.06-.165v-.51c0-.07.02-.125.06-.165s.095-.06.165-.06h1.05v-2.025c0-.07.02-.125.06-.165s.095-.06.165-.06h.675c.07 0 .125.02.165.06s.06.095.06.165v2.025zm5.56-.165c.8 0 1.43.25 1.89.75.46.49.69 1.215.69 2.175v4.365c0 .07-.02.125-.06.165s-.095.06-.165.06h-.675c-.07 0-.125-.02-.165-.06s-.06-.095-.06-.165v-4.29c0-.64-.15-1.13-.45-1.47-.3-.35-.715-.525-1.245-.525-.44 0-.83.115-1.17.345s-.605.49-.795.78c-.19.28-.285.485-.285.615v4.545c0 .07-.02.125-.06.165s-.095.06-.165.06h-.675c-.07 0-.125-.02-.165-.06s-.06-.095-.06-.165v-10.5c0-.07.02-.125.06-.165s.095-.06.165-.06h.675c.07 0 .125.02.165.06s.06.095.06.165v4.635c.29-.43.645-.775 1.065-1.035s.895-.39 1.425-.39zm7.976 0c.68 0 1.28.165 1.8.495.53.33.935.77 1.215 1.32.29.54.435 1.125.435 1.755 0 .27-.03.465-.09.585-.05.11-.165.165-.345.165h-5.505c.08.72.365 1.305.855 1.755.49.44 1.115.66 1.875.66s1.43-.245 2.01-.735c.06-.06.12-.09.18-.09.05 0 .095.02.135.06l.285.27c.07.07.105.13.105.18s-.03.105-.09.165c-.35.36-.76.64-1.23.84-.47.19-.975.285-1.515.285-.72 0-1.365-.17-1.935-.51-.56-.34-1-.8-1.32-1.38-.31-.59-.465-1.245-.465-1.965 0-.71.15-1.36.45-1.95.31-.59.74-1.055 1.29-1.395s1.17-.51 1.86-.51zm0 .99c-.68 0-1.25.23-1.71.69-.45.46-.715 1.05-.795 1.77h4.965c-.02-.46-.14-.875-.36-1.245-.21-.38-.5-.675-.87-.885-.36-.22-.77-.33-1.23-.33zm13.482-.75c.05.02.075.06.075.12 0 .05-.01.09-.03.12l-.24.525c-.04.08-.095.12-.165.12-.05 0-.14-.015-.27-.045s-.27-.045-.42-.045c-.46 0-.85.155-1.17.465-.31.31-.465.7-.465 1.17v4.62c0 .07-.02.125-.06.165s-.095.06-.165.06h-.675c-.07 0-.125-.02-.165-.06s-.06-.095-.06-.165v-6.9c0-.07.02-.125.06-.165s.095-.06.165-.06h.6c.13 0 .205.075.225.225l.06.645c.21-.32.47-.57.78-.75.31-.19.655-.285 1.035-.285.37 0 .665.08.885.24zm4.353-.24c.68 0 1.28.165 1.8.495.53.33.935.77 1.215 1.32.29.54.435 1.125.435 1.755 0 .27-.03.465-.09.585-.05.11-.165.165-.345.165h-5.505c.08.72.365 1.305.855 1.755.49.44 1.115.66 1.875.66s1.43-.245 2.01-.735c.06-.06.12-.09.18-.09.05 0 .095.02.135.06l.285.27c.07.07.105.13.105.18s-.03.105-.09.165c-.35.36-.76.64-1.23.84-.47.19-.975.285-1.515.285-.72 0-1.365-.17-1.935-.51-.56-.34-1-.8-1.32-1.38-.31-.59-.465-1.245-.465-1.965 0-.71.15-1.36.45-1.95.31-.59.74-1.055 1.29-1.395s1.17-.51 1.86-.51zm0 .99c-.68 0-1.25.23-1.71.69-.45.46-.715 1.05-.795 1.77h4.965c-.02-.46-.14-.875-.36-1.245-.21-.38-.5-.675-.87-.885-.36-.22-.77-.33-1.23-.33zm12.047-.825c.07 0 .125.02.165.06s.06.095.06.165v6.9c0 .07-.02.125-.06.165s-.095.06-.165.06h-.615c-.13 0-.205-.075-.225-.225l-.06-.9c-.31.41-.685.73-1.125.96-.43.23-.92.345-1.47.345-.69 0-1.31-.17-1.86-.51-.54-.34-.965-.8-1.275-1.38-.31-.59-.465-1.24-.465-1.95s.155-1.355.465-1.935c.31-.59.735-1.055 1.275-1.395.55-.34 1.17-.51 1.86-.51.55 0 1.045.12 1.485.36.44.23.81.55 1.11.96l.06-.945c.02-.15.095-.225.225-.225zm-3.405 6.51c.49 0 .93-.125 1.32-.375.4-.26.71-.605.93-1.035.23-.44.345-.915.345-1.425s-.115-.975-.345-1.395c-.22-.43-.53-.77-.93-1.02-.39-.26-.83-.39-1.32-.39s-.935.125-1.335.375c-.4.24-.715.575-.945 1.005-.22.42-.33.895-.33 1.425s.11 1.015.33 1.455c.23.43.545.77.945 1.02.4.24.845.36 1.335.36zm5.659-9.885c0-.07.02-.125.06-.165s.095-.06.165-.06h.675c.07 0 .125.02.165.06s.06.095.06.165v10.5c0 .07-.02.125-.06.165s-.095.06-.165.06h-.675c-.07 0-.125-.02-.165-.06s-.06-.095-.06-.165zm7.347 6c.07 0 .125.02.165.06s.06.095.06.165v.525c0 .07-.02.125-.06.165s-.095.06-.165.06h-4.05c-.07 0-.125-.02-.165-.06s-.06-.095-.06-.165v-.525c0-.07.02-.125.06-.165s.095-.06.165-.06zm13.779-2.625c.08 0 .135.025.165.075.04.04.045.1.015.18l-2.61 6.915c-.04.12-.13.18-.27.18h-.735c-.13 0-.22-.06-.27-.18l-2.175-5.685-2.19 5.685c-.04.12-.13.18-.27.18h-.735c-.13 0-.22-.06-.27-.18l-2.61-6.915c-.01-.03-.015-.065-.015-.105 0-.1.065-.15.195-.15h.66c.13 0 .22.06.27.18l2.16 5.925 2.235-5.925c.03-.09.08-.14.15-.15.04-.02.08-.03.12-.03h.585c.04 0 .08.01.12.03.07.01.12.06.15.15l2.235 5.925 2.16-5.925c.05-.12.14-.18.27-.18zm4.759 7.545c-.69 0-1.32-.17-1.89-.51s-1.02-.805-1.35-1.395c-.32-.59-.48-1.24-.48-1.95s.16-1.36.48-1.95c.33-.59.78-1.055 1.35-1.395s1.2-.51 1.89-.51 1.32.17 1.89.51 1.015.805 1.335 1.395c.33.59.495 1.24.495 1.95s-.165 1.36-.495 1.95c-.32.59-.765 1.055-1.335 1.395s-1.2.51-1.89.51zm0-1.02c.49 0 .935-.12 1.335-.36.41-.25.73-.59.96-1.02s.345-.915.345-1.455-.115-1.025-.345-1.455-.55-.765-.96-1.005c-.4-.25-.845-.375-1.335-.375s-.94.125-1.35.375c-.4.24-.715.575-.945 1.005s-.345.915-.345 1.455.115 1.025.345 1.455.545.77.945 1.02c.41.24.86.36 1.35.36zm9.336-6.45c.05.02.075.06.075.12 0 .05-.01.09-.03.12l-.24.525c-.04.08-.095.12-.165.12-.05 0-.14-.015-.27-.045s-.27-.045-.42-.045c-.46 0-.85.155-1.17.465-.31.31-.465.7-.465 1.17v4.62c0 .07-.02.125-.06.165s-.095.06-.165.06h-.675c-.07 0-.125-.02-.165-.06s-.06-.095-.06-.165v-6.9c0-.07.02-.125.06-.165s.095-.06.165-.06h.6c.13 0 .205.075.225.225l.06.645c.21-.32.47-.57.78-.75.31-.19.655-.285 1.035-.285.37 0 .665.08.885.24zm1.432-3.45c0-.07.02-.125.06-.165s.095-.06.165-.06h.675c.07 0 .125.02.165.06s.06.095.06.165v10.5c0 .07-.02.125-.06.165s-.095.06-.165.06h-.675c-.07 0-.125-.02-.165-.06s-.06-.095-.06-.165zm10.017-.225c.07 0 .125.02.165.06s.06.095.06.165v10.5c0 .07-.02.125-.06.165s-.095.06-.165.06h-.615c-.13 0-.205-.075-.225-.225l-.06-.9c-.31.41-.685.73-1.125.96-.43.23-.92.345-1.47.345-.69 0-1.31-.17-1.86-.51-.54-.34-.965-.8-1.275-1.38-.31-.59-.465-1.24-.465-1.95s.155-1.355.465-1.935c.31-.59.735-1.055 1.275-1.395.55-.34 1.17-.51 1.86-.51.55 0 1.045.12 1.485.36.44.23.81.55 1.11.96v-4.545c0-.07.02-.125.06-.165s.095-.06.165-.06zm-3.405 10.11c.49 0 .93-.125 1.32-.375.4-.26.71-.605.93-1.035.23-.44.345-.915.345-1.425s-.115-.975-.345-1.395c-.22-.43-.53-.77-.93-1.02-.39-.26-.83-.39-1.32-.39s-.935.125-1.335.375c-.4.24-.715.575-.945 1.005-.22.42-.33.895-.33 1.425s.11 1.015.33 1.455c.23.43.545.77.945 1.02.4.24.845.36 1.335.36zm6.154 1.035c-.2 0-.37-.07-.51-.21s-.21-.31-.21-.51.07-.37.21-.51.31-.21.51-.21.37.07.51.21.21.31.21.51-.07.37-.21.51-.31.21-.51.21z" fill="#000"/><path d="m63 278h51v51h-51z" fill="#004686"/><path d="m139 278h51v51h-51z" fill="#ffd803"/><path d="m481 279h51v51h-51z" fill="#fff8e7"/><path d="m405 279h51v51h-51z" fill="#ffecf7"/><path d="m253 279h51v51h-51z" fill="#ffc200"/><path d="m329 279h51v51h-51z" fill="#e3f6f5"/><path d="m253 369h51v51h-51z" fill="#eaad00"/><path d="m405 369h51v51h-51z" fill="#ffafe9"/><path d="m329 369h51v51h-51z" fill="#d2fcf9"/></svg>