<svg fill="none" height="33" viewBox="0 0 88 33" width="88" xmlns="http://www.w3.org/2000/svg"><g stroke="#000"><path d="m7.26609 26.5455c-4.21595-4.6787-9.36878-15.4397.00002-21.98987 8.43189-5.89509 18.89369.00003 22.48499 1.8715 2.4984-.93573 8.9004-2.80719 14.5216-2.80719" stroke-width="4"/><path d="m79.9157 26.5455c4.216-4.6787 9.3688-15.4397 0-21.98987-8.4319-5.89509-18.8937.00003-22.485 1.8715-2.4984-.93573-8.9004-2.80719-14.5216-2.80719" stroke-width="4"/><circle cx="22.4545" cy="17" fill="#000" r="1.36364" stroke-width="5"/><circle cx="64.7273" cy="17" fill="#000" r="1.36364" stroke-width="5"/><g stroke-width="4"><path d="m29.2727 25.1818c1.695 1.8182 6.9338 5.4546 14.3298 5.4546s11.7103-3.6364 12.943-5.4546"/><path d="m7.45454 26.5455c-1.36364.8391-4.09091 3.1049-4.09091 5.4545"/><path d="m79.7273 26.5455c.9091.8391 2.7272 3.1049 2.7272 5.4545"/></g></g></svg>