<svg width="63" height="57" viewBox="0 0 63 57" fill="none" xmlns="http://www.w3.org/2000/svg">
<path d="M4.8618 53C1.7701 49.569 -2.00864 41.6776 4.86182 36.8741C11.0452 32.5511 18.7172 36.8742 21.3508 38.2466C23.1829 37.5604 27.8777 36.188 32 36.188" stroke="black"/>
<path d="M58.1382 53C61.2299 49.569 65.0086 41.6776 58.1382 36.8741C51.9548 32.5511 44.2828 36.8742 41.6492 38.2466C39.8171 37.5604 35.1223 36.188 31 36.188" stroke="black"/>
<circle cx="16" cy="46" r="1" fill="black"/>
<circle cx="47" cy="46" r="1" fill="black"/>
<path d="M21 52C22.2429 53.3333 26.0847 56 31.5085 56C36.9322 56 40.096 53.3333 41 52" stroke="black"/>
<path d="M5 53C4 53.6154 2 55.2769 2 57" stroke="black"/>
<path d="M58 53C58.6667 53.6154 60 55.2769 60 57" stroke="black"/>
<path d="M19 10.1766C17.8 2.97664 23.0002 -2.32336 32.0003 4.67664C37.5003 -1.82336 45.0003 0.676661 45.0003 9.17666C45.0003 15.9767 36.3336 20.1766 32.0003 21.6766C28.8336 21.01 20.2 17.3766 19 10.1766Z" fill="#F07789" stroke="black"/>
</svg>
