<svg width="86" height="31" viewBox="0 0 86 31" fill="none" xmlns="http://www.w3.org/2000/svg">
<path d="M6.26609 25.5455C2.05014 20.8668 -3.10269 10.1058 6.26611 3.55563C14.698 -2.33946 25.1598 3.55566 28.7511 5.42713C31.2495 4.4914 37.6515 2.61994 43.2727 2.61994" stroke="black" stroke-width="2"/>
<path d="M78.9157 25.5455C83.1317 20.8668 88.2845 10.1058 78.9157 3.55563C70.4838 -2.33946 60.022 3.55566 56.4307 5.42713C53.9323 4.4914 47.5303 2.61994 41.9091 2.61994" stroke="black" stroke-width="2"/>
<circle cx="21.4545" cy="16" r="1.36364" fill="black"/>
<circle cx="63.7273" cy="16" r="1.36364" fill="black"/>
<path d="M28.2727 24.1818C29.9677 26 35.2065 29.6364 42.6025 29.6364C49.9985 29.6364 54.3128 26 55.5455 24.1818" stroke="black" stroke-width="2"/>
<path d="M6.45454 25.5455C5.0909 26.3846 2.36363 28.6504 2.36363 31" stroke="black" stroke-width="2"/>
<path d="M78.7273 25.5455C79.6364 26.3846 81.4545 28.6504 81.4545 31" stroke="black" stroke-width="2"/>
</svg>
