<svg fill="none" height="1080" viewBox="0 0 1920 1080" width="1920" xmlns="http://www.w3.org/2000/svg"><path d="m0 0h1920v1080h-1920z" fill="#fff"/><g fill="#262323"><path d="m148.64 815.96v-14.08h7.44c5.44 0 7.76 2.72 7.76 7.04s-2.32 7.04-7.76 7.04zm29.12-7.04c0-10.32-6.88-18.08-20.64-18.08h-22.16v56.16h13.68v-20.16h8.48c14.32 0 20.64-8.64 20.64-17.92zm50.802 15.76c0-14.16-10.08-22.96-23.2-22.96-13.04 0-23.2 8.8-23.2 22.96s9.92 22.96 23.04 22.96 23.36-8.8 23.36-22.96zm-32.48 0c0-7.6 4.32-11.12 9.28-11.12 4.8 0 9.28 3.52 9.28 11.12 0 7.52-4.56 11.12-9.44 11.12-4.96 0-9.12-3.6-9.12-11.12zm53.417-16v-6.32h-13.68v65.92h13.68v-27.52c2.48 3.76 7.2 6.88 13.76 6.88 10.96 0 19.68-8.96 19.68-23.04s-8.72-22.88-19.68-22.88c-6.56 0-11.28 3.04-13.76 6.96zm19.52 15.92c0 7.12-4.64 11.12-9.84 11.12-5.12 0-9.76-3.92-9.76-11.04s4.64-11.04 9.76-11.04c5.2 0 9.84 3.84 9.84 10.96zm34.777-15.92v-6.32h-13.68v65.92h13.68v-27.52c2.48 3.76 7.2 6.88 13.76 6.88 10.96 0 19.68-8.96 19.68-23.04s-8.72-22.88-19.68-22.88c-6.56 0-11.28 3.04-13.76 6.96zm19.52 15.92c0 7.12-4.64 11.12-9.84 11.12-5.12 0-9.76-3.92-9.76-11.04s4.64-11.04 9.76-11.04c5.2 0 9.84 3.84 9.84 10.96zm21.097 22.4h13.68v-44.64h-13.68zm6.88-49.28c4.8 0 8.08-3.28 8.08-7.36 0-4.16-3.28-7.44-8.08-7.44-4.88 0-8.16 3.28-8.16 7.44 0 4.08 3.28 7.36 8.16 7.36zm47.514 49.28h13.6v-26.08c0-12-6.88-19.04-17.2-19.04-6 0-10.8 2.64-13.52 6.4v-5.92h-13.68v44.64h13.68v-24.24c0-6.08 3.36-9.44 8.56-9.44s8.56 3.36 8.56 9.44zm59.346-12.96c-.24-16.64-24.4-11.6-24.4-18.72 0-2.16 1.76-3.44 4.96-3.44 3.84 0 6.16 2 6.56 5.04h12.64c-.88-8.8-7.28-15.2-18.8-15.2-11.68 0-18.16 6.24-18.16 13.84 0 16.4 24.32 11.2 24.32 18.4 0 2-1.84 3.6-5.36 3.6-3.76 0-6.56-2.08-6.88-5.2h-13.52c.64 8.64 8.64 15.28 20.56 15.28 11.2 0 18.08-5.84 18.08-13.6zm56.283-4.16c0 4-2.64 6.08-7.2 6.08h-10.08v-12.4h9.92c4.56 0 7.36 2.32 7.36 6.32zm-1.36-22.16c0 3.84-2.48 5.84-6.96 5.84h-8.96v-11.76h8.96c4.48 0 6.96 2.08 6.96 5.92zm15.2 24c0-6.4-4.24-12.16-10.8-13.52 5.44-1.6 9.52-6 9.52-12.8 0-8.88-6.8-14.56-18.24-14.56h-25.28v56.16h26.16c11.84 0 18.64-6 18.64-15.28zm51.614-7.04c0-14.16-10.08-22.96-23.2-22.96-13.04 0-23.2 8.8-23.2 22.96s9.92 22.96 23.04 22.96 23.36-8.8 23.36-22.96zm-32.48 0c0-7.6 4.32-11.12 9.28-11.12 4.8 0 9.28 3.52 9.28 11.12 0 7.52-4.56 11.12-9.44 11.12-4.96 0-9.12-3.6-9.12-11.12zm39.738 22.32h13.68v-59.2h-13.68zm20.873-22.4c0 14.08 8.72 23.04 19.68 23.04 6.56 0 11.28-2.96 13.76-7.04v6.4h13.68v-59.2h-13.68v20.72c-2.72-4.08-7.84-6.8-13.76-6.8-10.96 0-19.68 8.8-19.68 22.88zm33.44.08c0 7.12-4.56 11.04-9.76 11.04-5.12 0-9.76-4-9.76-11.12s4.64-10.96 9.76-10.96c5.2 0 9.76 3.92 9.76 11.04z"/><path d="m943.64 844h12.96c7.76 0 13.92-2 18.56-6.16 5.44-4.88 8.4-12.32 8.4-21.36 0-16.08-9.68-25.84-25.76-25.84h-14.16zm6.72-47.68h7.2c12.24 0 19.12 7.36 19.12 20.24 0 7.92-2.4 13.84-7.2 17.68-3.84 3.04-7.68 4-16.72 4h-2.4zm50.08-5.68h-6.722v53.36h6.722zm20 12.56 28.72 40.8h5.92v-53.36h-6.72v40.16l-28.48-40.16h-6.16v53.36h6.72zm78.59 0 28.72 40.8h5.92v-53.36h-6.72v40.16l-28.48-40.16h-6.16v53.36h6.72zm81.65 24.32c.08-.88.08-1.92.08-2.4 0-10.8-8-18.88-18.72-18.88-10.8 0-18.56 8.08-18.56 19.44 0 11.2 7.84 19.2 18.8 19.2 7.04 0 13.36-3.76 16.4-9.92l-5.36-2c-2.16 3.84-6.48 6.32-11.04 6.32-4 0-7.52-1.76-9.92-5.04-1.52-2-2.08-3.6-2.4-6.72zm-30.64-4.48c.48-2.96.96-4.48 2.08-6.24 2.16-3.2 5.84-5.12 9.92-5.12s7.84 1.92 10.16 5.04c1.28 1.84 1.84 3.44 2.08 6.32zm60.96-15.92v23.6c0 2.96-.4 4.48-1.6 5.92-1.52 1.76-4 2.8-6.56 2.8-4.88 0-8.24-3.68-8.24-8.88v-23.44h-6.08v23.6c0 4.48 1.2 7.84 3.68 10.24 2.64 2.48 6.48 3.92 10.64 3.92s7.92-1.36 10.64-3.84 3.68-5.28 3.68-10.32v-23.6zm21.98 31.52 18.96-31.52h-27.12v5.36h17.12l-19.2 31.52h27.2v-5.36zm58.56-11.12c.08-.88.08-1.92.08-2.4 0-10.8-8-18.88-18.72-18.88-10.8 0-18.56 8.08-18.56 19.44 0 11.2 7.84 19.2 18.8 19.2 7.04 0 13.36-3.76 16.4-9.92l-5.36-2c-2.16 3.84-6.48 6.32-11.04 6.32-4 0-7.52-1.76-9.92-5.04-1.52-2-2.08-3.6-2.4-6.72zm-30.64-4.48c.48-2.96.96-4.48 2.08-6.24 2.16-3.2 5.84-5.12 9.92-5.12s7.84 1.92 10.16 5.04c1.28 1.84 1.84 3.44 2.08 6.32zm45.6-15.92h-6.08v36.88h6.08zm-2.96-14.32c-2.24 0-3.92 1.68-3.92 3.92s1.68 3.92 3.84 3.92 3.92-1.68 3.92-3.84c0-2.24-1.68-4-3.84-4zm21.65 19.68h5.6v-5.36h-5.6v-11.6h-6.08v11.6h-5.12v5.36h5.12v25.76c0 4.08 1.68 5.68 6 5.76h5.68v-5.28h-2.8c-2.24 0-2.72-.4-2.8-2.24zm62.04 2.64v5.76h18.56c-.56 4.64-1.36 7.28-3.44 10.08-3.28 4.72-9.44 7.84-15.36 7.84-10.88 0-19.28-9.36-19.28-21.44 0-12.24 8.4-21.52 19.44-21.52 3.84 0 7.6 1.2 10.56 3.36 1.44.96 2.4 1.92 4.48 4.24l5.04-4.08c-5.04-6.32-12-9.68-20.08-9.68-15.28 0-26.32 11.6-26.32 27.76 0 15.92 11.12 27.52 26.32 27.52 8.08 0 14.96-3.36 20.08-9.76 3.92-4.96 5.52-9.92 5.52-17.04 0-.48 0-1.92-.08-3.04zm34.76-8v36.88h6.08v-18.72c0-4.24.56-6.4 2.16-8.72 1.84-2.72 4.72-4.24 8-4.24.4 0 1.04 0 1.68.08v-6.16h-1.44c-2.64 0-5.2.8-7.04 2.24-1.44 1.12-2.24 2.24-3.36 4.88v-6.24zm40.06-.88c-11.2 0-18.88 7.84-18.88 19.28 0 11.36 7.68 19.36 18.64 19.36 10.56 0 18.88-8.4 18.88-19.2 0-11.36-7.76-19.44-18.64-19.44zm0 5.6c7.44 0 12.4 5.52 12.4 13.76 0 8-5.2 13.68-12.48 13.68-7.52 0-12.56-5.52-12.56-13.68 0-8.24 5.04-13.76 12.64-13.76zm33.99.64h5.6v-5.36h-5.6v-11.6h-6.08v11.6h-5.12v5.36h5.12v25.76c0 4.08 1.68 5.68 6 5.76h5.68v-5.28h-2.8c-2.24 0-2.72-.4-2.8-2.24zm47.76 15.04c.08-.88.08-1.92.08-2.4 0-10.8-8-18.88-18.72-18.88-10.8 0-18.56 8.08-18.56 19.44 0 11.2 7.84 19.2 18.8 19.2 7.04 0 13.36-3.76 16.4-9.92l-5.36-2c-2.16 3.84-6.48 6.32-11.04 6.32-4 0-7.52-1.76-9.92-5.04-1.52-2-2.08-3.6-2.4-6.72zm-30.64-4.48c.48-2.96.96-4.48 2.08-6.24 2.16-3.2 5.84-5.12 9.92-5.12s7.84 1.92 10.16 5.04c1.28 1.84 1.84 3.44 2.08 6.32zm62.49-5.84c-.32-6.96-5.04-10.96-12.88-10.96-7.76 0-12.96 4.32-12.96 10.72 0 5.6 3.6 8.96 11.6 11.12 6.32 1.6 8.4 3.2 8.4 6.4 0 3.28-2.72 5.44-6.88 5.44-4.64 0-7.36-2.24-7.76-6.4h-6c.64 7.44 5.36 11.36 13.76 11.36 7.84 0 13.12-4.32 13.12-10.72 0-2.72-1.12-5.36-2.96-7.2-1.76-1.76-4.24-2.96-8.96-4.24-6.64-1.84-8.24-3.04-8.24-6.24s2.56-5.28 6.64-5.28c4.24 0 7.04 2.16 7.04 5.6v.4zm15.54 10.32 14.72 16.48h7.6l-16.4-18.88 16.48-18h-7.68l-14.72 16.16v-32.64h-6.08v53.36h6.08zm60.73 10.4v-47.28h-6.72v53.36h25.52v-6.08zm32.24-30.8h-6.08v36.88h6.08zm-2.96-14.32c-2.24 0-3.92 1.68-3.92 3.92s1.68 3.92 3.84 3.92 3.92-1.68 3.92-3.84c0-2.24-1.68-4-3.84-4zm42.36 20.64c-3.76-5.12-7.52-7.2-13.12-7.2-4.72 0-8.72 1.44-11.68 4.32-3.68 3.52-5.84 9.2-5.84 15.12 0 10.96 7.28 19.2 17.04 19.2 5.76 0 10-2.48 13.6-7.92v7.76c0 3.84-.96 6.8-2.8 8.8-2.08 2.24-5.76 3.6-9.6 3.6-3.12 0-6.56-.88-8.64-2.16-1.04-.72-1.84-1.44-3.52-3.2l-4.16 4.16c4 4.48 9.44 6.72 16.32 6.72 5.6 0 10.32-1.68 13.6-4.88 3.36-3.2 4.88-7.36 4.88-13.52v-37.12h-6.08zm-12-1.6c3.28 0 6.72 1.6 8.96 4.08 2.16 2.4 2.88 4.96 2.88 9.76 0 3.68-1.04 7.28-2.64 9.12-2.4 2.8-5.84 4.48-9.36 4.48-6.96 0-12.08-5.92-12.08-13.84 0-8 5.04-13.6 12.24-13.6zm35.8-21.2h-6.08v53.36h6.08v-21.6c0-3.52.56-5.36 2.4-7.44 1.92-2.16 4.4-3.28 7.2-3.28 4.4 0 6.88 2.8 6.88 7.84v24.48h6.08v-24.8c0-4.72-.88-7.6-2.88-9.6-2-2.08-5.36-3.36-8.56-3.36-4.4 0-7.76 1.84-11.12 6zm41.03 21.84h5.6v-5.36h-5.6v-11.6h-6.08v11.6h-5.12v5.36h5.12v25.76c0 4.08 1.68 5.68 6 5.76h5.68v-5.28h-2.8c-2.24 0-2.72-.4-2.8-2.24z"/><path d="m138.35 728.25h16.25v14.75h4.2v-33.35h-4.2v15h-16.25v-15h-4.2v33.35h4.2zm49.809 4.45c.05-.55.05-1.2.05-1.5 0-6.75-5-11.8-11.7-11.8-6.75 0-11.6 5.05-11.6 12.15 0 7 4.9 12 11.75 12 4.4 0 8.35-2.35 10.25-6.2l-3.35-1.25c-1.35 2.4-4.05 3.95-6.9 3.95-2.5 0-4.7-1.1-6.2-3.15-.95-1.25-1.3-2.25-1.5-4.2zm-19.15-2.8c.3-1.85.6-2.8 1.3-3.9 1.35-2 3.65-3.2 6.2-3.2s4.9 1.2 6.35 3.15c.8 1.15 1.15 2.15 1.3 3.95zm42.201-6.15c-2.25-3-4.8-4.35-8.3-4.35-6.35 0-10.95 5.1-10.95 12.15 0 7 4.5 12 10.85 12 3.5 0 6.1-1.55 8.4-5v4.45h3.8v-23.05h-3.8zm-7.75-.95c4.6 0 7.8 3.45 7.8 8.45 0 4.95-3.55 9-7.9 9-4.2 0-7.4-3.7-7.4-8.6 0-2.25.7-4.45 1.9-6.1 1.35-1.9 3.1-2.75 5.6-2.75zm36.457.65c-2.25-2.8-4.85-4.05-8.25-4.05-6.25 0-10.85 5.2-10.85 12.2s4.5 11.95 10.85 11.95c3.5 0 5.95-1.35 8.25-4.5v3.95h3.8v-33.35h-3.8zm-7.45-.65c4.4 0 7.45 3.55 7.45 8.75 0 5-3.25 8.7-7.7 8.7-4.35 0-7.4-3.55-7.4-8.6 0-5.25 3.1-8.85 7.65-8.85zm40.311 9.9c.05-.55.05-1.2.05-1.5 0-6.75-5-11.8-11.7-11.8-6.75 0-11.6 5.05-11.6 12.15 0 7 4.9 12 11.75 12 4.4 0 8.35-2.35 10.25-6.2l-3.35-1.25c-1.35 2.4-4.05 3.95-6.9 3.95-2.5 0-4.7-1.1-6.2-3.15-.95-1.25-1.3-2.25-1.5-4.2zm-19.15-2.8c.3-1.85.6-2.8 1.3-3.9 1.35-2 3.65-3.2 6.2-3.2s4.9 1.2 6.35 3.15c.8 1.15 1.15 2.15 1.3 3.95zm24.703-9.95v23.05h3.8v-11.7c0-2.65.35-4 1.35-5.45 1.15-1.7 2.95-2.65 5-2.65.25 0 .65 0 1.05.05v-3.85h-.9c-1.65 0-3.25.5-4.4 1.4-.9.7-1.4 1.4-2.1 3.05v-3.9z"/><path d="m941.15 709.65v33.35h9.4c4.2 0 6.35-.45 8.3-1.7 2.25-1.45 3.6-4.15 3.6-7.25 0-2.7-.95-4.95-2.75-6.4-1.05-.8-1.95-1.15-3.8-1.55 1.8-.7 2.6-1.2 3.4-2.15 1.25-1.4 1.9-3.3 1.9-5.45 0-5.65-3.85-8.85-10.65-8.85zm4.2 3.45h3.45c3.05 0 4.45.2 5.65.8 1.6.75 2.65 2.65 2.65 4.8 0 1.85-.75 3.55-2.05 4.6-1.2.95-2.8 1.3-5.45 1.3l-4.25.05zm0 14.95h5.25c5.3 0 7.65 1.75 7.65 5.75 0 2.2-.8 3.8-2.4 4.7-1.45.85-2.8 1.1-6.3 1.1h-4.2zm32.939-8.65c-7 0-11.8 4.9-11.8 12.05 0 7.1 4.8 12.1 11.65 12.1 6.6 0 11.8-5.25 11.8-12 0-7.1-4.85-12.15-11.65-12.15zm0 3.5c4.65 0 7.75 3.45 7.75 8.6 0 5-3.25 8.55-7.8 8.55-4.7 0-7.85-3.45-7.85-8.55 0-5.15 3.15-8.6 7.9-8.6zm34.691.55c-2.25-2.8-4.85-4.05-8.25-4.05-6.248 0-10.848 5.2-10.848 12.2s4.5 11.95 10.848 11.95c3.5 0 5.95-1.35 8.25-4.5v3.95h3.8v-33.35h-3.8zm-7.45-.65c4.4 0 7.45 3.55 7.45 8.75 0 5-3.25 8.7-7.7 8.7-4.35 0-7.398-3.55-7.398-8.6 0-5.25 3.098-8.85 7.648-8.85zm25.52 14.25-6.2-17.1h-4.05l8.2 22.35-4.8 11.8h4.15l13.75-34.15h-4.15z"/></g><path d="m134 201h159v159h-159z" fill="#2566b4"/><path d="m368.8 272.77h-6.65l.91-6.58h7.21l.07-3.57h-6.79l1.89-13.72h-3.5l-2.03 13.72h-6.09l1.89-13.72h-3.64l-1.96 13.72h-7.7v3.57h7.21l-.91 6.58h-7.98v3.5h7.42l-2.03 14.84h3.64l2.03-14.84h6.23l-2.1 14.84h3.57l2.1-14.84h7.21zm-9.17-6.72-1.05 6.86h-6.37l.91-6.86zm26.11 21.84 12.53-17.43c3.92-5.46 5.32-8.89 5.32-12.81 0-6.79-5.32-11.55-12.95-11.55-8.33 0-13.02 4.9-13.3 13.79h5.25c.07-2.45.28-3.5.84-4.83 1.05-2.45 3.64-3.92 6.79-3.92 4.55 0 7.77 2.87 7.77 6.93 0 2.8-1.05 4.9-5.74 11.69l-16.24 23.24h26.18v-5.11zm48.16-41.58h-20.3v26.39c3.01-3.08 6.72-4.76 10.36-4.76 6.16 0 10.36 3.99 10.36 9.94 0 5.74-4.27 10.08-9.87 10.08-2.59 0-5.18-.91-6.65-2.38-.77-.7-1.26-1.54-2.38-3.57l-5.04 1.89c2.38 6.16 7.35 9.59 13.93 9.59 9.17 0 15.75-6.51 15.75-15.47 0-8.75-6.16-15.19-14.35-15.19-2.38 0-4.48.42-6.86 1.33v-12.53h15.05zm35.14.7h-6.51l-13.37 21.49c-2.66 4.27-3.57 6.86-3.57 10.29 0 8.47 6.44 15.05 14.77 15.05 8.26 0 15.05-6.79 15.05-15.05 0-7.91-6.02-14-13.79-14-1.68 0-2.59.21-4.55.91zm-8.4 22.54c5.18 0 9.31 4.2 9.31 9.45 0 5.32-4.2 9.59-9.45 9.59s-9.38-4.34-9.38-9.8c0-5.18 4.2-9.24 9.52-9.24zm43.4-22.54h-6.51l-13.37 21.49c-2.66 4.27-3.57 6.86-3.57 10.29 0 8.47 6.44 15.05 14.77 15.05 8.26 0 15.05-6.79 15.05-15.05 0-7.91-6.02-14-13.79-14-1.68 0-2.59.21-4.55.91zm-8.4 22.54c5.18 0 9.31 4.2 9.31 9.45 0 5.32-4.2 9.59-9.45 9.59s-9.38-4.34-9.38-9.8c0-5.18 4.2-9.24 9.52-9.24zm23.17-23.24v46.69h13.16c5.88 0 8.89-.63 11.62-2.38 3.15-2.03 5.04-5.81 5.04-10.15 0-3.78-1.33-6.93-3.85-8.96-1.47-1.12-2.73-1.61-5.32-2.17 2.52-.98 3.64-1.68 4.76-3.01 1.75-1.96 2.66-4.62 2.66-7.63 0-7.91-5.39-12.39-14.91-12.39zm5.88 4.83h4.83c4.27 0 6.23.28 7.91 1.12 2.24 1.05 3.71 3.71 3.71 6.72 0 2.59-1.05 4.97-2.87 6.44-1.68 1.33-3.92 1.82-7.63 1.82l-5.95.07zm0 20.93h7.35c7.42 0 10.71 2.45 10.71 8.05 0 3.08-1.12 5.32-3.36 6.58-2.03 1.19-3.92 1.54-8.82 1.54h-5.88zm48.285 10.43v10.5h5.39v-10.5h5.46v-5.04h-5.46v-31.78l-24.08 32.48v4.34zm0-5.04h-13.09l13.09-17.85z" fill="#262323"/><path d="m134 460h159v159h-159z" fill="#262323"/><path d="m368.8 531.77h-6.65l.91-6.58h7.21l.07-3.57h-6.79l1.89-13.72h-3.5l-2.03 13.72h-6.09l1.89-13.72h-3.64l-1.96 13.72h-7.7v3.57h7.21l-.91 6.58h-7.98v3.5h7.42l-2.03 14.84h3.64l2.03-14.84h6.23l-2.1 14.84h3.57l2.1-14.84h7.21zm-9.17-6.72-1.05 6.86h-6.37l.91-6.86zm26.11 21.84 12.53-17.43c3.92-5.46 5.32-8.89 5.32-12.81 0-6.79-5.32-11.55-12.95-11.55-8.33 0-13.02 4.9-13.3 13.79h5.25c.07-2.45.28-3.5.84-4.83 1.05-2.45 3.64-3.92 6.79-3.92 4.55 0 7.77 2.87 7.77 6.93 0 2.8-1.05 4.9-5.74 11.69l-16.24 23.24h26.18v-5.11zm48.3-40.88h-6.51l-13.37 21.49c-2.66 4.27-3.57 6.86-3.57 10.29 0 8.47 6.44 15.05 14.77 15.05 8.26 0 15.05-6.79 15.05-15.05 0-7.91-6.02-14-13.79-14-1.68 0-2.59.21-4.55.91zm-8.4 22.54c5.18 0 9.31 4.2 9.31 9.45 0 5.32-4.2 9.59-9.45 9.59s-9.38-4.34-9.38-9.8c0-5.18 4.2-9.24 9.52-9.24zm30.1 18.34 12.53-17.43c3.92-5.46 5.32-8.89 5.32-12.81 0-6.79-5.32-11.55-12.95-11.55-8.33 0-13.02 4.9-13.3 13.79h5.25c.07-2.45.28-3.5.84-4.83 1.05-2.45 3.64-3.92 6.79-3.92 4.55 0 7.77 2.87 7.77 6.93 0 2.8-1.05 4.9-5.74 11.69l-16.24 23.24h26.18v-5.11zm43.61-35.84-13.51 16.94 2.31 2.03c2.03-1.19 3.43-1.61 5.6-1.61 6.09 0 10.29 3.92 10.29 9.52 0 5.46-4.48 9.73-10.15 9.73-4.34 0-7.63-2.52-8.89-7l-5.04.91c1.61 7.07 6.86 11.2 14.21 11.2 8.89 0 15.47-6.51 15.47-15.26 0-8.26-5.74-14.07-13.86-14.07l13.72-17.43h-26.46v5.04zm26.39 35.84 12.53-17.43c3.92-5.46 5.32-8.89 5.32-12.81 0-6.79-5.32-11.55-12.95-11.55-8.33 0-13.02 4.9-13.3 13.79h5.25c.07-2.45.28-3.5.84-4.83 1.05-2.45 3.64-3.92 6.79-3.92 4.55 0 7.77 2.87 7.77 6.93 0 2.8-1.05 4.9-5.74 11.69l-16.24 23.24h26.18v-5.11zm43.61-35.84-13.51 16.94 2.31 2.03c2.03-1.19 3.43-1.61 5.6-1.61 6.09 0 10.29 3.92 10.29 9.52 0 5.46-4.48 9.73-10.15 9.73-4.34 0-7.63-2.52-8.89-7l-5.04.91c1.61 7.07 6.86 11.2 14.21 11.2 8.89 0 15.47-6.51 15.47-15.26 0-8.26-5.74-14.07-13.86-14.07l13.72-17.43h-26.46v5.04z" fill="#262323"/><path d="m733 201h159v159h-159z" fill="#cfff00"/><path d="m967.8 287.77h-6.65l.91-6.58h7.21l.07-3.57h-6.79l1.89-13.72h-3.5l-2.03 13.72h-6.09l1.89-13.72h-3.64l-1.96 13.72h-7.7v3.57h7.21l-.91 6.58h-7.98v3.5h7.42l-2.03 14.84h3.64l2.03-14.84h6.23l-2.1 14.84h3.57l2.1-14.84h7.21zm-9.17-6.72-1.05 6.86h-6.37l.91-6.86zm51.87 15.96c-3.64 4.41-7.56 6.44-12.67 6.44-9.66 0-16.73-7.91-16.73-18.76 0-10.92 6.93-18.83 16.45-18.83 4.97 0 8.4 1.68 12.95 6.37l4.06-3.78c-2.31-2.52-3.57-3.64-5.46-4.83-3.36-2.03-7.49-3.15-11.69-3.15-12.88 0-22.33 10.22-22.33 24.22 0 6.51 2.31 12.88 6.23 17.29 3.99 4.48 9.52 6.86 16.03 6.86 7.21 0 12.39-2.38 17.08-7.91zm17.28-30.66h18.2v-5.04h-24.08v46.69h5.88v-21h18.2v-5.04h-18.2zm31.93 0h18.2v-5.04h-24.08v46.69h5.88v-21h18.2v-5.04h-18.2zm31.92 0h18.2v-5.04h-24.08v46.69h5.88v-21h18.2v-5.04h-18.2zm51.59 9.03c0-5.46-.98-8.26-3.64-10.71-2.59-2.31-6.09-3.5-10.36-3.5-4.76 0-8.61 1.54-10.92 4.34-2.1 2.52-2.8 5.39-2.8 11.48v15.4c0 7.07.63 9.73 3.08 12.32 2.45 2.66 6.23 4.06 10.78 4.06 4.41 0 8.12-1.33 10.57-3.92 2.31-2.45 3.29-5.67 3.29-10.92zm-22.19 1.75c0-4.06.28-5.67 1.47-7.35 1.33-2.17 3.92-3.36 6.93-3.36 2.31 0 4.41.77 5.95 2.17 1.75 1.68 2.38 3.5 2.38 7.14v17.85c0 3.43-.42 5.39-1.47 6.93-1.33 1.89-3.99 3.08-6.86 3.08-2.66 0-5.18-1.05-6.65-2.73-1.54-1.75-1.75-2.73-1.75-8.12zm57.19-1.75c0-5.46-.98-8.26-3.64-10.71-2.59-2.31-6.09-3.5-10.36-3.5-4.76 0-8.61 1.54-10.92 4.34-2.1 2.52-2.8 5.39-2.8 11.48v15.4c0 7.07.63 9.73 3.08 12.32 2.45 2.66 6.23 4.06 10.78 4.06 4.41 0 8.12-1.33 10.57-3.92 2.31-2.45 3.29-5.67 3.29-10.92zm-22.19 1.75c0-4.06.28-5.67 1.47-7.35 1.33-2.17 3.92-3.36 6.93-3.36 2.31 0 4.41.77 5.95 2.17 1.75 1.68 2.38 3.5 2.38 7.14v17.85c0 3.43-.42 5.39-1.47 6.93-1.33 1.89-3.99 3.08-6.86 3.08-2.66 0-5.18-1.05-6.65-2.73-1.54-1.75-1.75-2.73-1.75-8.12z" fill="#262323"/><path d="m733.5 460.5h158v158h-158z" fill="#fff" stroke="#262323"/><path d="m967.8 546.77h-6.65l.91-6.58h7.21l.07-3.57h-6.79l1.89-13.72h-3.5l-2.03 13.72h-6.09l1.89-13.72h-3.64l-1.96 13.72h-7.7v3.57h7.21l-.91 6.58h-7.98v3.5h7.42l-2.03 14.84h3.64l2.03-14.84h6.23l-2.1 14.84h3.57l2.1-14.84h7.21zm-9.17-6.72-1.05 6.86h-6.37l.91-6.86zm25.06-14.7h18.2v-5.04h-24.08v46.69h5.88v-21h18.2v-5.04h-18.2zm31.92 0h18.2v-5.04h-24.08v46.69h5.88v-21h18.2v-5.04h-18.2zm31.93 0h18.2v-5.04h-24.08v46.69h5.88v-21h18.2v-5.04h-18.2zm31.92 0h18.2v-5.04h-24.08v46.69h5.88v-21h18.2v-5.04h-18.2zm31.93 0h18.2v-5.04h-24.08v46.69h5.88v-21h18.2v-5.04h-18.2zm31.92 0h18.2v-5.04h-24.08v46.69h5.88v-21h18.2v-5.04h-18.2z" fill="#262323"/><path d="m1332 201h159v159h-159z" fill="#ff800c"/><path d="m1566.8 287.77h-6.65l.91-6.58h7.21l.07-3.57h-6.79l1.89-13.72h-3.5l-2.03 13.72h-6.09l1.89-13.72h-3.64l-1.96 13.72h-7.7v3.57h7.21l-.91 6.58h-7.98v3.5h7.42l-2.03 14.84h3.64l2.03-14.84h6.23l-2.1 14.84h3.57l2.1-14.84h7.21zm-9.17-6.72-1.05 6.86h-6.37l.91-6.86zm25.06-14.7h18.2v-5.04h-24.08v46.69h5.88v-21h18.2v-5.04h-18.2zm31.92 0h18.2v-5.04h-24.08v46.69h5.88v-21h18.2v-5.04h-18.2zm43.34 16.31c2.38-.84 3.36-1.47 4.62-2.87 1.68-1.96 2.59-4.48 2.59-7.14 0-6.65-5.32-11.48-12.67-11.48-7.42 0-12.88 4.9-12.88 11.55 0 2.59.84 4.97 2.38 6.86 1.26 1.54 2.31 2.24 4.76 3.08-2.8.91-3.99 1.61-5.46 3.15-2.24 2.31-3.5 5.67-3.5 9.38 0 7.98 5.95 13.65 14.42 13.65 8.54 0 14.63-5.88 14.63-14.14 0-3.64-1.19-6.72-3.5-9.03-1.47-1.54-2.73-2.17-5.39-3.01zm-5.46-16.59c3.99 0 7.42 3.15 7.42 6.79 0 3.78-3.57 7.07-7.56 7.07-4.13 0-7.42-3.15-7.42-7.14 0-3.92 3.08-6.72 7.56-6.72zm-.07 19.53c4.83 0 8.82 4.13 8.82 9.03 0 4.97-3.99 9.03-8.96 9.03s-8.96-4.06-8.96-9.03c0-5.04 4.06-9.03 9.1-9.03zm48.79-10.22c0-5.46-.98-8.26-3.64-10.71-2.59-2.31-6.09-3.5-10.36-3.5-4.76 0-8.61 1.54-10.92 4.34-2.1 2.52-2.8 5.39-2.8 11.48v15.4c0 7.07.63 9.73 3.08 12.32 2.45 2.66 6.23 4.06 10.78 4.06 4.41 0 8.12-1.33 10.57-3.92 2.31-2.45 3.29-5.67 3.29-10.92zm-22.19 1.75c0-4.06.28-5.67 1.47-7.35 1.33-2.17 3.92-3.36 6.93-3.36 2.31 0 4.41.77 5.95 2.17 1.75 1.68 2.38 3.5 2.38 7.14v17.85c0 3.43-.42 5.39-1.47 6.93-1.33 1.89-3.99 3.08-6.86 3.08-2.66 0-5.18-1.05-6.65-2.73-1.54-1.75-1.75-2.73-1.75-8.12zm57.19-1.75c0-5.46-.98-8.26-3.64-10.71-2.59-2.31-6.09-3.5-10.36-3.5-4.76 0-8.61 1.54-10.92 4.34-2.1 2.52-2.8 5.39-2.8 11.48v15.4c0 7.07.63 9.73 3.08 12.32 2.45 2.66 6.23 4.06 10.78 4.06 4.41 0 8.12-1.33 10.57-3.92 2.31-2.45 3.29-5.67 3.29-10.92zm-22.19 1.75c0-4.06.28-5.67 1.47-7.35 1.33-2.17 3.92-3.36 6.93-3.36 2.31 0 4.41.77 5.95 2.17 1.75 1.68 2.38 3.5 2.38 7.14v17.85c0 3.43-.42 5.39-1.47 6.93-1.33 1.89-3.99 3.08-6.86 3.08-2.66 0-5.18-1.05-6.65-2.73-1.54-1.75-1.75-2.73-1.75-8.12zm64.33 19.88c-3.64 4.41-7.56 6.44-12.67 6.44-9.66 0-16.73-7.91-16.73-18.76 0-10.92 6.93-18.83 16.45-18.83 4.97 0 8.4 1.68 12.95 6.37l4.06-3.78c-2.31-2.52-3.57-3.64-5.46-4.83-3.36-2.03-7.49-3.15-11.69-3.15-12.88 0-22.33 10.22-22.33 24.22 0 6.51 2.31 12.88 6.23 17.29 3.99 4.48 9.52 6.86 16.03 6.86 7.21 0 12.39-2.38 17.08-7.91z" fill="#262323"/></svg>