<svg viewBox="0 0 322.47825 298.86953" xmlns="http://www.w3.org/2000/svg"><circle cx="161.23912" cy="149.43476" fill="#cfff00" r="143.61708" stroke="#262323" stroke-miterlimit="10" stroke-width="2"/><path d="m55.65992 76.89932c6.42762-6.67526 14.17808-5.61557 26.27108-12.23432 11.671-6.37881 20.057-16.38327 27.229-19.09872 5.787-2.17539 12.80969 2.94223 12.812 22.5115.02124 18.10559-6.91065 39.7677-17.52893 41.191-8.33655 1.1131-16.08509-9.16711-23.801-6.43665-5.6383 1.94251-10.662 10.28278-10.65991 18.56135.02295 5.52307 2.824 15.37542 10.33874 14.82409 6.39124-.50711 15.43567-7.36575 22.9076-8.11987 7.80432-.76019 12.84485 7.63135 12.83374 22.6687.005 18.9469-5.72693 25.40417-12.48719 24.6709-7.47241-.84119-16.20507-8.33319-22.933-8.95215-11.786-1.20193-13.31482 4.52573-13.38806 10.43124-.18079 11.20209 15.48083 19.21448 15.64819 41.76432.19776 13.65918-2.1289 28.77673-19.65967 13.70025-12.55866-11.83073-17.75764-26.10245-17.84051-36.46262-.03113-12.96036 4.64758-16.3779 4.67871-54.507-.0437-29.6965-5.60938-26.02634-5.56384-37.86591.01219-6.61592 4.45458-19.57772 11.14305-26.64611z"/><path d="m171.64479 63.00806c.00464 18.90964-10.37378 42.25894-10.37635 76.6586.00086 49.31622 8.89759 64.79541 8.89551 87.24731.00708 19.46625-5.196 36.63324-21.12317 35.65442-17.01184-1.62036-23.26111-15.79358-23.27881-34.2121-.0205-26.78527 10.36719-35.85223 10.38526-70.07415-.01953-60.5405-10.95-66.5026-10.92822-89.89527.022-20.19809 5.52685-34.71658 23.267-36.60763 17.59493-1.17847 23.16671 11.19576 23.15878 31.22882z"/><path d="m176.4496 251.2092c-.00037-5.05548.7406-9.5329 4.05468-16.4491 5.33753-11.55658 7.70569-31.12964 7.70752-90.20123-.001-45.98852-3.28662-69.71576-8.07556-81.551a41.88694 41.88694 0 0 1 -3.3175-15.12787c-.00428-7.56119 2.778-13.6857 8.82983-12.69776 3.11682.5123 6.21545 3.01358 8.57459 7.21692 8.32458 14.78021 9.93322 21.65137 17.0133 23.52646 12.3 2.89639 25.1958-14.96811 39.5365-3.325 12.31641 9.78448 18.61011 22.5943 22.238 36.028 3.56164 13.76059 4.45788 28.14512 4.45263 48.62531-.021 21.52115-2.02172 38.37222-6.29687 53.93478-4.29163 15.19962-10.858 29.11072-20.3938 36.37079-11.2 8.98407-22.60425 1.00311-25.66589-2.83935-1.86182-2.22132-8.21167-10.38309-14.22339-9.05628-11.21 2.28006-8.28418 35.7041-24.86853 39.1015-7.15211 1.16691-9.57003-8.84883-9.56551-13.55617zm30.53674-149.988c.00146 9.58713 2.48486 22.92685 2.48364 38.28363.00147 15.06192-2.30395 28.52433-2.30566 38.70337-.02759 11.03623 2.74389 20.09635 12.97119 18.15418 14.09912-3.30918 19.05054-28.82944 19.10486-53.1453-.05261-32.02813-5.49158-50.45446-19.796-54.51287-9.01907-2.22321-12.47854 2.0732-12.45803 12.51701z"/></svg>