<svg width="1920" height="1080" viewBox="0 0 1920 1080" fill="none" xmlns="http://www.w3.org/2000/svg">
<rect width="1920" height="1080" fill="white"/>
<path d="M148.64 815.96V801.88H156.08C161.52 801.88 163.84 804.6 163.84 808.92C163.84 813.24 161.52 815.96 156.08 815.96H148.64ZM177.76 808.92C177.76 798.6 170.88 790.84 157.12 790.84H134.96V847H148.64V826.84H157.12C171.44 826.84 177.76 818.2 177.76 808.92ZM228.562 824.68C228.562 810.52 218.482 801.72 205.362 801.72C192.322 801.72 182.162 810.52 182.162 824.68C182.162 838.84 192.082 847.64 205.202 847.64C218.322 847.64 228.562 838.84 228.562 824.68ZM196.082 824.68C196.082 817.08 200.402 813.56 205.362 813.56C210.162 813.56 214.642 817.08 214.642 824.68C214.642 832.2 210.082 835.8 205.202 835.8C200.242 835.8 196.082 832.2 196.082 824.68ZM249.499 808.68V802.36H235.819V868.28H249.499V840.76C251.979 844.52 256.699 847.64 263.259 847.64C274.219 847.64 282.939 838.68 282.939 824.6C282.939 810.52 274.219 801.72 263.259 801.72C256.699 801.72 251.979 804.76 249.499 808.68ZM269.019 824.6C269.019 831.72 264.379 835.72 259.179 835.72C254.059 835.72 249.419 831.8 249.419 824.68C249.419 817.56 254.059 813.64 259.179 813.64C264.379 813.64 269.019 817.48 269.019 824.6ZM303.796 808.68V802.36H290.116V868.28H303.796V840.76C306.276 844.52 310.996 847.64 317.556 847.64C328.516 847.64 337.236 838.68 337.236 824.6C337.236 810.52 328.516 801.72 317.556 801.72C310.996 801.72 306.276 804.76 303.796 808.68ZM323.316 824.6C323.316 831.72 318.676 835.72 313.476 835.72C308.356 835.72 303.716 831.8 303.716 824.68C303.716 817.56 308.356 813.64 313.476 813.64C318.676 813.64 323.316 817.48 323.316 824.6ZM344.413 847H358.093V802.36H344.413V847ZM351.293 797.72C356.093 797.72 359.373 794.44 359.373 790.36C359.373 786.2 356.093 782.92 351.293 782.92C346.413 782.92 343.133 786.2 343.133 790.36C343.133 794.44 346.413 797.72 351.293 797.72ZM398.807 847H412.407V820.92C412.407 808.92 405.527 801.88 395.207 801.88C389.207 801.88 384.407 804.52 381.687 808.28V802.36H368.007V847H381.687V822.76C381.687 816.68 385.047 813.32 390.247 813.32C395.447 813.32 398.807 816.68 398.807 822.76V847ZM458.153 834.04C457.913 817.4 433.753 822.44 433.753 815.32C433.753 813.16 435.513 811.88 438.713 811.88C442.553 811.88 444.873 813.88 445.273 816.92H457.913C457.033 808.12 450.633 801.72 439.113 801.72C427.433 801.72 420.953 807.96 420.953 815.56C420.953 831.96 445.273 826.76 445.273 833.96C445.273 835.96 443.433 837.56 439.913 837.56C436.153 837.56 433.353 835.48 433.033 832.36H419.513C420.153 841 428.153 847.64 440.073 847.64C451.273 847.64 458.153 841.8 458.153 834.04ZM514.436 829.88C514.436 833.88 511.796 835.96 507.236 835.96H497.156V823.56H507.076C511.636 823.56 514.436 825.88 514.436 829.88ZM513.076 807.72C513.076 811.56 510.596 813.56 506.116 813.56H497.156V801.8H506.116C510.596 801.8 513.076 803.88 513.076 807.72ZM528.276 831.72C528.276 825.32 524.036 819.56 517.476 818.2C522.916 816.6 526.996 812.2 526.996 805.4C526.996 796.52 520.196 790.84 508.756 790.84H483.476V847H509.636C521.476 847 528.276 841 528.276 831.72ZM579.89 824.68C579.89 810.52 569.81 801.72 556.69 801.72C543.65 801.72 533.49 810.52 533.49 824.68C533.49 838.84 543.41 847.64 556.53 847.64C569.65 847.64 579.89 838.84 579.89 824.68ZM547.41 824.68C547.41 817.08 551.73 813.56 556.69 813.56C561.49 813.56 565.97 817.08 565.97 824.68C565.97 832.2 561.41 835.8 556.53 835.8C551.57 835.8 547.41 832.2 547.41 824.68ZM587.148 847H600.828V787.8H587.148V847ZM608.021 824.6C608.021 838.68 616.741 847.64 627.701 847.64C634.261 847.64 638.981 844.68 641.461 840.6V847H655.141V787.8H641.461V808.52C638.741 804.44 633.621 801.72 627.701 801.72C616.741 801.72 608.021 810.52 608.021 824.6ZM641.461 824.68C641.461 831.8 636.901 835.72 631.701 835.72C626.581 835.72 621.941 831.72 621.941 824.6C621.941 817.48 626.581 813.64 631.701 813.64C636.901 813.64 641.461 817.56 641.461 824.68Z" fill="#262323"/>
<path d="M943.64 844H956.6C964.36 844 970.52 842 975.16 837.84C980.6 832.96 983.56 825.52 983.56 816.48C983.56 800.4 973.88 790.64 957.8 790.64H943.64V844ZM950.36 796.32H957.56C969.8 796.32 976.68 803.68 976.68 816.56C976.68 824.48 974.28 830.4 969.48 834.24C965.64 837.28 961.8 838.24 952.76 838.24H950.36V796.32ZM1000.44 790.64H993.718V844H1000.44V790.64ZM1020.44 803.2L1049.16 844H1055.08V790.64H1048.36V830.8L1019.88 790.64H1013.72V844H1020.44V803.2ZM1099.03 803.2L1127.75 844H1133.67V790.64H1126.95V830.8L1098.47 790.64H1092.31V844H1099.03V803.2ZM1180.68 827.52C1180.76 826.64 1180.76 825.6 1180.76 825.12C1180.76 814.32 1172.76 806.24 1162.04 806.24C1151.24 806.24 1143.48 814.32 1143.48 825.68C1143.48 836.88 1151.32 844.88 1162.28 844.88C1169.32 844.88 1175.64 841.12 1178.68 834.96L1173.32 832.96C1171.16 836.8 1166.84 839.28 1162.28 839.28C1158.28 839.28 1154.76 837.52 1152.36 834.24C1150.84 832.24 1150.28 830.64 1149.96 827.52H1180.68ZM1150.04 823.04C1150.52 820.08 1151 818.56 1152.12 816.8C1154.28 813.6 1157.96 811.68 1162.04 811.68C1166.12 811.68 1169.88 813.6 1172.2 816.72C1173.48 818.56 1174.04 820.16 1174.28 823.04H1150.04ZM1211 807.12V830.72C1211 833.68 1210.6 835.2 1209.4 836.64C1207.88 838.4 1205.4 839.44 1202.84 839.44C1197.96 839.44 1194.6 835.76 1194.6 830.56V807.12H1188.52V830.72C1188.52 835.2 1189.72 838.56 1192.2 840.96C1194.84 843.44 1198.68 844.88 1202.84 844.88C1207 844.88 1210.76 843.52 1213.48 841.04C1216.2 838.56 1217.16 835.76 1217.16 830.72V807.12H1211ZM1232.98 838.64L1251.94 807.12H1224.82V812.48H1241.94L1222.74 844H1249.94V838.64H1232.98ZM1291.54 827.52C1291.62 826.64 1291.62 825.6 1291.62 825.12C1291.62 814.32 1283.62 806.24 1272.9 806.24C1262.1 806.24 1254.34 814.32 1254.34 825.68C1254.34 836.88 1262.18 844.88 1273.14 844.88C1280.18 844.88 1286.5 841.12 1289.54 834.96L1284.18 832.96C1282.02 836.8 1277.7 839.28 1273.14 839.28C1269.14 839.28 1265.62 837.52 1263.22 834.24C1261.7 832.24 1261.14 830.64 1260.82 827.52H1291.54ZM1260.9 823.04C1261.38 820.08 1261.86 818.56 1262.98 816.8C1265.14 813.6 1268.82 811.68 1272.9 811.68C1276.98 811.68 1280.74 813.6 1283.06 816.72C1284.34 818.56 1284.9 820.16 1285.14 823.04H1260.9ZM1306.5 807.12H1300.42V844H1306.5V807.12ZM1303.54 792.8C1301.3 792.8 1299.62 794.48 1299.62 796.72C1299.62 798.96 1301.3 800.64 1303.46 800.64C1305.62 800.64 1307.38 798.96 1307.38 796.8C1307.38 794.56 1305.7 792.8 1303.54 792.8ZM1325.19 812.48H1330.79V807.12H1325.19V795.52H1319.11V807.12H1313.99V812.48H1319.11V838.24C1319.11 842.32 1320.79 843.92 1325.11 844H1330.79V838.72H1327.99C1325.75 838.72 1325.27 838.32 1325.19 836.48V812.48ZM1387.23 815.12V820.88H1405.79C1405.23 825.52 1404.43 828.16 1402.35 830.96C1399.07 835.68 1392.91 838.8 1386.99 838.8C1376.11 838.8 1367.71 829.44 1367.71 817.36C1367.71 805.12 1376.11 795.84 1387.15 795.84C1390.99 795.84 1394.75 797.04 1397.71 799.2C1399.15 800.16 1400.11 801.12 1402.19 803.44L1407.23 799.36C1402.19 793.04 1395.23 789.68 1387.15 789.68C1371.87 789.68 1360.83 801.28 1360.83 817.44C1360.83 833.36 1371.95 844.96 1387.15 844.96C1395.23 844.96 1402.11 841.6 1407.23 835.2C1411.15 830.24 1412.75 825.28 1412.75 818.16C1412.75 817.68 1412.75 816.24 1412.67 815.12H1387.23ZM1421.99 807.12V844H1428.07V825.28C1428.07 821.04 1428.63 818.88 1430.23 816.56C1432.07 813.84 1434.95 812.32 1438.23 812.32C1438.63 812.32 1439.27 812.32 1439.91 812.4V806.24H1438.47C1435.83 806.24 1433.27 807.04 1431.43 808.48C1429.99 809.6 1429.19 810.72 1428.07 813.36V807.12H1421.99ZM1462.05 806.24C1450.85 806.24 1443.17 814.08 1443.17 825.52C1443.17 836.88 1450.85 844.88 1461.81 844.88C1472.37 844.88 1480.69 836.48 1480.69 825.68C1480.69 814.32 1472.93 806.24 1462.05 806.24ZM1462.05 811.84C1469.49 811.84 1474.45 817.36 1474.45 825.6C1474.45 833.6 1469.25 839.28 1461.97 839.28C1454.45 839.28 1449.41 833.76 1449.41 825.6C1449.41 817.36 1454.45 811.84 1462.05 811.84ZM1496.04 812.48H1501.64V807.12H1496.04V795.52H1489.96V807.12H1484.84V812.48H1489.96V838.24C1489.96 842.32 1491.64 843.92 1495.96 844H1501.64V838.72H1498.84C1496.6 838.72 1496.12 838.32 1496.04 836.48V812.48ZM1543.8 827.52C1543.88 826.64 1543.88 825.6 1543.88 825.12C1543.88 814.32 1535.88 806.24 1525.16 806.24C1514.36 806.24 1506.6 814.32 1506.6 825.68C1506.6 836.88 1514.44 844.88 1525.4 844.88C1532.44 844.88 1538.76 841.12 1541.8 834.96L1536.44 832.96C1534.28 836.8 1529.96 839.28 1525.4 839.28C1521.4 839.28 1517.88 837.52 1515.48 834.24C1513.96 832.24 1513.4 830.64 1513.08 827.52H1543.8ZM1513.16 823.04C1513.64 820.08 1514.12 818.56 1515.24 816.8C1517.4 813.6 1521.08 811.68 1525.16 811.68C1529.24 811.68 1533 813.6 1535.32 816.72C1536.6 818.56 1537.16 820.16 1537.4 823.04H1513.16ZM1575.65 817.2C1575.33 810.24 1570.61 806.24 1562.77 806.24C1555.01 806.24 1549.81 810.56 1549.81 816.96C1549.81 822.56 1553.41 825.92 1561.41 828.08C1567.73 829.68 1569.81 831.28 1569.81 834.48C1569.81 837.76 1567.09 839.92 1562.93 839.92C1558.29 839.92 1555.57 837.68 1555.17 833.52H1549.17C1549.81 840.96 1554.53 844.88 1562.93 844.88C1570.77 844.88 1576.05 840.56 1576.05 834.16C1576.05 831.44 1574.93 828.8 1573.09 826.96C1571.33 825.2 1568.85 824 1564.13 822.72C1557.49 820.88 1555.89 819.68 1555.89 816.48C1555.89 813.28 1558.45 811.2 1562.53 811.2C1566.77 811.2 1569.57 813.36 1569.57 816.8V817.2H1575.65ZM1591.19 827.52L1605.91 844H1613.51L1597.11 825.12L1613.59 807.12H1605.91L1591.19 823.28V790.64H1585.11V844H1591.19V827.52ZM1651.92 837.92V790.64H1645.2V844H1670.72V837.92H1651.92ZM1684.16 807.12H1678.08V844H1684.16V807.12ZM1681.2 792.8C1678.96 792.8 1677.28 794.48 1677.28 796.72C1677.28 798.96 1678.96 800.64 1681.12 800.64C1683.28 800.64 1685.04 798.96 1685.04 796.8C1685.04 794.56 1683.36 792.8 1681.2 792.8ZM1723.56 813.44C1719.8 808.32 1716.04 806.24 1710.44 806.24C1705.72 806.24 1701.72 807.68 1698.76 810.56C1695.08 814.08 1692.92 819.76 1692.92 825.68C1692.92 836.64 1700.2 844.88 1709.96 844.88C1715.72 844.88 1719.96 842.4 1723.56 836.96V844.72C1723.56 848.56 1722.6 851.52 1720.76 853.52C1718.68 855.76 1715 857.12 1711.16 857.12C1708.04 857.12 1704.6 856.24 1702.52 854.96C1701.48 854.24 1700.68 853.52 1699 851.76L1694.84 855.92C1698.84 860.4 1704.28 862.64 1711.16 862.64C1716.76 862.64 1721.48 860.96 1724.76 857.76C1728.12 854.56 1729.64 850.4 1729.64 844.24V807.12H1723.56V813.44ZM1711.56 811.84C1714.84 811.84 1718.28 813.44 1720.52 815.92C1722.68 818.32 1723.4 820.88 1723.4 825.68C1723.4 829.36 1722.36 832.96 1720.76 834.8C1718.36 837.6 1714.92 839.28 1711.4 839.28C1704.44 839.28 1699.32 833.36 1699.32 825.44C1699.32 817.44 1704.36 811.84 1711.56 811.84ZM1747.36 790.64H1741.28V844H1747.36V822.4C1747.36 818.88 1747.92 817.04 1749.76 814.96C1751.68 812.8 1754.16 811.68 1756.96 811.68C1761.36 811.68 1763.84 814.48 1763.84 819.52V844H1769.92V819.2C1769.92 814.48 1769.04 811.6 1767.04 809.6C1765.04 807.52 1761.68 806.24 1758.48 806.24C1754.08 806.24 1750.72 808.08 1747.36 812.24V790.64ZM1788.39 812.48H1793.99V807.12H1788.39V795.52H1782.31V807.12H1777.19V812.48H1782.31V838.24C1782.31 842.32 1783.99 843.92 1788.31 844H1793.99V838.72H1791.19C1788.95 838.72 1788.47 838.32 1788.39 836.48V812.48Z" fill="#262323"/>
<path d="M138.35 728.25H154.6V743H158.8V709.65H154.6V724.65H138.35V709.65H134.15V743H138.35V728.25ZM188.159 732.7C188.209 732.15 188.209 731.5 188.209 731.2C188.209 724.45 183.209 719.4 176.509 719.4C169.759 719.4 164.909 724.45 164.909 731.55C164.909 738.55 169.809 743.55 176.659 743.55C181.059 743.55 185.009 741.2 186.909 737.35L183.559 736.1C182.209 738.5 179.509 740.05 176.659 740.05C174.159 740.05 171.959 738.95 170.459 736.9C169.509 735.65 169.159 734.65 168.959 732.7H188.159ZM169.009 729.9C169.309 728.05 169.609 727.1 170.309 726C171.659 724 173.959 722.8 176.509 722.8C179.059 722.8 181.409 724 182.859 725.95C183.659 727.1 184.009 728.1 184.159 729.9H169.009ZM211.21 723.75C208.96 720.75 206.41 719.4 202.91 719.4C196.56 719.4 191.96 724.5 191.96 731.55C191.96 738.55 196.46 743.55 202.81 743.55C206.31 743.55 208.91 742 211.21 738.55V743H215.01V719.95H211.21V723.75ZM203.46 722.8C208.06 722.8 211.26 726.25 211.26 731.25C211.26 736.2 207.71 740.25 203.36 740.25C199.16 740.25 195.96 736.55 195.96 731.65C195.96 729.4 196.66 727.2 197.86 725.55C199.21 723.65 200.96 722.8 203.46 722.8ZM239.917 723.45C237.667 720.65 235.067 719.4 231.667 719.4C225.417 719.4 220.817 724.6 220.817 731.6C220.817 738.6 225.317 743.55 231.667 743.55C235.167 743.55 237.617 742.2 239.917 739.05V743H243.717V709.65H239.917V723.45ZM232.467 722.8C236.867 722.8 239.917 726.35 239.917 731.55C239.917 736.55 236.667 740.25 232.217 740.25C227.867 740.25 224.817 736.7 224.817 731.65C224.817 726.4 227.917 722.8 232.467 722.8ZM272.778 732.7C272.828 732.15 272.828 731.5 272.828 731.2C272.828 724.45 267.828 719.4 261.128 719.4C254.378 719.4 249.528 724.45 249.528 731.55C249.528 738.55 254.428 743.55 261.278 743.55C265.678 743.55 269.628 741.2 271.528 737.35L268.178 736.1C266.828 738.5 264.128 740.05 261.278 740.05C258.778 740.05 256.578 738.95 255.078 736.9C254.128 735.65 253.778 734.65 253.578 732.7H272.778ZM253.628 729.9C253.928 728.05 254.228 727.1 254.928 726C256.278 724 258.578 722.8 261.128 722.8C263.678 722.8 266.028 724 267.478 725.95C268.278 727.1 268.628 728.1 268.778 729.9H253.628ZM278.331 719.95V743H282.131V731.3C282.131 728.65 282.481 727.3 283.481 725.85C284.631 724.15 286.431 723.2 288.481 723.2C288.731 723.2 289.131 723.2 289.531 723.25V719.4H288.631C286.981 719.4 285.381 719.9 284.231 720.8C283.331 721.5 282.831 722.2 282.131 723.85V719.95H278.331Z" fill="#262323"/>
<path d="M941.15 709.65V743H950.55C954.75 743 956.9 742.55 958.85 741.3C961.1 739.85 962.45 737.15 962.45 734.05C962.45 731.35 961.5 729.1 959.7 727.65C958.65 726.85 957.75 726.5 955.9 726.1C957.7 725.4 958.5 724.9 959.3 723.95C960.55 722.55 961.2 720.65 961.2 718.5C961.2 712.85 957.35 709.65 950.55 709.65H941.15ZM945.35 713.1H948.8C951.85 713.1 953.25 713.3 954.45 713.9C956.05 714.65 957.1 716.55 957.1 718.7C957.1 720.55 956.35 722.25 955.05 723.3C953.85 724.25 952.25 724.6 949.6 724.6L945.35 724.65V713.1ZM945.35 728.05H950.6C955.9 728.05 958.25 729.8 958.25 733.8C958.25 736 957.45 737.6 955.85 738.5C954.4 739.35 953.05 739.6 949.55 739.6H945.35V728.05ZM978.289 719.4C971.289 719.4 966.489 724.3 966.489 731.45C966.489 738.55 971.289 743.55 978.139 743.55C984.739 743.55 989.939 738.3 989.939 731.55C989.939 724.45 985.089 719.4 978.289 719.4ZM978.289 722.9C982.939 722.9 986.039 726.35 986.039 731.5C986.039 736.5 982.789 740.05 978.239 740.05C973.539 740.05 970.389 736.6 970.389 731.5C970.389 726.35 973.539 722.9 978.289 722.9ZM1012.98 723.45C1010.73 720.65 1008.13 719.4 1004.73 719.4C998.482 719.4 993.882 724.6 993.882 731.6C993.882 738.6 998.382 743.55 1004.73 743.55C1008.23 743.55 1010.68 742.2 1012.98 739.05V743H1016.78V709.65H1012.98V723.45ZM1005.53 722.8C1009.93 722.8 1012.98 726.35 1012.98 731.55C1012.98 736.55 1009.73 740.25 1005.28 740.25C1000.93 740.25 997.882 736.7 997.882 731.65C997.882 726.4 1000.98 722.8 1005.53 722.8ZM1031.05 737.05L1024.85 719.95H1020.8L1029 742.3L1024.2 754.1H1028.35L1042.1 719.95H1037.95L1031.05 737.05Z" fill="#262323"/>
<rect x="134" y="201" width="159" height="159" fill="#2566B4"/>
<path d="M368.8 272.77H362.15L363.06 266.19H370.27L370.34 262.62H363.55L365.44 248.9H361.94L359.91 262.62H353.82L355.71 248.9H352.07L350.11 262.62H342.41V266.19H349.62L348.71 272.77H340.73V276.27H348.15L346.12 291.11H349.76L351.79 276.27H358.02L355.92 291.11H359.49L361.59 276.27H368.8V272.77ZM359.63 266.05L358.58 272.91H352.21L353.12 266.05H359.63ZM385.74 287.89L398.27 270.46C402.19 265 403.59 261.57 403.59 257.65C403.59 250.86 398.27 246.1 390.64 246.1C382.31 246.1 377.62 251 377.34 259.89H382.59C382.66 257.44 382.87 256.39 383.43 255.06C384.48 252.61 387.07 251.14 390.22 251.14C394.77 251.14 397.99 254.01 397.99 258.07C397.99 260.87 396.94 262.97 392.25 269.76L376.01 293H402.19V287.89H385.74ZM433.9 246.31H413.6V272.7C416.61 269.62 420.32 267.94 423.96 267.94C430.12 267.94 434.32 271.93 434.32 277.88C434.32 283.62 430.05 287.96 424.45 287.96C421.86 287.96 419.27 287.05 417.8 285.58C417.03 284.88 416.54 284.04 415.42 282.01L410.38 283.9C412.76 290.06 417.73 293.49 424.31 293.49C433.48 293.49 440.06 286.98 440.06 278.02C440.06 269.27 433.9 262.83 425.71 262.83C423.33 262.83 421.23 263.25 418.85 264.16V251.63H433.9V246.31ZM469.04 247.01H462.53L449.16 268.5C446.5 272.77 445.59 275.36 445.59 278.79C445.59 287.26 452.03 293.84 460.36 293.84C468.62 293.84 475.41 287.05 475.41 278.79C475.41 270.88 469.39 264.79 461.62 264.79C459.94 264.79 459.03 265 457.07 265.7L469.04 247.01ZM460.64 269.55C465.82 269.55 469.95 273.75 469.95 279C469.95 284.32 465.75 288.59 460.5 288.59C455.25 288.59 451.12 284.25 451.12 278.79C451.12 273.61 455.32 269.55 460.64 269.55ZM504.04 247.01H497.53L484.16 268.5C481.5 272.77 480.59 275.36 480.59 278.79C480.59 287.26 487.03 293.84 495.36 293.84C503.62 293.84 510.41 287.05 510.41 278.79C510.41 270.88 504.39 264.79 496.62 264.79C494.94 264.79 494.03 265 492.07 265.7L504.04 247.01ZM495.64 269.55C500.82 269.55 504.95 273.75 504.95 279C504.95 284.32 500.75 288.59 495.5 288.59C490.25 288.59 486.12 284.25 486.12 278.79C486.12 273.61 490.32 269.55 495.64 269.55ZM518.81 246.31V293H531.97C537.85 293 540.86 292.37 543.59 290.62C546.74 288.59 548.63 284.81 548.63 280.47C548.63 276.69 547.3 273.54 544.78 271.51C543.31 270.39 542.05 269.9 539.46 269.34C541.98 268.36 543.1 267.66 544.22 266.33C545.97 264.37 546.88 261.71 546.88 258.7C546.88 250.79 541.49 246.31 531.97 246.31H518.81ZM524.69 251.14H529.52C533.79 251.14 535.75 251.42 537.43 252.26C539.67 253.31 541.14 255.97 541.14 258.98C541.14 261.57 540.09 263.95 538.27 265.42C536.59 266.75 534.35 267.24 530.64 267.24L524.69 267.31V251.14ZM524.69 272.07H532.04C539.46 272.07 542.75 274.52 542.75 280.12C542.75 283.2 541.63 285.44 539.39 286.7C537.36 287.89 535.47 288.24 530.57 288.24H524.69V272.07ZM572.975 282.5V293H578.365V282.5H583.825V277.46H578.365V245.68L554.285 278.16V282.5H572.975ZM572.975 277.46H559.885L572.975 259.61V277.46Z" fill="#262323"/>
<rect x="134" y="460" width="159" height="159" fill="#262323"/>
<path d="M368.8 531.77H362.15L363.06 525.19H370.27L370.34 521.62H363.55L365.44 507.9H361.94L359.91 521.62H353.82L355.71 507.9H352.07L350.11 521.62H342.41V525.19H349.62L348.71 531.77H340.73V535.27H348.15L346.12 550.11H349.76L351.79 535.27H358.02L355.92 550.11H359.49L361.59 535.27H368.8V531.77ZM359.63 525.05L358.58 531.91H352.21L353.12 525.05H359.63ZM385.74 546.89L398.27 529.46C402.19 524 403.59 520.57 403.59 516.65C403.59 509.86 398.27 505.1 390.64 505.1C382.31 505.1 377.62 510 377.34 518.89H382.59C382.66 516.44 382.87 515.39 383.43 514.06C384.48 511.61 387.07 510.14 390.22 510.14C394.77 510.14 397.99 513.01 397.99 517.07C397.99 519.87 396.94 521.97 392.25 528.76L376.01 552H402.19V546.89H385.74ZM434.04 506.01H427.53L414.16 527.5C411.5 531.77 410.59 534.36 410.59 537.79C410.59 546.26 417.03 552.84 425.36 552.84C433.62 552.84 440.41 546.05 440.41 537.79C440.41 529.88 434.39 523.79 426.62 523.79C424.94 523.79 424.03 524 422.07 524.7L434.04 506.01ZM425.64 528.55C430.82 528.55 434.95 532.75 434.95 538C434.95 543.32 430.75 547.59 425.5 547.59C420.25 547.59 416.12 543.25 416.12 537.79C416.12 532.61 420.32 528.55 425.64 528.55ZM455.74 546.89L468.27 529.46C472.19 524 473.59 520.57 473.59 516.65C473.59 509.86 468.27 505.1 460.64 505.1C452.31 505.1 447.62 510 447.34 518.89H452.59C452.66 516.44 452.87 515.39 453.43 514.06C454.48 511.61 457.07 510.14 460.22 510.14C464.77 510.14 467.99 513.01 467.99 517.07C467.99 519.87 466.94 521.97 462.25 528.76L446.01 552H472.19V546.89H455.74ZM499.35 511.05L485.84 527.99L488.15 530.02C490.18 528.83 491.58 528.41 493.75 528.41C499.84 528.41 504.04 532.33 504.04 537.93C504.04 543.39 499.56 547.66 493.89 547.66C489.55 547.66 486.26 545.14 485 540.66L479.96 541.57C481.57 548.64 486.82 552.77 494.17 552.77C503.06 552.77 509.64 546.26 509.64 537.51C509.64 529.25 503.9 523.44 495.78 523.44L509.5 506.01H483.04V511.05H499.35ZM525.74 546.89L538.27 529.46C542.19 524 543.59 520.57 543.59 516.65C543.59 509.86 538.27 505.1 530.64 505.1C522.31 505.1 517.62 510 517.34 518.89H522.59C522.66 516.44 522.87 515.39 523.43 514.06C524.48 511.61 527.07 510.14 530.22 510.14C534.77 510.14 537.99 513.01 537.99 517.07C537.99 519.87 536.94 521.97 532.25 528.76L516.01 552H542.19V546.89H525.74ZM569.35 511.05L555.84 527.99L558.15 530.02C560.18 528.83 561.58 528.41 563.75 528.41C569.84 528.41 574.04 532.33 574.04 537.93C574.04 543.39 569.56 547.66 563.89 547.66C559.55 547.66 556.26 545.14 555 540.66L549.96 541.57C551.57 548.64 556.82 552.77 564.17 552.77C573.06 552.77 579.64 546.26 579.64 537.51C579.64 529.25 573.9 523.44 565.78 523.44L579.5 506.01H553.04V511.05H569.35Z" fill="#262323"/>
<rect x="733" y="201" width="159" height="159" fill="#CFFF00"/>
<path d="M967.8 287.77H961.15L962.06 281.19H969.27L969.34 277.62H962.55L964.44 263.9H960.94L958.91 277.62H952.82L954.71 263.9H951.07L949.11 277.62H941.41V281.19H948.62L947.71 287.77H939.73V291.27H947.15L945.12 306.11H948.76L950.79 291.27H957.02L954.92 306.11H958.49L960.59 291.27H967.8V287.77ZM958.63 281.05L957.58 287.91H951.21L952.12 281.05H958.63ZM1010.5 297.01C1006.86 301.42 1002.94 303.45 997.83 303.45C988.17 303.45 981.1 295.54 981.1 284.69C981.1 273.77 988.03 265.86 997.55 265.86C1002.52 265.86 1005.95 267.54 1010.5 272.23L1014.56 268.45C1012.25 265.93 1010.99 264.81 1009.1 263.62C1005.74 261.59 1001.61 260.47 997.41 260.47C984.53 260.47 975.08 270.69 975.08 284.69C975.08 291.2 977.39 297.57 981.31 301.98C985.3 306.46 990.83 308.84 997.34 308.84C1004.55 308.84 1009.73 306.46 1014.42 300.93L1010.5 297.01ZM1027.78 266.35H1045.98V261.31H1021.9V308H1027.78V287H1045.98V281.96H1027.78V266.35ZM1059.71 266.35H1077.91V261.31H1053.83V308H1059.71V287H1077.91V281.96H1059.71V266.35ZM1091.63 266.35H1109.83V261.31H1085.75V308H1091.63V287H1109.83V281.96H1091.63V266.35ZM1143.22 275.38C1143.22 269.92 1142.24 267.12 1139.58 264.67C1136.99 262.36 1133.49 261.17 1129.22 261.17C1124.46 261.17 1120.61 262.71 1118.3 265.51C1116.2 268.03 1115.5 270.9 1115.5 276.99V292.39C1115.5 299.46 1116.13 302.12 1118.58 304.71C1121.03 307.37 1124.81 308.77 1129.36 308.77C1133.77 308.77 1137.48 307.44 1139.93 304.85C1142.24 302.4 1143.22 299.18 1143.22 293.93V275.38ZM1121.03 277.13C1121.03 273.07 1121.31 271.46 1122.5 269.78C1123.83 267.61 1126.42 266.42 1129.43 266.42C1131.74 266.42 1133.84 267.19 1135.38 268.59C1137.13 270.27 1137.76 272.09 1137.76 275.73V293.58C1137.76 297.01 1137.34 298.97 1136.29 300.51C1134.96 302.4 1132.3 303.59 1129.43 303.59C1126.77 303.59 1124.25 302.54 1122.78 300.86C1121.24 299.11 1121.03 298.13 1121.03 292.74V277.13ZM1178.22 275.38C1178.22 269.92 1177.24 267.12 1174.58 264.67C1171.99 262.36 1168.49 261.17 1164.22 261.17C1159.46 261.17 1155.61 262.71 1153.3 265.51C1151.2 268.03 1150.5 270.9 1150.5 276.99V292.39C1150.5 299.46 1151.13 302.12 1153.58 304.71C1156.03 307.37 1159.81 308.77 1164.36 308.77C1168.77 308.77 1172.48 307.44 1174.93 304.85C1177.24 302.4 1178.22 299.18 1178.22 293.93V275.38ZM1156.03 277.13C1156.03 273.07 1156.31 271.46 1157.5 269.78C1158.83 267.61 1161.42 266.42 1164.43 266.42C1166.74 266.42 1168.84 267.19 1170.38 268.59C1172.13 270.27 1172.76 272.09 1172.76 275.73V293.58C1172.76 297.01 1172.34 298.97 1171.29 300.51C1169.96 302.4 1167.3 303.59 1164.43 303.59C1161.77 303.59 1159.25 302.54 1157.78 300.86C1156.24 299.11 1156.03 298.13 1156.03 292.74V277.13Z" fill="#262323"/>
<rect x="733.5" y="460.5" width="158" height="158" fill="white" stroke="#262323"/>
<path d="M967.8 546.77H961.15L962.06 540.19H969.27L969.34 536.62H962.55L964.44 522.9H960.94L958.91 536.62H952.82L954.71 522.9H951.07L949.11 536.62H941.41V540.19H948.62L947.71 546.77H939.73V550.27H947.15L945.12 565.11H948.76L950.79 550.27H957.02L954.92 565.11H958.49L960.59 550.27H967.8V546.77ZM958.63 540.05L957.58 546.91H951.21L952.12 540.05H958.63ZM983.69 525.35H1001.89V520.31H977.81V567H983.69V546H1001.89V540.96H983.69V525.35ZM1015.61 525.35H1033.81V520.31H1009.73V567H1015.61V546H1033.81V540.96H1015.61V525.35ZM1047.54 525.35H1065.74V520.31H1041.66V567H1047.54V546H1065.74V540.96H1047.54V525.35ZM1079.46 525.35H1097.66V520.31H1073.58V567H1079.46V546H1097.66V540.96H1079.46V525.35ZM1111.39 525.35H1129.59V520.31H1105.51V567H1111.39V546H1129.59V540.96H1111.39V525.35ZM1143.31 525.35H1161.51V520.31H1137.43V567H1143.31V546H1161.51V540.96H1143.31V525.35Z" fill="#262323"/>
<rect x="1332" y="201" width="159" height="159" fill="#FF800C"/>
<path d="M1566.8 287.77H1560.15L1561.06 281.19H1568.27L1568.34 277.62H1561.55L1563.44 263.9H1559.94L1557.91 277.62H1551.82L1553.71 263.9H1550.07L1548.11 277.62H1540.41V281.19H1547.62L1546.71 287.77H1538.73V291.27H1546.15L1544.12 306.11H1547.76L1549.79 291.27H1556.02L1553.92 306.11H1557.49L1559.59 291.27H1566.8V287.77ZM1557.63 281.05L1556.58 287.91H1550.21L1551.12 281.05H1557.63ZM1582.69 266.35H1600.89V261.31H1576.81V308H1582.69V287H1600.89V281.96H1582.69V266.35ZM1614.61 266.35H1632.81V261.31H1608.73V308H1614.61V287H1632.81V281.96H1614.61V266.35ZM1657.95 282.66C1660.33 281.82 1661.31 281.19 1662.57 279.79C1664.25 277.83 1665.16 275.31 1665.16 272.65C1665.16 266 1659.84 261.17 1652.49 261.17C1645.07 261.17 1639.61 266.07 1639.61 272.72C1639.61 275.31 1640.45 277.69 1641.99 279.58C1643.25 281.12 1644.3 281.82 1646.75 282.66C1643.95 283.57 1642.76 284.27 1641.29 285.81C1639.05 288.12 1637.79 291.48 1637.79 295.19C1637.79 303.17 1643.74 308.84 1652.21 308.84C1660.75 308.84 1666.84 302.96 1666.84 294.7C1666.84 291.06 1665.65 287.98 1663.34 285.67C1661.87 284.13 1660.61 283.5 1657.95 282.66ZM1652.49 266.07C1656.48 266.07 1659.91 269.22 1659.91 272.86C1659.91 276.64 1656.34 279.93 1652.35 279.93C1648.22 279.93 1644.93 276.78 1644.93 272.79C1644.93 268.87 1648.01 266.07 1652.49 266.07ZM1652.42 285.6C1657.25 285.6 1661.24 289.73 1661.24 294.63C1661.24 299.6 1657.25 303.66 1652.28 303.66C1647.31 303.66 1643.32 299.6 1643.32 294.63C1643.32 289.59 1647.38 285.6 1652.42 285.6ZM1701.21 275.38C1701.21 269.92 1700.23 267.12 1697.57 264.67C1694.98 262.36 1691.48 261.17 1687.21 261.17C1682.45 261.17 1678.6 262.71 1676.29 265.51C1674.19 268.03 1673.49 270.9 1673.49 276.99V292.39C1673.49 299.46 1674.12 302.12 1676.57 304.71C1679.02 307.37 1682.8 308.77 1687.35 308.77C1691.76 308.77 1695.47 307.44 1697.92 304.85C1700.23 302.4 1701.21 299.18 1701.21 293.93V275.38ZM1679.02 277.13C1679.02 273.07 1679.3 271.46 1680.49 269.78C1681.82 267.61 1684.41 266.42 1687.42 266.42C1689.73 266.42 1691.83 267.19 1693.37 268.59C1695.12 270.27 1695.75 272.09 1695.75 275.73V293.58C1695.75 297.01 1695.33 298.97 1694.28 300.51C1692.95 302.4 1690.29 303.59 1687.42 303.59C1684.76 303.59 1682.24 302.54 1680.77 300.86C1679.23 299.11 1679.02 298.13 1679.02 292.74V277.13ZM1736.21 275.38C1736.21 269.92 1735.23 267.12 1732.57 264.67C1729.98 262.36 1726.48 261.17 1722.21 261.17C1717.45 261.17 1713.6 262.71 1711.29 265.51C1709.19 268.03 1708.49 270.9 1708.49 276.99V292.39C1708.49 299.46 1709.12 302.12 1711.57 304.71C1714.02 307.37 1717.8 308.77 1722.35 308.77C1726.76 308.77 1730.47 307.44 1732.92 304.85C1735.23 302.4 1736.21 299.18 1736.21 293.93V275.38ZM1714.02 277.13C1714.02 273.07 1714.3 271.46 1715.49 269.78C1716.82 267.61 1719.41 266.42 1722.42 266.42C1724.73 266.42 1726.83 267.19 1728.37 268.59C1730.12 270.27 1730.75 272.09 1730.75 275.73V293.58C1730.75 297.01 1730.33 298.97 1729.28 300.51C1727.95 302.4 1725.29 303.59 1722.42 303.59C1719.76 303.59 1717.24 302.54 1715.77 300.86C1714.23 299.11 1714.02 298.13 1714.02 292.74V277.13ZM1778.35 297.01C1774.71 301.42 1770.79 303.45 1765.68 303.45C1756.02 303.45 1748.95 295.54 1748.95 284.69C1748.95 273.77 1755.88 265.86 1765.4 265.86C1770.37 265.86 1773.8 267.54 1778.35 272.23L1782.41 268.45C1780.1 265.93 1778.84 264.81 1776.95 263.62C1773.59 261.59 1769.46 260.47 1765.26 260.47C1752.38 260.47 1742.93 270.69 1742.93 284.69C1742.93 291.2 1745.24 297.57 1749.16 301.98C1753.15 306.46 1758.68 308.84 1765.19 308.84C1772.4 308.84 1777.58 306.46 1782.27 300.93L1778.35 297.01Z" fill="#262323"/>
</svg>
