<svg width="63" height="23" viewBox="0 0 63 23" fill="none" xmlns="http://www.w3.org/2000/svg">
<path d="M4.8618 19C1.7701 15.569 -2.00864 7.67756 4.86182 2.87413C11.0452 -1.44893 18.7172 2.87415 21.3508 4.24656C23.1829 3.56036 27.8777 2.18796 32 2.18796" stroke="black"/>
<path d="M58.1382 19C61.2299 15.569 65.0086 7.67756 58.1382 2.87413C51.9548 -1.44893 44.2828 2.87415 41.6492 4.24656C39.8171 3.56036 35.1223 2.18796 31 2.18796" stroke="black"/>
<circle cx="16" cy="12" r="1" fill="black"/>
<circle cx="47" cy="12" r="1" fill="black"/>
<path d="M26 20C26.6215 20.6667 28.5424 22 31.2542 22C33.9661 22 35.548 20.6667 36 20" stroke="black"/>
<path d="M5 19C4 19.6154 2 21.2769 2 23" stroke="black"/>
<path d="M58 19C58.6667 19.6154 60 21.2769 60 23" stroke="black"/>
<circle cx="15.5" cy="12.5" r="8.25" stroke="#ADF442" stroke-width="2.5"/>
<circle cx="47.5" cy="12.5" r="8.25" stroke="#ADF442" stroke-width="2.5"/>
<path d="M24 12H38" stroke="#ADF442" stroke-width="2.5"/>
</svg>
