<svg width="27" height="79" viewBox="0 0 27 79" fill="none" xmlns="http://www.w3.org/2000/svg">
<path d="M22.5 74.6382C19.069 77.7299 11.1776 81.5086 6.37413 74.6382C2.05107 68.4548 6.37415 60.7828 7.74656 58.1492C7.06036 56.317 5.68796 51.6222 5.68796 47.5" stroke="black"/>
<path d="M22.5 21.3618C19.069 18.2701 11.1776 14.4913 6.37413 21.3618C2.05107 27.5452 6.37415 35.2171 7.74656 37.8508C7.06036 39.6829 5.68796 44.3777 5.68796 48.5" stroke="black"/>
<circle cx="15.5" cy="63.5" r="1" transform="rotate(-90 15.5 63.5)" fill="black"/>
<circle cx="15.5" cy="32.5" r="1" transform="rotate(-90 15.5 32.5)" fill="black"/>
<path d="M21.5 58.5C22.8333 57.257 25.5 53.4152 25.5 47.9915C25.5 42.5678 22.8333 39.4039 21.5 38.5" stroke="black"/>
<path d="M22.5 74.5C23.1154 75.5 24.7769 77.5 26.5 77.5" stroke="black"/>
<path d="M22.5 21.5C23.1154 20.8333 24.7769 19.5 26.5 19.5" stroke="black"/>
<path d="M26.4999 19.4999C25.3333 17.3333 22.0999 13.0999 18.4999 13.4999C13.9999 13.9999 12.9999 10.5 13.4999 7.99997C13.9999 5.49997 22.9999 3.99997 26.4999 11" stroke="black"/>
<path d="M6.00381 8.19608C5.59404 7.45156 5.12584 5.74676 6.53124 4.88371C7.93663 4.02065 8.80651 4.34031 9.06577 4.60802" stroke="black"/>
<path d="M1.76033 7.35841C1.04173 6.05279 0.220681 3.06318 2.68524 1.54969C5.1498 0.0362023 6.67526 0.596763 7.12991 1.06623" stroke="black"/>
</svg>
