<svg width="88" height="33" viewBox="0 0 88 33" fill="none" xmlns="http://www.w3.org/2000/svg">
<path d="M7.26609 26.5455C3.05014 21.8668 -2.10269 11.1058 7.26611 4.55563C15.698 -1.33946 26.1598 4.55566 29.7511 6.42713C32.2495 5.4914 38.6515 3.61994 44.2727 3.61994" stroke="black" stroke-width="4"/>
<path d="M79.9157 26.5455C84.1317 21.8668 89.2845 11.1058 79.9157 4.55563C71.4838 -1.33946 61.022 4.55566 57.4307 6.42713C54.9323 5.4914 48.5303 3.61994 42.9091 3.61994" stroke="black" stroke-width="4"/>
<circle cx="22.4545" cy="17" r="1.36364" fill="black" stroke="black" stroke-width="5"/>
<circle cx="64.7273" cy="17" r="1.36364" fill="black" stroke="black" stroke-width="5"/>
<path d="M29.2727 25.1818C30.9677 27 36.2065 30.6364 43.6025 30.6364C50.9985 30.6364 55.3128 27 56.5455 25.1818" stroke="black" stroke-width="4"/>
<path d="M7.45454 26.5455C6.0909 27.3846 3.36363 29.6504 3.36363 32" stroke="black" stroke-width="4"/>
<path d="M79.7273 26.5455C80.6364 27.3846 82.4545 29.6504 82.4545 32" stroke="black" stroke-width="4"/>
</svg>
